SplineFontDB: 3.0
FontName: Nepomuk-Regular
FullName: Nepomuk Regular
FamilyName: Nepomuk
Weight: Regular

StartChar: E
Encoding: 69 69 0
Width: 631
VWidth: 0
Flags: W
HStem: 0 36<38 125.467 233.014 442.286> 326 36<223 333.937> 449 21G<523.5 567> 644 36<38 125.467 234.704 438.264>
VStem: 128 95<44.481 326 362 633.224> 385 35<180 256.835 427.407 507> 537 30<449 504.176> 554 30<197.243 269>
AnchorPoint: "trema" 337 750 basechar 0
AnchorPoint: "acute gravis circumflex tilde" 337 730 basechar 0
LayerCount: 5
Fore
SplineSet
38 680 m 1xfd
 217 680 385 680 562 680 c 1
 567 449 l 1
 537 449 l 1xfe
 510 576 471 644 351 644 c 2
 288 644 l 2
 258 644 223 628 223 604 c 2
 223 362 l 5
 286 362 l 6
 346 362 377 417 385 507 c 5
 420 507 l 5
 420 180 l 5
 385 180 l 5
 377 270 342 326 286 326 c 6
 223 326 l 5
 223 79 l 2
 223 55 248 36 274 36 c 2
 348 36 l 2
 514 36 532 148 554 269 c 1
 584 269 l 1
 579 0 l 1
 38 0 l 1
 38 35 l 1
 78 35 l 2
 123 35 128 40 128 85 c 2
 128 595 l 2
 128 640 123 645 78 645 c 2
 38 645 l 1
 38 680 l 1xfd
EndSplineSet
Substitution2: "'ss01' Stilgruppe 1 in Latin lookup 2-1" E.alt
EndChar

StartChar: s
Encoding: 115 115 1
Width: 467
VWidth: 0
Flags: W
HStem: -12 39<172.693 321.746> 426 36<159.41 289.817>
VStem: 57 34<119.583 180> 67 69<329.897 400.465> 355 34<307 358.078> 358 62<64.3836 149.287>
LayerCount: 5
Fore
SplineSet
87 -12 m 0xd4
 57 -12 l 9
 57 180 l 1
 91 180 l 17
 105 76 174 27 249 27 c 3
 314 27 358 63 358 100 c 0xe4
 358 140 333 162 257 188 c 2
 189 211 l 18
 94 243 67 272 67 337 c 3
 67 408 141 462 220 462 c 3
 249 462 280 456 307 441 c 0
 328 429 337 431 349 448 c 2
 359 462 l 1
 389 462 l 0
 389 307 l 0
 355 307 l 1xd8
 343 384 286 426 224 426 c 3
 177 426 136 403 136 369 c 3
 136 340 156 323 215 303 c 10
 279 281 l 18
 355 255 420 214 420 139 c 3
 420 44 333 -12 246 -12 c 3
 208 -12 174 -2 142 17 c 0
 122 29 109 28 97 5 c 2
 87 -12 l 0xd4
EndSplineSet
Layer: 2
SplineSet
87 -12 m 4xd4
 57 -12 l 13
 57 180 l 5
 91 180 l 21xe4
 105 76 167 23 249 23 c 7
 314 23 359 59 359 97 c 4
 359 134 333 157 257 183 c 6
 189 206 l 22
 94 238 67 266 67 337 c 7
 67 408 141 462 220 462 c 7
 249 462 280 456 307 441 c 4
 328 429 337 431 349 448 c 6
 359 462 l 5xd4
 389 462 l 4
 389 307 l 4
 355 307 l 5xc8
 343 384 290 429 224 429 c 7
 177 429 136 406 136 369 c 7
 136 344 156 327 215 307 c 14
 279 285 l 22
 355 259 420 218 420 139 c 7
 420 44 333 -12 246 -12 c 7
 208 -12 173 -2 142 19 c 4
 123 32 109 28 97 5 c 6
 87 -12 l 4xd4
EndSplineSet
Layer: 3
SplineSet
-23 383 m 1
 523 199 l 1
 523 99 l 5
 -23 283 l 5
 -23 383 l 1
EndSplineSet
EndChar

StartChar: e
Encoding: 101 101 2
Width: 499
VWidth: 0
Flags: W
HStem: -12 37<216.792 333.906> 237 30<156 337.514> 436 26<217.789 296.551>
VStem: 48 108<117.498 237 267 332.502> 344 104<269.985 353.069> 412 32<109.495 135.464>
AnchorPoint: "trema" 260 530 basechar 0
AnchorPoint: "acute gravis circumflex tilde" 260 530 basechar 0
LayerCount: 5
Back
SplineSet
252 462 m 1024,26,27
447 134 m 5,0,1
 418 45 338 -12 262 -12 c 4,2,3
 143 -12 50 95 50 225 c 0,4,5
 50 355 140 462 252 462 c 0,6,7
 361 462 442 370 442 238 c 9,8,9
 442 238 185 238 160 238 c 1,10,11
 160 234 160 229 160 225 c 0,12,13
 160 105 198 21 276 21 c 4,14,15
 326 21 393 64 419 144 c 5,16,-1
 447 134 l 5,0,1
336 306 m 3,0,0
 336 368 304 436 252 436 c 0,19,20
 199 436 168 364 161 267 c 1,21,-1
 297 267 l 2,0,0
 331 267 336 275 336 306 c 3,0,0
EndSplineSet
Fore
SplineSet
156 237 m 1xf8
 156 233 156 228 156 224 c 4
 156 75 209 25 272 25 c 4
 322 25 386 64 412 144 c 5
 444 133 l 5xf4
 415 44 336 -12 260 -12 c 4
 129 -12 48 95 48 225 c 0
 48 355 130 462 260 462 c 0
 390 462 448 351 448 251 c 2
 448 237 l 1
 156 237 l 1xf8
344 312 m 3xf8
 344 380 311 436 260 436 c 0
 203 436 164 386 156 267 c 1
 296 267 l 2
 329 267 344 275 344 312 c 3xf8
EndSplineSet
Layer: 2
SplineSet
260 -12 m 0
 128 -12 48 95 48 225 c 0
 48 355 130 462 260 462 c 0
 390 462 448 351 448 252 c 0
 448 239 351 235.850585938 351 253 c 0
 351 367 323 436 260 436 c 0
 197 436 155 375 156 224 c 0
 156 75 209 25 272 25 c 0
 322 25 386 64 412 144 c 1
 444 133 l 1
 415 44 336 -12 260 -12 c 0
144 267 m 1
 448 267 l 1
 448 237 l 1
 144 237 l 1
 144 267 l 1
EndSplineSet
EndChar

StartChar: p
Encoding: 112 112 3
Width: 557
VWidth: 0
Flags: W
HStem: -230 35<28 105.149 196.851 294> -12 31<267.737 346.678> 415 35<28 105.149> 429 33<276.07 351.037>
VStem: 108 96<91.7242 343.333> 108 86<-193.286 68 359 413.286> 398 102<104.07 350.166>
LayerCount: 5
Fore
SplineSet
194 68 m 1xd6
 194 -145 l 6
 194 -190 199 -195 244 -195 c 6
 294 -195 l 5
 294 -230 l 5
 28 -230 l 5
 28 -195 l 5
 58 -195 l 6
 103 -195 108 -190 108 -145 c 6
 108 365 l 2
 108 410 103 415 58 415 c 2
 28 415 l 1
 28 450 l 1
 194 450 l 1
 194 359 l 1xe6
 202 359 l 1
 234 428 285 462 332 462 c 0
 425 462 500 375 500 225 c 0
 500 75 420 -12 324 -12 c 0
 266 -12 230 20 204 68 c 1xda
 194 68 l 1xd6
398 225 m 0
 398 360 366 429 314 429 c 0
 252 429 204 329 204 225 c 0xda
 204 79 259 19 312 19 c 0
 359 19 398 90 398 225 c 0
EndSplineSet
Layer: 2
SplineSet
108 -145 m 2
 108 365 l 2
 108 410 103 415 58 415 c 2
 28 415 l 1
 28 450 l 1
 194 450 l 1
 194 -145 l 2
 194 -190 199 -195 244 -195 c 2
 294 -195 l 1
 294 -230 l 1
 28 -230 l 1
 28 -195 l 1
 58 -195 l 2
 103 -195 108 -190 108 -145 c 2
177 267 m 1
 195 399 268 462 332 462 c 0
 425 462 501 375 501 225 c 0
 501 75 420 -12 324 -12 c 0
 242 -12 207 51 175 135 c 1
 177 267 l 1
398 225 m 0
 398 360 367 429 315 429 c 0
 253 429 204 329 204 225 c 0
 204 79 259 19 312 19 c 0
 359 19 398 90 398 225 c 0
EndSplineSet
EndChar

StartChar: r
Encoding: 114 114 4
Width: 416
VWidth: 0
Flags: W
HStem: 0 35<38 115.149 205.851 303> 332 130<292.906 378.225> 415 35<38 115.149>
VStem: 118 85<36.7143 341.56 359 413.286>
LayerCount: 5
Fore
SplineSet
209 359 m 1xb0
 236 416 278 462 325 462 c 0
 363 462 398 433 398 394 c 0
 398 361 376 332 342 332 c 0xd0
 316 332 296 345 283 366 c 0
 269 389 256 387 240 366 c 0
 222 342 203 298 203 259 c 2
 203 85 l 2
 203 40 208 35 253 35 c 2
 303 35 l 1
 303 0 l 1
 38 0 l 1
 38 35 l 1
 68 35 l 2
 113 35 118 40 118 85 c 2
 118 365 l 6
 118 410 113 415 68 415 c 6
 38 415 l 5
 38 450 l 5
 198 450 l 5
 198 359 l 1
 209 359 l 1xb0
EndSplineSet
Layer: 2
SplineSet
198 450 m 1
 38 450 l 1
 38 415 l 1
 68 415 l 2
 113 415 118 410 118 365 c 2
 118 85 l 2
 118 50 103 35 68 35 c 2
 38 35 l 1
 38 0 l 1
 303 0 l 1
 303 35 l 1
 253 35 l 2
 218 35 203 50 203 85 c 2
 203 305 l 1
 198 312 l 1
 198 450 l 1
325 462 m 3
 363 462 398 433 398 394 c 27
 398 361 376 332 342 332 c 3
 316.103515625 332 296.075195312 345.015625 283 366.008789062 c 0
 268.659179688 389.033203125 255.879882812 386.966796875 240.393554688 366 c 0
 222.323242188 341.53515625 203 298.197265625 203 259 c 1
 180 259 l 17
 180 317 242 462 325 462 c 3
EndSplineSet
EndChar

StartChar: m
Encoding: 109 109 5
Width: 843
VWidth: 0
Flags: W
HStem: 0 35<48 112.727 205.851 263 329 386.149 481.851 539 605 662.149 757.851 815> 415 35<38 115.149> 418 44<270.736 362.814 546.911 639.24>
VStem: 118 85<38.1941 338.634 360 413.286> 389 90<36.7143 338.634> 665 90<36.7143 389.752>
LayerCount: 5
Fore
SplineSet
480 349 m 1xbc
 501 410 547 462 621 462 c 0
 716 462 755 383 755 279 c 2
 755 85 l 2
 755 40 760 35 805 35 c 2
 815 35 l 1
 815 0 l 1
 605 0 l 1
 605 35 l 1
 615 35 l 2
 660 35 665 40 665 85 c 2
 665 275 l 2
 665 382 640 418 592 418 c 0
 514 418 479 296 479 236 c 2
 479 85 l 2
 479 40 484 35 529 35 c 2
 539 35 l 1
 539 0 l 1
 329 0 l 1
 329 35 l 1
 339 35 l 2
 384 35 389 40 389 85 c 2
 389 275 l 2
 389 382 364 418 316 418 c 0xbc
 238 418 203 296 203 236 c 2
 203 85 l 2
 203 40 208 35 253 35 c 2
 263 35 l 1
 263 0 l 1
 48 0 l 1
 48 35 l 1
 68 35 l 2
 108 35 118 45 118 85 c 2
 118 365 l 2
 118 410 113 415 68 415 c 2
 38 415 l 1
 38 450 l 1
 198 450 l 1xdc
 198 360 l 1
 207 360 l 1
 232 417 276 462 345 462 c 0
 417 462 458 416 471 349 c 1
 480 349 l 1xbc
EndSplineSet
Layer: 2
SplineSet
755 85 m 6
 755 40 760 35 805 35 c 6
 815 35 l 5
 815 0 l 5
 605 0 l 5
 605 35 l 5
 615 35 l 6
 660 35 665 40 665 85 c 6
 665 275 l 6
 665 382 640 418 592 418 c 7
 514 418 479 296 479 236 c 5
 459 236 l 5
 459 334 504 462 621 462 c 7
 716 462 755 383 755 279 c 6
 755 85 l 6
479 85 m 6
 479 40 484 35 529 35 c 6
 539 35 l 5
 539 0 l 5
 329 0 l 5
 329 35 l 5
 339 35 l 6
 384 35 389 40 389 85 c 6
 389 275 l 6
 389 382 364 418 316 418 c 7
 238 418 203 296 203 236 c 5
 183 236 l 5
 183 334 228 462 345 462 c 7
 440 462 479 383 479 279 c 6
 479 85 l 6
253 35 m 6
 263 35 l 5
 263 0 l 5
 48 0 l 5
 48 35 l 5
 68 35 l 6
 108 35 118 45 118 85 c 6
 118 365 l 6
 118 410 113 415 68 415 c 6
 38 415 l 5
 38 450 l 5
 198 450 l 5
 198 316 l 5
 203 300 l 5
 203 85 l 6
 203 40 208 35 253 35 c 6
EndSplineSet
EndChar

StartChar: a
Encoding: 97 97 6
Width: 547
VWidth: 0
Flags: W
HStem: -12 46<409.955 494.747> -12 36<177.911 271.092> 431 31<176.894 300.394>
VStem: 57 101<39.5872 179.839> 83 81<325.174 408.665> 339 90<77.615 261 290 392.316> 514 24<63.8188 93.792>
AnchorPoint: "trema" 261 530 basechar 0
AnchorPoint: "acute gravis circumflex tilde" 261 530 basechar 0
LayerCount: 5
Back
SplineSet
432 316 m 6
 432 124 l 6
 432 55 444 34 468 34 c 4
 492 34 508 59 517 98 c 5
 541 92 l 5
 531 28 487 -12 440 -12 c 4
 386 -12 359 18 348 66 c 5
 321 28 270 -12 191 -12 c 4
 115 -12 60 39 60 107 c 4
 60 206 151 244 258 270 c 6
 342 291 l 5
 342 302 l 6
 342 378 322 431 252 431 c 4
 195 431 167 417 167 394 c 4
 167 379 187 366 187 343 c 4
 187 317 167 296 141 296 c 4
 102 296 86 326 86 357 c 4
 86 402 137 462 260 462 c 4
 368 462 432 400 432 316 c 6
161 118 m 4
 161 56 179 24 227 24 c 4
 274 24 342 81 342 132 c 6
 342 262 l 5
 276 245 l 6
 183 222 161 185 161 118 c 4
EndSplineSet
Fore
SplineSet
429 316 m 2x6e
 429 124 l 2
 429 55 441 34 465 34 c 0
 489 34 505 59 514 98 c 1
 538 92 l 1
 528 28 484 -12 437 -12 c 0xae
 383 -12 356 18 345 66 c 1
 318 28 267 -12 188 -12 c 0
 112 -12 57 39 57 107 c 0x76
 57 206 148 244 255 270 c 2
 339 290 l 1
 339 301 l 2
 339 377 319 431 249 431 c 0
 192 431 164 417 164 394 c 0
 164 379 184 366 184 343 c 0
 184 317 164 296 138 296 c 0
 99 296 83 326 83 357 c 0
 83 402 134 462 257 462 c 0
 365 462 429 400 429 316 c 2x6e
158 118 m 0x76
 158 56 176 24 224 24 c 0
 271 24 339 81 339 132 c 2
 339 261 l 1
 273 245 l 2
 180 222 158 185 158 118 c 0x76
EndSplineSet
Layer: 2
SplineSet
158 118 m 7
 158 56 176 24 224 24 c 7
 271 24 339 81 339 132 c 5
 350 265 l 5
 273 245 l 6
 180 222 158 185 158 118 c 7
370 122 m 5
 367 89 314 -12 188 -12 c 7
 112 -12 57 39 57 107 c 7
 57 206 148 244 255 270 c 6
 362 297 l 13
 370 122 l 5
429 316 m 6
 429 124 l 6
 429 55 441 34 465 34 c 4
 489 34 505 59 514 98 c 5
 538 92 l 5
 528 28 484 -12 437 -12 c 4
 363 -12 339 45 339 129 c 6
 339 302 l 6
 339 378 319 431 249 431 c 7
 192 431 164 417 164 394 c 7
 164 379 184 366 184 343 c 7
 184 317 164 296 138 296 c 7
 99 296 83 326 83 357 c 7
 83 402 134 462 257 462 c 7
 365 462 429 400 429 316 c 6
EndSplineSet
EndChar

StartChar: c
Encoding: 99 99 7
Width: 463
VWidth: 0
Flags: W
HStem: -12 36<219.284 322.513> 433 29<215.547 314.559>
VStem: 48 108<116.912 333.83> 330 82<306.45 397.908>
AnchorPoint: "cedilla" 226 -1 basechar 0
LayerCount: 5
Back
SplineSet
415 333 m 4
 415 298 392 266 357 266 c 7
 324 266 296 293 296 326 c 7
 296 374 344 372 344 390 c 4
 344 414 309 433 262 433 c 4
 199 433 158 375 158 225 c 4
 158 75 215 24 272 24 c 4
 319 24 357 59 388 122 c 5
 419 114 l 4
 390 45 338 -12 256 -12 c 4
 132 -12 50 95 50 225 c 4
 50 355 132 462 258 462 c 4
 356 462 415 393 415 333 c 4
EndSplineSet
Fore
SplineSet
412 333 m 0
 412 298 389 266 354 266 c 3
 321 266 294 293 294 326 c 3
 294 366 330 376 330 394 c 0
 330 412 307 433 260 433 c 0
 197 433 156 375 156 225 c 0
 156 75 213 24 270 24 c 4
 317 24 355 59 386 122 c 5
 416 114 l 4
 387 45 336 -12 254 -12 c 4
 130 -12 48 95 48 225 c 0
 48 355 130 462 256 462 c 0
 354 462 412 393 412 333 c 0
EndSplineSet
Layer: 3
SplineSet
158 225 m 4
 158 75 199 14 262 14 c 4
 325 14 366 75 366 225 c 4
 366 375 325 436 262 436 c 4
 199 436 158 375 158 225 c 4
50 225 m 4
 50 355 132 462 262 462 c 4
 392 462 474 355 474 225 c 4
 474 95 392 -12 262 -12 c 4
 132 -12 50 95 50 225 c 4
EndSplineSet
EndChar

StartChar: n
Encoding: 110 110 8
Width: 577
VWidth: 0
Flags: W
HStem: 0 35<48 112.727 205.851 263 339 396.149 491.851 549> 415 35<38 115.149> 418 44<275.795 371.287>
VStem: 118 85<38.1941 331.226 358 413.286> 399 90<36.7143 386.212>
AnchorPoint: "acute gravis circumflex tilde" 284 530 basechar 0
LayerCount: 5
Back
SplineSet
213 359 m 5
 238 416 280 462 345 462 c 4
 440 462 476 383 476 279 c 6
 476 85 l 6
 476 50 491 35 526 35 c 6
 536 35 l 5
 536 0 l 5
 326 0 l 5
 326 35 l 5
 336 35 l 6
 371 35 386 50 386 85 c 6
 386 275 l 6
 386 382 364 418 316 418 c 4
 238 418 205 276 205 216 c 6
 205 85 l 6
 205 50 220 35 255 35 c 6
 265 35 l 5
 265 0 l 5
 50 0 l 5
 50 35 l 5
 70 35 l 6
 105 35 120 50 120 85 c 6
 120 363 l 6
 120 398 105 413 70 413 c 6
 40 413 l 5
 40 444 l 5
 205 456 l 5
 205 359 l 5
 213 359 l 5
EndSplineSet
Fore
SplineSet
208 358 m 1xd8
 234 416 280 462 350 462 c 0
 445 462 489 383 489 279 c 2
 489 85 l 2
 489 40 494 35 539 35 c 2
 549 35 l 1
 549 0 l 1
 339 0 l 1
 339 35 l 1
 349 35 l 2
 394 35 399 40 399 85 c 2
 399 275 l 2
 399 382 369 418 321 418 c 0xb8
 243 418 203 296 203 236 c 2
 203 85 l 2
 203 40 208 35 253 35 c 2
 263 35 l 1
 263 0 l 1
 48 0 l 1
 48 35 l 1
 68 35 l 2
 108 35 118 45 118 85 c 2
 118 365 l 2
 118 410 113 415 68 415 c 2
 38 415 l 1
 38 450 l 1
 198 450 l 1
 198 358 l 1
 208 358 l 1xd8
EndSplineSet
Layer: 2
SplineSet
489 85 m 2
 489 40 494 35 539 35 c 2
 549 35 l 1
 549 0 l 1
 339 0 l 1
 339 35 l 1
 349 35 l 2
 394 35 399 40 399 85 c 2
 399 275 l 2
 399 382 369 418 321 418 c 3
 243 418 203 296 203 236 c 1
 183 236 l 1
 183 334 233 462 350 462 c 3
 445 462 489 383 489 279 c 2
 489 85 l 2
253 35 m 2
 263 35 l 1
 263 0 l 1
 48 0 l 1
 48 35 l 1
 68 35 l 2
 108 35 118 45 118 85 c 2
 118 365 l 2
 118 410 113 415 68 415 c 2
 38 415 l 1
 38 450 l 1
 198 450 l 1
 198 325 l 1
 203 304 l 1
 203 85 l 2
 203 40 208 35 253 35 c 2
EndSplineSet
EndChar

StartChar: o
Encoding: 111 111 9
Width: 518
VWidth: 0
Flags: W
HStem: -12 26<218.141 301.859> 436 26<218.141 301.859>
VStem: 48 108<115.852 334.148> 364 108<115.852 334.148>
AnchorPoint: "trema" 260 530 basechar 0
AnchorPoint: "acute gravis circumflex tilde" 260 530 basechar 0
LayerCount: 5
Fore
SplineSet
156 225 m 0
 156 75 197 14 260 14 c 0
 323 14 364 75 364 225 c 0
 364 375 323 436 260 436 c 0
 197 436 156 375 156 225 c 0
48 225 m 0
 48 355 130 462 260 462 c 0
 390 462 472 355 472 225 c 0
 472 95 390 -12 260 -12 c 0
 130 -12 48 95 48 225 c 0
EndSplineSet
EndChar

StartChar: t
Encoding: 116 116 10
Width: 369
VWidth: 0
Flags: W
HStem: -12 50<202.547 274.599> 415 35<191 302>
VStem: 106 85<44.8941 415> 165 26<624.01 666> 302 30<83.7841 203>
LayerCount: 5
Back
SplineSet
192 450 m 5
 303 450 l 5
 303 415 l 5
 192 415 l 5
 192 139 l 6
 192 70 215 57 235 57 c 4
 269 57 293 96 293 183 c 6
 293 203 l 5
 323 203 l 5
 323 182 l 6
 323 51 278 -12 206 -12 c 4
 132 -12 102 41 102 125 c 6
 102 415 l 5
 40 415 l 5
 40 438 l 5
 97 498 136 574 166 666 c 5
 192 666 l 5
 192 450 l 5
EndSplineSet
Fore
SplineSet
191 450 m 1xd8
 302 450 l 1
 302 415 l 1
 191 415 l 1
 191 139 l 2
 191 50 212 38 235 38 c 0
 272 38 302 80 302 183 c 2
 302 203 l 1
 332 203 l 1
 332 182 l 2
 332 51 285 -12 210 -12 c 0
 133 -12 106 41 106 125 c 2
 106 415 l 1xe8
 24 415 l 1
 24 438 l 1
 96 492 143 575 165 666 c 1
 191 666 l 1
 191 450 l 1xd8
EndSplineSet
EndChar

StartChar: l
Encoding: 108 108 11
Width: 316
VWidth: 0
Flags: W
HStem: 0 35<38 115.149 210.851 288> 645 35<38 115.149>
VStem: 118 90<36.7143 643.286>
LayerCount: 5
Back
SplineSet
260 35 m 6
 290 35 l 5
 290 0 l 5
 40 0 l 5
 40 35 l 5
 70 35 l 6
 105 35 120 50 120 85 c 6
 120 593 l 6
 120 628 105 643 70 643 c 6
 40 643 l 5
 40 674 l 5
 210 686 l 5
 210 85 l 6
 210 50 225 35 260 35 c 6
EndSplineSet
Fore
SplineSet
258 35 m 2
 288 35 l 1
 288 0 l 1
 38 0 l 1
 38 35 l 1
 68 35 l 2
 113 35 118 40 118 85 c 2
 118 595 l 2
 118 640 113 645 68 645 c 2
 38 645 l 1
 38 680 l 1
 208 680 l 1
 208 85 l 2
 208 40 213 35 258 35 c 2
EndSplineSet
EndChar

StartChar: g
Encoding: 103 103 12
Width: 557
VWidth: 0
Flags: W
HStem: -257 31<159.793 347.769> -45 83<170.987 379.976> 145 26<193.985 280.332> 424 50<423.812 503> 436 26<195.436 280.713>
VStem: 28 64<-182.138 -72.0727> 36 70<56.0057 117.268> 56 96<227.593 379.84> 322 98<227.686 389.322> 416 82<-161.802 -75.746> 462 96<343.937 423.222>
LayerCount: 5
Fore
SplineSet
56 304 m 0xf1
 56 392 137 462 238 462 c 0xe9
 296 462 347 439 380 403 c 1
 404 440 441 474 478 474 c 0
 528 474 558 439 558 393 c 0
 558 363 539 334 508 334 c 0
 482 334 462 352 462 380 c 0
 462 394 466 399 466 411 c 0
 466 418 461 424 452 424 c 0
 431 424 415 406 398 378 c 1
 412 356 420 331 420 304 c 0
 420 215 339 145 238 145 c 0
 218 145 198 148 180 153 c 1
 129 135 106 120 106 87 c 0xf2a0
 106 40 208 38 238 38 c 2
 292 38 l 2
 373 38 498 20 498 -91 c 0
 498 -188 391 -257 258 -257 c 0
 171 -257 28 -224 28 -126 c 0xf440
 28 -85 61 -51 120 -29 c 1
 67 -12 36 18 36 60 c 0xf2
 36 112 87 152 136 172 c 1
 88 200 56 248 56 304 c 0xf1
152 304 m 0
 152 214 184 171 238 171 c 0
 292 171 322 214 322 304 c 0xe980
 322 394 292 436 238 436 c 0
 184 436 152 394 152 304 c 0
170 -40 m 1
 126 -53 92 -78 92 -124 c 0
 92 -194 158 -226 258 -226 c 0
 345 -226 416 -194 416 -124 c 0xe440
 416 -74 363 -45 294 -45 c 2
 240 -45 l 2
 215 -45 191 -43 170 -40 c 1
EndSplineSet
Layer: 2
SplineSet
153 304 m 0
 153 214 184 171 238 171 c 0
 292 171 323 214 323 304 c 0
 323 394 292 436 238 436 c 0
 184 436 153 394 153 304 c 0
36 60 m 3xee
 36 124 113 169 168 182 c 1
 202 161 l 1
 136 138 107 125 107 87 c 3xee
 107 40 209 38 239 38 c 2
 292 38 l 2
 373 38 499 20 499 -91 c 3
 499 -188 391 -257 258 -257 c 3
 171 -257 29 -224 29 -126 c 3
 29 -65.5 100 -18 228 -8 c 1
 228 -30 l 1
 159 -37 93 -59.5 93 -124 c 3xf6
 93 -194 158 -226 258 -226 c 3
 345.46484375 -226 416 -194 416 -124 c 3
 416 -74 363 -45 294 -45 c 2
 240 -45 l 2
 115 -45 36 -6.5 36 60 c 3xee
478 474 m 3xe6
 528 474 558 439 558 393 c 3
 558 363.088867188 540.333007812 334 509 334 c 3
 483 334 463 352 463 380 c 3
 463 394 467 398.809570312 467 411 c 27
 467 418.451171875 462 424 453 424 c 3
 422.666992188 424 400.666992188 384.333007812 375.33203125 331.33203125 c 9
 358.333007812 361.331054688 l 17
 376 407.333007812 426 474 478 474 c 3xe6
161 304 m 0
 161 222 184 171 238 171 c 0
 292 171 315 222 315 304 c 0
 315 385 292 436 238 436 c 0
 184 436 161 385 161 304 c 0
56 304 m 0
 56 392 137 462 238 462 c 0
 339 462 420 392 420 304 c 0
 420 215 339 145 238 145 c 0
 137 145 56 215 56 304 c 0
EndSplineSet
EndChar

StartChar: period
Encoding: 46 46 14
Width: 302
VWidth: 0
Flags: W
HStem: -12 142<99.6823 202.318>
VStem: 80 142<7.68235 110.318>
LayerCount: 5
Fore
SplineSet
80 59 m 4
 80 98 112 130 151 130 c 4
 190 130 222 98 222 59 c 4
 222 20 190 -12 151 -12 c 4
 112 -12 80 20 80 59 c 4
EndSplineSet
EndChar

StartChar: i
Encoding: 105 105 15
Width: 325
VWidth: 0
Flags: W
HStem: 0 35<48 122.727 220.851 298> 415 35<48 125.149> 558 116<116.381 207.619>
VStem: 104 116<570.381 661.619> 128 90<38.1941 413.286>
LayerCount: 5
Fore
SplineSet
268 35 m 2xe8
 298 35 l 1
 298 0 l 1
 48 0 l 1
 48 35 l 1
 78 35 l 2
 118 35 128 45 128 85 c 2
 128 365 l 2
 128 410 123 415 78 415 c 2
 48 415 l 1
 48 450 l 1
 218 450 l 1
 218 85 l 2
 218 40 223 35 268 35 c 2xe8
104 616 m 0xf0
 104 648 130 674 162 674 c 0
 194 674 220 648 220 616 c 0
 220 584 194 558 162 558 c 0
 130 558 104 584 104 616 c 0xf0
EndSplineSet
EndChar

StartChar: u
Encoding: 117 117 16
Width: 582
VWidth: 0
Flags: W
HStem: -12 44<211.846 311.051> 0 35<473.562 540> 415 35<28 95.467 304 381.149>
VStem: 98 90<56.778 413.634> 384 86<37.0627 96 115.057 413.286>
LayerCount: 5
Fore
SplineSet
381 96 m 1x78
 356 36 308 -12 232 -12 c 0
 128 -12 98 67 98 171 c 2
 98 367 l 2
 98 412 93 415 48 415 c 2
 28 415 l 1
 28 450 l 1
 188 450 l 1
 188 175 l 2
 188 68 207 32 262 32 c 0xb8
 347 32 384 154 384 214 c 2
 384 365 l 2
 384 410 379 415 334 415 c 2
 304 415 l 1
 304 450 l 1
 470 450 l 1
 470 87 l 6
 470 42 475 35 520 35 c 6
 540 35 l 5
 540 0 l 5
 390 0 l 5
 390 96 l 1
 381 96 l 1x78
EndSplineSet
Layer: 2
SplineSet
390 0 m 1
 540 0 l 1
 540 35 l 1
 520 35 l 2
 475 35 470 42 470 87 c 2
 470 450 l 17
 304 450 l 1
 304 415 l 1
 334 415 l 2
 379 415 384 410 384 365 c 2
 384 166 l 1
 390 156 l 1
 390 0 l 1
188 450 m 17
 28 450 l 1
 28 415 l 1
 48 415 l 2
 93 415 98 412 98 367 c 2
 98 173 l 2
 98 69 128 -12 232 -12 c 3
 356 -12 404 116 404 214 c 1
 384 214 l 1
 384 154 346 32 261 32 c 3
 206 32 188 68 188 175 c 2
 188 450 l 17
EndSplineSet
EndChar

StartChar: v
Encoding: 118 118 17
Width: 498
VWidth: 0
Flags: W
HStem: -12 21G<231.384 268.373> 415 35<0 61.1047 163.879 218 308 386.49 434.129 498>
LayerCount: 5
Fore
SplineSet
218 450 m 1
 218 415 l 1
 204 415 l 2
 159 415 157 400 172 366 c 2
 277 123 l 1
 377 359 l 2
 399 411 382 415 345 415 c 2
 308 415 l 1
 308 450 l 1
 498 450 l 1
 498 415 l 1
 478 415 l 2
 443 415 438 413 417 363 c 2
 260 -12 l 1
 240 -12 l 1
 75 371 l 2
 59 408 50 415 17 415 c 2
 0 415 l 1
 0 450 l 1
 218 450 l 1
EndSplineSet
Layer: 2
SplineSet
446 434 m 1
 260 -12 l 1
 236 27 l 1
 404 423 l 1
 446 434 l 1
498 450 m 1
 498 415 l 1
 308 415 l 1
 308 450 l 1
 498 450 l 1
218 450 m 1
 218 415 l 1
 0 415 l 1
 0 450 l 1
 218 450 l 1
240 -12 m 1
 48 435 l 1
 139 443 l 1
 281 113 l 1
 260 -12 l 1
 240 -12 l 1
EndSplineSet
EndChar

StartChar: b
Encoding: 98 98 18
Width: 523
VWidth: 0
Flags: W
HStem: -12 31<234.484 312.686> 429 33<242.603 319.563> 645 35<0 77.1485>
VStem: 80 85<103.868 331.12 368 643.286> 364 103<104.07 350.166>
AnchorPoint: "trema" 262 530 basechar 0
AnchorPoint: "acute gravis circumflex tilde" 262 530 basechar 0
LayerCount: 5
Fore
SplineSet
155 85 m 1
 105 -12 l 1
 80 -12 l 1
 80 595 l 6
 80 640 75 645 30 645 c 6
 0 645 l 5
 0 680 l 5
 165 680 l 5
 165 368 l 1
 173 368 l 1
 204 431 253 462 298 462 c 0
 391 462 467 375 467 225 c 0
 467 75 386 -12 290 -12 c 0
 225 -12 190 27 162 85 c 1
 155 85 l 1
364 225 m 0
 364 360 333 429 281 429 c 0
 219 429 170 329 170 225 c 0
 170 79 225 19 278 19 c 0
 325 19 364 90 364 225 c 0
EndSplineSet
Layer: 2
SplineSet
143 267 m 1
 161 399 234 462 298 462 c 0
 391 462 467 375 467 225 c 0
 467 75 386 -12 290 -12 c 0
 208 -12 173 51 141 135 c 1
 143 267 l 1
364 225 m 0
 364 360 333 429 281 429 c 0
 218.7578125 429 170 329 170 225 c 0
 170 79 225 19 278 19 c 0
 325 19 364 90 364 225 c 0
80 595 m 2
 80 640 75 645 30 645 c 2
 0 645 l 1
 0 680 l 1
 165 680 l 1
 165 105 l 1
 105 -12 l 1
 80 -12 l 1
 80 595 l 2
EndSplineSet
EndChar

StartChar: h
Encoding: 104 104 19
Width: 572
VWidth: 0
Flags: W
HStem: 0 35<38 105.149 196.851 254 330 387.149 482.851 540> 418 44<266.295 361.795> 645 35<28 105.149>
VStem: 108 86<36.7143 331.226 428.301 643.286> 390 90<36.7143 386.212>
LayerCount: 5
Back
SplineSet
211 365 m 5
 236 420 277 462 340 462 c 4
 435 462 471 383 471 279 c 6
 471 85 l 6
 471 50 486 35 521 35 c 6
 531 35 l 5
 531 0 l 5
 321 0 l 5
 321 35 l 5
 331 35 l 6
 366 35 381 50 381 85 c 6
 381 275 l 6
 381 382 359 418 311 418 c 4
 233 418 195 266 195 200 c 6
 195 85 l 6
 195 50 210 35 245 35 c 6
 255 35 l 5
 255 0 l 5
 40 0 l 5
 40 35 l 5
 60 35 l 6
 95 35 110 50 110 85 c 6
 110 593 l 6
 110 628 95 643 60 643 c 6
 30 643 l 5
 30 674 l 5
 200 686 l 5
 200 365 l 5
 211 365 l 5
EndSplineSet
Fore
SplineSet
202 364 m 1
 228 419 272 462 340 462 c 0
 435 462 480 383 480 279 c 2
 480 85 l 2
 480 40 485 35 530 35 c 2
 540 35 l 1
 540 0 l 1
 330 0 l 1
 330 35 l 1
 340 35 l 2
 385 35 390 40 390 85 c 2
 390 275 l 2
 390 382 360 418 312 418 c 0
 234 418 194 296 194 236 c 2
 194 85 l 6
 194 40 199 35 244 35 c 6
 254 35 l 5
 254 0 l 5
 38 0 l 5
 38 35 l 5
 58 35 l 6
 103 35 108 40 108 85 c 6
 108 595 l 2
 108 640 103 645 58 645 c 2
 28 645 l 1
 28 680 l 1
 198 680 l 1
 198 680 190 480 190 390 c 2
 190 364 l 1
 202 364 l 1
EndSplineSet
Layer: 2
SplineSet
480 85 m 2
 480 40 485 35 530 35 c 2
 540 35 l 1
 540 0 l 1
 330 0 l 1
 330 35 l 1
 340 35 l 2
 385 35 390 40 390 85 c 2
 390 275 l 2
 390 382 360 418 312 418 c 3
 234 418 194 296 194 236 c 1
 174 236 l 1
 174 334 224 462 341 462 c 3
 436 462 480 383 480 279 c 2
 480 85 l 2
194 85 m 2
 194 40 199 35 244 35 c 2
 254 35 l 1
 254 0 l 1
 38 0 l 1
 38 35 l 1
 58 35 l 2
 103 35 108 40 108 85 c 2
 108 595 l 2
 108 640 103 645 58 645 c 2
 28 645 l 1
 28 680 l 1
 198 680 l 1
 198 680 190 504 190 394 c 2
 190 266 l 1
 194 246 l 1
 194 85 l 2
EndSplineSet
Layer: 3
SplineSet
481 85 m 6
 481 40 486 35 531 35 c 6
 541 35 l 5
 541 0 l 5
 331 0 l 5
 331 35 l 5
 341 35 l 6
 386 35 391 40 391 85 c 6
 391 275 l 6
 391 382 361 418 313 418 c 7
 235 418 195 296 195 236 c 5
 175 236 l 5
 175 334 225 462 342 462 c 7
 437 462 481 383 481 279 c 6
 481 85 l 6
245 35 m 2
 255 35 l 1
 255 0 l 1
 40 0 l 1
 40 35 l 1
 60 35 l 2
 105 35 110 40 110 85 c 2
 110 593 l 2
 110 638 105 643 60 643 c 2
 30 643 l 1
 30 674 l 1
 200 686 l 1
 200 686 195 523 195 390 c 2
 195 85 l 2
 195 40 200 35 245 35 c 2
EndSplineSet
EndChar

StartChar: q
Encoding: 113 113 20
Width: 533
VWidth: 0
Flags: W
HStem: -230 35<259 356.149 446.851 524> -12 33<204.437 281.397> 431 31<211.314 289.516>
VStem: 57 103<99.8337 345.93> 359 85<-193.286 82 118.88 346.132>
LayerCount: 5
Fore
SplineSet
359 82 m 1
 351 82 l 1
 320 19 271 -12 226 -12 c 0
 133 -12 57 75 57 225 c 0
 57 375 138 462 234 462 c 0
 299 462 334 423 362 365 c 1
 369 365 l 1
 419 462 l 1
 444 462 l 1
 444 -145 l 2
 444 -190 449 -195 494 -195 c 2
 524 -195 l 1
 524 -230 l 1
 259 -230 l 1
 259 -195 l 1
 309 -195 l 2
 354 -195 359 -190 359 -145 c 2
 359 82 l 1
160 225 m 0
 160 90 191 21 243 21 c 0
 305 21 354 121 354 225 c 0
 354 371 299 431 246 431 c 0
 199 431 160 360 160 225 c 0
EndSplineSet
EndChar

StartChar: k
Encoding: 107 107 21
Width: 560
VWidth: 0
Flags: W
HStem: 0 35<38 105.149 196.851 254 314 372.863 481.719 542> 415 35<302 367.915 427.868 514> 645 35<28 105.149>
VStem: 108 90<36.7143 138 198 643.286>
LayerCount: 5
Fore
SplineSet
198 680 m 1
 198 198 l 1
 348 365 l 2
 381 402 377 415 330 415 c 2
 302 415 l 1
 302 450 l 1
 514 450 l 1
 514 415 l 1
 488 415 l 2
 447 415 434 408 402 372 c 2
 336 297 l 1
 466 77 l 2
 488 40 490 35 526 35 c 2
 542 35 l 1
 542 0 l 1
 510 0 l 1
 400 0 l 1
 314 0 l 1
 314 35 l 1
 338 35 l 2
 368 35 386 45 362 85 c 2
 276 230 l 1
 194 138 l 1
 194 85 l 6
 194 40 199 35 244 35 c 6
 254 35 l 5
 254 0 l 5
 38 0 l 5
 38 35 l 5
 58 35 l 6
 103 35 108 40 108 85 c 6
 108 595 l 2
 108 640 103 645 58 645 c 2
 28 645 l 1
 28 680 l 1
 198 680 l 1
EndSplineSet
Layer: 2
SplineSet
108 85 m 2
 108 595 l 2
 108 640 103 645 58 645 c 2
 28 645 l 1
 28 680 l 1
 198 680 l 1
 198 175 l 1
 194 160 l 1
 194 85 l 2
 195 40 199 35 244 35 c 2
 254 35 l 1
 254 0 l 1
 38 0 l 1
 38 35 l 1
 58 35 l 2
 103 35 108 40 108 85 c 2
458 434 m 1
 175 117 l 1
 127 117 l 1
 410 434 l 1
 458 434 l 1
319 327 m 1
 512 0 l 1
 412 0 l 1
 268 244 l 1
 319 327 l 1
514 450 m 1
 514 415 l 1
 302 415 l 1
 302 450 l 1
 514 450 l 1
542 35 m 1
 542 0 l 1
 314 0 l 1
 314 35 l 1
 542 35 l 1
EndSplineSet
EndChar

StartChar: d
Encoding: 100 100 22
Width: 542
VWidth: 0
Flags: W
HStem: -12 33<204.437 281.973> 0 35<447.955 514> 431 31<211.314 289.569> 645 35<279 356.149>
VStem: 57 103<99.8337 345.93> 359 85<118.88 346.132 386 643.286>
LayerCount: 5
Fore
SplineSet
160 225 m 0xbc
 160 90 191 21 243 21 c 0
 305 21 354 121 354 225 c 0
 354 371 299 431 246 431 c 0
 199 431 160 360 160 225 c 0xbc
359 386 m 1
 359 595 l 2
 359 640 354 645 309 645 c 2
 279 645 l 1
 279 680 l 1
 444 680 l 1
 444 89 l 6
 444 44 449 35 494 35 c 6
 514 35 l 5
 514 0 l 5
 364 0 l 5x7c
 364 86 l 1
 353 86 l 1
 322 20 272 -12 226 -12 c 0
 133 -12 57 75 57 225 c 0
 57 375 138 462 234 462 c 0
 291 462 325 432 351 386 c 1
 359 386 l 1
EndSplineSet
Layer: 2
SplineSet
364 0 m 1
 514 0 l 1
 514 35 l 1
 494 35 l 2
 449 35 444 44 444 89 c 2
 444 680 l 1
 279 680 l 1
 279 645 l 1
 309 645 l 2
 354 645 359 640 359 595 c 2
 359 188 l 1
 364 174 l 1
 364 0 l 1
381 183 m 1
 363 51 290 -12 226 -12 c 0
 133 -12 57 75 57 225 c 0
 57 375 138 462 234 462 c 0
 316 462 351 399 383 315 c 1
 381 183 l 1
160 225 m 0
 160 90 191 21 243 21 c 0
 305 21 354 121 354 225 c 0
 354 371 299 431 246 431 c 0
 199 431 160 360 160 225 c 0
EndSplineSet
EndChar

StartChar: f
Encoding: 102 102 23
Width: 375
VWidth: 0
Flags: W
HStem: 0 35<44 121.149 216.851 314> 415 35<40 124 214 323> 681 29<241.446 336.618>
VStem: 124 90<36.7143 415 450 632.475> 345 80<565.022 654.097>
LayerCount: 5
Back
SplineSet
122 85 m 6
 122 415 l 5
 38 415 l 5
 38 450 l 5
 122 450 l 5
 122 545 l 6
 122 643 189 710 268 710 c 4
 331 710 394 667 394 600 c 4
 394 562 373 528 335 528 c 4
 307 528 283 550 283 584 c 4
 283 629 326 627 326 650 c 4
 326 667 303 681 271 681 c 4
 234 681 212 652 212 599 c 6
 212 450 l 5
 309 450 l 5
 309 415 l 5
 212 415 l 5
 212 85 l 6
 212 40 217 35 262 35 c 6
 312 35 l 5
 312 0 l 5
 42 0 l 5
 42 35 l 5
 72 35 l 6
 117 35 122 40 122 85 c 6
EndSplineSet
Fore
SplineSet
425 590 m 0
 425 557 401 527 367 527 c 0
 342 527 315 546 315 578 c 0
 315 612 345 629 345 650 c 0
 345 670 316 681 287 681 c 0
 244 681 214 658 214 594 c 2
 214 450 l 1
 323 450 l 1
 323 415 l 1
 214 415 l 1
 214 85 l 2
 214 40 219 35 264 35 c 2
 314 35 l 1
 314 0 l 1
 44 0 l 1
 44 35 l 1
 74 35 l 2
 119 35 124 40 124 85 c 2
 124 415 l 1
 40 415 l 1
 40 450 l 1
 124 450 l 1
 124 540 l 2
 124 654 201 710 284 710 c 0
 364 710 425 654 425 590 c 0
EndSplineSet
Substitution2: "'cv00' Character Variants 00 in Latin lookup 2-1" f.short
EndChar

StartChar: z
Encoding: 122 122 24
Width: 468
VWidth: 1000
Flags: W
HStem: 0 33<180.112 331.964> 417 33<149.439 284.736>
VStem: 74 30<290 352.264> 396 30<121.396 190>
LayerCount: 5
Fore
SplineSet
396 190 m 1
 426 190 l 1
 420 0 l 1
 57 0 l 1
 57 20 l 1
 281 388 l 2
 293 408 289 417 262 417 c 2
 194 417 l 2
 136 417 114 358 104 290 c 1
 74 290 l 1
 79 450 l 1
 405 450 l 1
 405 430 l 1
 185 68 l 2
 172 45 186 33 204 33 c 2
 283 33 l 2
 344 33 386 94 396 190 c 1
EndSplineSet
Layer: 2
SplineSet
79 450 m 1
 109 450 l 1
 104 290 l 1
 74 290 l 1
 79 450 l 1
396 190 m 1
 426 190 l 1
 420 0 l 1
 390 0 l 1
 396 190 l 1
56.8408203125 19.8330078125 m 1
 307.354492188 431.340820312 l 1
 405 430 l 1
 151.642578125 12.51953125 l 1
 56.8408203125 19.8330078125 l 1
57 0 m 1
 57 20 l 1
 80 33 l 1
 420 33 l 1
 420 0 l 1
 57 0 l 1
79 417 m 1
 79 450 l 1
 405 450 l 1
 405 430 l 1
 342 417 l 1
 79 417 l 1
EndSplineSet
EndChar

StartChar: j
Encoding: 106 106 25
Width: 320
VWidth: 0
Flags: W
HStem: -228 29<48.4723 131.011> 415 35<74 151.149> 558 116<140.381 231.619>
VStem: -28 68<-180.38 -99> 128 116<570.381 661.619> 154 90<-151.611 413.286>
LayerCount: 5
Fore
SplineSet
244 450 m 1xf4
 244 -63 l 2
 244 -161 177 -228 98 -228 c 0
 35 -228 -28 -185 -28 -118 c 0
 -28 -80 -8 -46 30 -46 c 0
 58 -46 82 -68 82 -102 c 0
 82 -147 40 -145 40 -168 c 0
 40 -185 62 -199 94 -199 c 0
 131 -199 154 -170 154 -117 c 2
 154 365 l 2
 154 410 149 415 104 415 c 2
 74 415 l 1
 74 450 l 1
 244 450 l 1xf4
128 616 m 0xf8
 128 648 154 674 186 674 c 0
 218 674 244 648 244 616 c 0
 244 584 218 558 186 558 c 0
 154 558 128 584 128 616 c 0xf8
EndSplineSet
EndChar

StartChar: y
Encoding: 121 121 26
Width: 508
VWidth: 0
Flags: W
HStem: -225 31<73.653 133.009> 415 35<10 70.7421 174.172 233 313 395.975 444.3 508>
VStem: -19 92<-190.835 -103.792>
AnchorPoint: "trema" 278 530 basechar 0
AnchorPoint: "acute gravis circumflex tilde" 278 530 basechar 0
LayerCount: 5
Fore
SplineSet
33 -72 m 0
 59 -72 86 -94 86 -125 c 0
 86 -145 73 -161 73 -176 c 0
 73 -187 80 -194 94 -194 c 0
 150 -194 176 -127 233 -5 c 2
 240 10 l 1
 85 371 l 2
 68 410 58 415 18 415 c 2
 10 415 l 1
 10 450 l 1
 233 450 l 1
 233 415 l 1
 209 415 l 2
 169 415 167 402 185 359 c 2
 286 121 l 1
 381 344 l 2
 410 412 395 415 355 415 c 2
 313 415 l 1
 313 450 l 1
 508 450 l 1
 508 415 l 1
 499 415 l 2
 452 415 445 407 429 368 c 2
 267 -19 l 2
 211 -149 178 -225 93 -225 c 0
 35 -225 -19 -194 -19 -132 c 0
 -19 -103 -3 -72 33 -72 c 0
EndSplineSet
EndChar

StartChar: w
Encoding: 119 119 27
Width: 687
VWidth: 0
Flags: W
HStem: -12 21G<214.609 249.56 451.646 485.757> 415 35<0 67.2324 167.014 213 257 307.056 405.806 462 508 574.985 623.072 687>
LayerCount: 5
Fore
SplineSet
213 450 m 1
 213 415 l 1
 207 415 l 2
 164 415 159 409 175 366 c 2
 259 136 l 1
 333 330 l 1
 312 386 l 2
 302 413 296 415 266 415 c 2
 257 415 l 1
 257 450 l 1
 462 450 l 1
 462 415 l 1
 453 415 l 2
 404 415 397 409 414 362 c 2
 494 144 l 1
 567 358 l 2
 585 410 574 415 530 415 c 2
 508 415 l 1
 508 450 l 1
 687 450 l 1
 687 415 l 1
 664 415 l 2
 636 415 621 409 604 358 c 2
 479 -12 l 1
 459 -12 l 1
 352 279 l 1
 242 -12 l 1
 222 -12 l 1
 86 356 l 2
 66 411 61 415 6 415 c 2
 0 415 l 1
 0 450 l 1
 213 450 l 1
EndSplineSet
Layer: 2
SplineSet
634 447 m 1
 479 -12 l 1
 453 26 l 1
 593 432 l 1
 634 447 l 1
687 450 m 1
 687 415 l 1
 508 415 l 1
 508 450 l 1
 687 450 l 1
462 450 m 1
 462 415 l 1
 257 415 l 1
 257 450 l 1
 462 450 l 1
459 -12 m 1
 291 444 l 1
 382 448 l 1
 506 110 l 1
 479 -12 l 1
 459 -12 l 1
413 441 m 1
 242 -12 l 1
 217 27 l 1
 371 428 l 1
 413 441 l 1
213 450 m 1
 213 415 l 1
 0 415 l 1
 0 450 l 1
 213 450 l 1
222 -12 m 1
 54 444 l 1
 145 448 l 1
 269 110 l 1
 242 -12 l 1
 222 -12 l 1
EndSplineSet
EndChar

StartChar: x
Encoding: 120 120 28
Width: 536
VWidth: 0
Flags: W
HStem: 0 35<10 99.0552 152.522 209 304 338.167 450.34 526> 415 35<23 104.02 218.054 250 316 370.609 425.21 515>
LayerCount: 5
Fore
SplineSet
250 450 m 1
 250 415 l 1
 245 415 l 2
 216 415 204 412 225 381 c 2
 290 285 l 1
 357 372 l 2
 384 407 375 415 337 415 c 2
 316 415 l 1
 316 450 l 1
 515 450 l 1
 515 415 l 1
 500 415 l 2
 442 415 432 410 402 372 c 2
 311 255 l 1
 434 74 l 2
 458 39 463 35 515 35 c 2
 526 35 l 1
 526 0 l 1
 304 0 l 1
 304 35 l 1
 311 35 l 2
 345 35 349 43 329 72 c 2
 250 187 l 1
 171 85 l 2
 142 47 142 35 178 35 c 2
 209 35 l 1
 209 0 l 1
 10 0 l 1
 10 35 l 1
 18 35 l 2
 85 35 92 39 125 82 c 2
 230 217 l 1
 127 368 l 2
 97 412 93 415 34 415 c 2
 23 415 l 1
 23 450 l 1
 250 450 l 1
EndSplineSet
Layer: 2
SplineSet
209 35 m 1
 209 0 l 1
 10 0 l 1
 10 35 l 1
 209 35 l 1
526 35 m 1
 526 0 l 1
 304 0 l 1
 304 35 l 1
 526 35 l 1
455 441 m 1
 289.875976562 228 l 1
 272.573242188 216 l 1
 109 5 l 1
 73 14 l 1
 250.336914062 244 l 1
 270.672851562 260 l 1
 411 442 l 1
 455 441 l 1
515 450 m 1
 515 415 l 1
 316 415 l 1
 316 450 l 1
 515 450 l 1
250 450 m 1
 250 415 l 1
 23 415 l 1
 23 450 l 1
 250 450 l 1
378 1 m 1
 74 446 l 1
 179 449 l 1
 482 4 l 1
 378 1 l 1
EndSplineSet
EndChar

StartChar: exclam
Encoding: 33 33 57
Width: 332
VWidth: 1000
Flags: W
HStem: -7 124<119.2 212.8> 672 20G<145 187>
VStem: 104 124<8.20026 101.8 473.366 680.177> 148 36<216 420.875>
LayerCount: 5
Fore
SplineSet
104 55 m 0xe0
 104 89 132 117 166 117 c 0
 200 117 228 89 228 55 c 0
 228 21 200 -7 166 -7 c 0
 132 -7 104 21 104 55 c 0xe0
184 216 m 1xd0
 148 216 l 1
 148 378 126 479 105 580 c 0
 102 594 100 607 100 620 c 0
 100 665 124 692 166 692 c 3
 208 692 232 665 232 620 c 0
 232 607 230 594 227 580 c 0
 206 479 184 378 184 216 c 1xd0
EndSplineSet
EndChar

StartChar: numbersign
Encoding: 35 35 59
Width: 443
VWidth: 0
Flags: W
HStem: -12 21G<283 323> 672 20G<120 160>
VStem: 120 40<-45 117.083 244.141 392.947 518.629 692> 283 40<-12 161.113 288.25 436.223 563.943 725>
LayerCount: 5
Fore
SplineSet
60 383 m 1
 60 484 l 1
 120 501 l 1
 120 692 l 1
 160 692 l 1
 160 546 l 2
 160 528 170 514 190 520 c 2
 283 545 l 1
 283 725 l 1
 323 725 l 1
 323 592 l 2
 323 566 336 560 356 566 c 2
 383 573 l 1
 383 472 l 1
 323 455 l 1
 323 322 l 2
 323 292 334 284 358 290 c 2
 383 297 l 1
 383 196 l 1
 323 179 l 1
 323 -12 l 1
 283 -12 l 1
 283 133 l 2
 283 162 267 164 248 159 c 2
 160 135 l 1
 160 -45 l 1
 120 -45 l 1
 120 93 l 2
 120 116 110 121 88 115 c 2
 60 107 l 1
 60 208 l 1
 120 225 l 1
 120 368 l 2
 120 397 104 395 89 391 c 2
 60 383 l 1
160 411 m 1
 160 275 l 2
 160 258 170 238 194 245 c 2
 283 269 l 1
 283 411 l 2
 283 437 260 438 252 436 c 2
 160 411 l 1
EndSplineSet
Validated: 33
Layer: 2
SplineSet
323 -12 m 5
 283 -12 l 5
 283 725 l 5
 323 725 l 5
 323 -12 l 5
60 107 m 13
 60 208 l 21
 383 297 l 13
 383 196 l 21
 60 107 l 13
160 -45 m 5
 120 -45 l 5
 120 692 l 5
 160 692 l 5
 160 -45 l 5
60 383 m 13
 60 484 l 21
 383 573 l 13
 383 472 l 21
 60 383 l 13
EndSplineSet
EndChar

StartChar: dollar
Encoding: 36 36 60
Width: 358
VWidth: 0
Flags: W
VStem: 60 44<503.28 720> 60 34<225.311 386> 254 44<-57 148.191> 264 34<265 425.909>
LayerCount: 5
Fore
SplineSet
60 720 m 1x80
 104 720 l 1
 104 535 l 2
 104 501 125 501 140 505 c 2
 298 549 l 1x90
 298 -57 l 1
 254 -57 l 1
 254 123 l 2
 254 143 243 153 220 146 c 2
 60 102 l 1x60
 60 720 l 1x80
94 386 m 1x50
 94 247 l 2
 94 232 106 221 124 226 c 2
 264 265 l 1
 264 402 l 2
 264 422 250 430 232 425 c 2
 94 386 l 1x50
EndSplineSet
Validated: 33
Layer: 2
SplineSet
298 168 m 5
 60 102 l 5
 60 208 l 5
 298 274 l 5
 298 168 l 5
298 -57 m 5
 254 -57 l 5
 254 212 l 5
 264 236 l 5
 264 478 l 5
 298 478 l 5
 298 -57 l 5
60 483 m 5
 298 549 l 5
 298 443 l 5
 60 377 l 5
 60 483 l 5
60 720 m 5
 104 720 l 5
 104 462 l 5
 94 438 l 5
 94 174 l 5
 60 174 l 5
 60 720 l 5
EndSplineSet
EndChar

StartChar: percent
Encoding: 37 37 61
Width: 796
VWidth: 0
Flags: W
HStem: -12 26<566.142 619.858> 0 21G<137.192 203.564> 317 26<566.142 619.858> 338 26<176.142 229.858> 660 20G<592.218 658.59> 667 26<176.142 229.858>
VStem: 60 87<421.592 610.113> 259 87<421.592 610.113> 450 87<71.5921 260.113> 649 87<71.5921 260.113>
LayerCount: 5
Fore
SplineSet
537 166 m 3xa3c0
 537 54 559.400390625 14 593 14 c 3
 626.599609375 14 649 54 649 166 c 3
 649 278 626.599609375 317 593 317 c 3
 559.400390625 317 537 278 537 166 c 3xa3c0
450 166 m 3
 450 261 512 343 593 343 c 3
 674 343 736 261 736 166 c 3
 736 71 674 -12 593 -12 c 3
 512 -12 450 71 450 166 c 3
147 516 m 3
 147 404 169.400390625 364 203 364 c 3
 236.599609375 364 259 404 259 516 c 3
 259 628 236.599609375 667 203 667 c 3x17c0
 169.400390625 667 147 628 147 516 c 3
60 516 m 3
 60 611 122 693 203 693 c 3
 284 693 346 611 346 516 c 3
 346 421 284 338 203 338 c 3
 122 338 60 421 60 516 c 3
658.58984375 680 m 1x4bc0
 189.775390625 0 l 1
 137.192382812 0 l 1
 606.006835938 680 l 1
 658.58984375 680 l 1x4bc0
EndSplineSet
Validated: 1
Layer: 2
SplineSet
523 166 m 7
 523 54 551 14 593 14 c 7
 635 14 663 54 663 166 c 7
 663 278 635 317 593 317 c 7
 551 317 523 278 523 166 c 7
EndSplineSet
EndChar

StartChar: ampersand
Encoding: 38 38 62
Width: 1024
VWidth: 0
Flags: HM
LayerCount: 5
Layer: 2
SplineSet
119 166 m 7
 119 54 147 14 189 14 c 7
 231 14 259 54 259 166 c 7
 259 278 231 317 189 317 c 7
 147 317 119 278 119 166 c 7
46 166 m 7
 46 261 108 343 189 343 c 7
 270 343 332 261 332 166 c 7
 332 71 270 -12 189 -12 c 7
 108 -12 46 71 46 166 c 7
EndSplineSet
EndChar

StartChar: quotesingle
Encoding: 39 39 63
Width: 210
VWidth: 1000
Flags: W
HStem: 387 305<93 117>
VStem: 60 90<465.275 686.044>
LayerCount: 5
Back
SplineSet
123 216 m 5xd0
 87 216 l 5
 87 378 61 458 45 560 c 4
 43 574 41 587 41 600 c 4
 41 654 63 692 105 692 c 7
 147 692 169 654 169 600 c 4
 169 587 167 574 165 560 c 4
 149 458 123 378 123 216 c 5xd0
EndSplineSet
Fore
SplineSet
117 387 m 1
 93 387 l 1
 89 417 l 2
 79 491 60 597 60 642 c 3
 60 667 75 692 105 692 c 3
 135 692 150 667 150 642 c 3
 150 597 131 491 121 417 c 2
 117 387 l 1
EndSplineSet
Validated: 1
EndChar

StartChar: asterisk
Encoding: 42 42 64
Width: 568
VWidth: 0
Flags: W
VStem: 177 208<433.344 525.943>
LayerCount: 5
Fore
SplineSet
300 753 m 2
 329 669 l 2
 342 627 345 624 388 624 c 2
 479 624 l 2
 500 624 508 619 508 613 c 0
 508 608 502 600 489 590 c 2
 422 537 l 2
 395 518 385 510 385 497 c 0
 385 491 388 483 393 470 c 2
 418 392 l 2
 424 378 426 364 426 358 c 0
 426 350 425 347 420 347 c 0
 414 347 402 354 386 365 c 2
 319 417 l 2
 306 427 297 432 286 432 c 0
 275 432 264 427 250 417 c 2
 172 358 l 2
 159 350 151 345 145 345 c 0
 140 345 137 349 137 357 c 0
 137 362 139 369 142 379 c 2
 172 473 l 2
 175 483 177 490 177 496 c 0
 177 509 172 517 156 528 c 2
 76 590 l 2
 66 598 60 607 60 613 c 0
 60 619 68 624 89 624 c 2
 175 624 l 2
 215 624 222 629 233 659 c 2
 265 750 l 2
 271 769 276 779 282 779 c 0
 288 779 294 771 300 753 c 2
EndSplineSet
Validated: 1
EndChar

StartChar: plus
Encoding: 43 43 65
Width: 576
VWidth: 0
Flags: W
HStem: 225 50<40 263 313 536>
VStem: 263 50<2 225 275 498>
LayerCount: 5
Fore
SplineSet
313 275 m 1
 536 275 l 1
 536 225 l 1
 313 225 l 1
 313 2 l 1
 263 2 l 1
 263 225 l 1
 40 225 l 1
 40 275 l 1
 263 275 l 1
 263 498 l 1
 313 498 l 1
 313 275 l 1
EndSplineSet
Validated: 1
Layer: 2
SplineSet
263 2 m 1
 263 498 l 1
 313 498 l 1
 313 2 l 1
 263 2 l 1
40 275 m 5
 536 275 l 5
 536 225 l 5
 40 225 l 5
 40 275 l 5
EndSplineSet
EndChar

StartChar: comma
Encoding: 44 44 66
Width: 335
VWidth: 0
Flags: W
HStem: -168 29<76.0226 110.512> 37 142<109.875 208.854>
VStem: 213 47<-52.8659 91>
LayerCount: 5
Back
SplineSet
164 6 m 7
 130 6 100 35 100 69 c 4
 100 103 130 133 164 133 c 4
 222 133 260 77 260 0 c 7
 260 -96 184.728515625 -172.512695312 98.40625 -188.296875 c 5
 90 -159 l 5
 165.681640625 -140.841796875 214 -81 214 -34 c 7
 214 -8 198 6 164 6 c 7
EndSplineSet
Fore
SplineSet
162 37 m 0
 119 37 90 72 90 108 c 0
 90 144 119 179 161 179 c 0
 222 179 260 136 260 46 c 3
 260 -90 164 -152 78 -168 c 1
 70 -139 l 1
 146 -121 213 -65 213 -5 c 3
 213 28 197 37 162 37 c 0
EndSplineSet
Layer: 2
SplineSet
90 108 m 0
 90 147 122 179 161 179 c 0
 200 179 232 147 232 108 c 0
 232 69 200 37 161 37 c 0
 122 37 90 69 90 108 c 0
EndSplineSet
EndChar

StartChar: hyphen
Encoding: 45 45 67
Width: 456
VWidth: 0
Flags: W
HStem: 214 75<80 376>
VStem: 80 296<214 289>
LayerCount: 5
Fore
SplineSet
80 289 m 1
 376 289 l 1
 376 214 l 5
 80 214 l 5
 80 289 l 1
EndSplineSet
EndChar

StartChar: slash
Encoding: 47 47 68
Width: 354
VWidth: 0
Flags: W
LayerCount: 5
Fore
SplineSet
327 754 m 1
 374 754 l 5
 27 -123 l 1
 -20 -123 l 1
 327 754 l 1
EndSplineSet
Validated: 1
EndChar

StartChar: zero
Encoding: 48 48 69
Width: 587
Flags: W
HStem: -12 29<247.132 340.797> 663 29<247.132 340.797>
VStem: 50 116<192.671 493.406> 421 116<192.671 493.406>
LayerCount: 5
Fore
SplineSet
50 342 m 0
 50 537 150 692 294 692 c 0
 438 692 537 537 537 342 c 0
 537 147 438 -12 294 -12 c 0
 150 -12 50 147 50 342 c 0
294 663 m 3
 205 663 166 557 166 367 c 2
 166 312 l 2
 166 122 205 17 294 17 c 3
 383 17 421 122 421 312 c 2
 421 367 l 2
 421 557 383 663 294 663 c 3
EndSplineSet
Validated: 1
EndChar

StartChar: one
Encoding: 49 49 70
Width: 450
VWidth: 0
Flags: W
HStem: 0 35<105 197.238 307.762 400> 660 20G<203.391 300>
VStem: 205 95<40.0216 546.746>
LayerCount: 5
Fore
SplineSet
218 680 m 1
 300 680 l 1
 300 85 l 6
 300 50 315 35 350 35 c 6
 400 35 l 5
 400 0 l 5
 105 0 l 5
 105 35 l 5
 155 35 l 6
 190 35 205 50 205 85 c 6
 205 533 l 2
 205 547 191 559 176 540 c 2
 77 428 l 1
 50 450 l 1
 218 680 l 1
EndSplineSet
Validated: 1
Layer: 2
SplineSet
205.278320312 533 m 5
 205.278320312 547 191.278320312 559 176.278320312 540 c 6
 77.2783203125 428 l 5
 50.2783203125 450 l 5
 218.278320312 680 l 5
 255.278320312 661 230.278320312 521 230.278320312 521 c 5
 230.278320312 521 215.278320312 529 205.278320312 533 c 5
218.278320312 680 m 5
 300.278320312 680 l 5
 300.278320312 85 l 6
 300.278320312 50 315.278320312 35 350.278320312 35 c 6
 400.278320312 35 l 5
 400.278320312 0 l 5
 105.278320312 0 l 5
 105.278320312 35 l 5
 155.278320312 35 l 6
 190.278320312 35 205.278320312 50 205.278320312 85 c 6
 205.278320312 611 l 5
 218.278320312 680 l 5
EndSplineSet
EndChar

StartChar: two
Encoding: 50 50 71
Width: 573
Flags: W
HStem: -12 98<334.871 441.894> 0 21G<60 102> 409 151<132.42 209.5> 658 34<200.445 338.859>
VStem: 60 33<0 34.0635> 71 160<439.461 537.75> 390 114<422.458 590.26> 480 33<130.082 197>
LayerCount: 5
Fore
SplineSet
155 560 m 0x7a
 199 560 231 526 231 484 c 0
 231 440 199 409 155 409 c 0
 113 409 71 444 71 504 c 0
 71 596 162 692 287 692 c 0
 401 692 504 618 504 508 c 0x76
 504 408 421 334 337 287 c 0
 290.438163803 261.211906106 244.389464787 234.910675031 204.000003432 197.068948604 c 0
 182.904387841 177.304027577 196.434436932 165.019443488 232 158.815347783 c 0
 294 148 339.946441364 86 401 86 c 0
 443 86 475 123 480 197 c 1
 513 197 l 1
 513 126 491 -12 372 -12 c 0xb1
 275 -12 254 77 181 77 c 0
 145 77 111 56 93 0 c 1
 60 0 l 1
 67 104 158 208 234 265 c 0
 365 363 390 423 390 522 c 0
 390 623 336 658 276 658 c 0
 225 658 175 635 144 600 c 0
 122 575 129 560 155 560 c 0x7a
EndSplineSet
Layer: 2
SplineSet
155 560 m 4
 199 560 231 526 231 484 c 4
 231 440 199 409 155 409 c 4
 113 409 71 444 71 504 c 0
 71 596 162 692 287 692 c 0x3c
 401 692 504 618 504 508 c 0
 504 408 421 334 337 287 c 0
 236 231 138 173 93 0 c 9
 60 0 l 17
 67 104 158 208 234 265 c 0
 365 363 390 423 390 522 c 0
 390 623 336 658 276 658 c 0
 203 658 133 611 116 549 c 1
 125 554 135 560 155 560 c 4
93 0 m 1
 60 0 l 1
 89 97 139 160 217 160 c 0x7a
 285 160 335 86 401 86 c 0
 443 86 475 123 480 197 c 1
 513 197 l 17
 513 126 491 -12 372 -12 c 0xba
 275 -12 254 77 181 77 c 0x7a
 145 77 111 56 93 0 c 1
EndSplineSet
EndChar

StartChar: three
Encoding: 51 51 72
Width: 583
Flags: W
HStem: -12 36<182.126 335.477> 353 29<215 309.391> 447 140<159.572 212.92> 659 33<205.324 340.786>
VStem: 50 165<126.705 228.635> 87 145<467.8 565.324> 391 103<452.576 602.831> 406 117<96.6866 262.342>
LayerCount: 5
Fore
SplineSet
344 364 m 1xf6
 448 346 523 271 523 184 c 0
 523 87 449 -12 275 -12 c 0
 152 -12 50 71 50 159 c 0
 50 229 96 260 137 260 c 0
 181 260 215 225 215 182 c 0
 215 143 190 114 155 107 c 0
 125 101 124 80 139 68 c 0
 167 45 208 24 261 24 c 0
 360 24 406 91 406 192 c 0
 406 278 368 353 215 353 c 1
 215 382 l 1xf9
 360 382 391 446 391 520 c 0
 391 598 368 659 272 659 c 0
 236 659 197 645 169 621 c 0
 149 603 159 590 175 587 c 0
 208 580 232 551 232 517 c 0
 232 476 201 447 161 447 c 0
 120 447 87 476 87 525 c 0
 87 613 182 692 285 692 c 0
 400 692 494 626 494 527 c 0
 494 448 429 386 344 373 c 1
 344 364 l 1xf6
EndSplineSet
Validated: 33
Layer: 2
SplineSet
161 588 m 0
 201 588 232 556 232 517 c 0
 232 476 201 447 161 447 c 0
 120 447 87 476 87 525 c 3
 87 613 182 692 285 692 c 3
 400 692 494 626 494 527 c 0
 494 404 355 353 215 353 c 1
 215 382 l 1
 360 382 391 446 391 520 c 3
 391 598 368 659 272 659 c 3
 221 659 166 632 140 585 c 1
 150 588 156 588 161 588 c 0
137 105 m 0
 124 105 112 108 100 113 c 1
 115 85 170 24 261 24 c 3
 360 24 406 91 406 192 c 3
 406 278 368 353 215 353 c 1xf4
 215 382 l 1
 397 382 523 307 523 184 c 0
 523 87 449 -12 275 -12 c 3
 152 -12 50 71 50 159 c 0
 50 229 96 260 137 260 c 0
 181 260 215 225 215 182 c 0
 215 137 181 105 137 105 c 0
137 105 m 4
 92 105 59 137 59 182 c 4
 59 225 92 260 137 260 c 4
 181 260 215 225 215 182 c 4
 215 137 181 105 137 105 c 4
161 447 m 0
 120 447 90 476 90 517 c 0
 90 556 120 588 161 588 c 0
 201 588 232 556 232 517 c 0
 232 476 201 447 161 447 c 0
EndSplineSet
EndChar

StartChar: six
Encoding: 54 54 73
Width: 581
Flags: W
HStem: -12 32<250.078 351.706> 391 35<244.878 354.476> 660 32<268.18 360.626>
VStem: 60 105<179.11 322.59 347 473.469> 344 142<523.319 634.949> 412 109<116.429 317.964>
LayerCount: 5
Fore
SplineSet
326 660 m 3xf8
 214 660 165 525 165 406 c 2
 165 347 l 17
 192 385 249 426 322 426 c 3
 419 426 521 355 521 219 c 3xf4
 521 78 413 -12 306 -12 c 3
 154 -12 60 130 60 336 c 3
 60 530 174 692 326 692 c 3
 419 692 486 639 486 575 c 0
 486 535 456 504 415 504 c 0
 374 504 344 534 344 575 c 0
 344 589 347 601 354 612 c 0
 371 641 364 660 326 660 c 3xf8
304 391 m 3
 257 391 165 343 165 255 c 2
 165 206 l 2
 165 122 217 20 303 20 c 3
 380 20 412 100 412 215 c 3
 412 330 368 391 304 391 c 3
EndSplineSet
Validated: 33
Layer: 2
SplineSet
394 644 m 5
 381 652 355 660 326 660 c 7
 214 660 165 525 165 406 c 6
 165 347 l 21
 192 385 249 426 322 426 c 7
 419 426 521 355 521 219 c 7
 521 78 413 -12 306 -12 c 7
 154 -12 60 130 60 336 c 7
 60 530 174 692 326 692 c 7
 419 692 486 639 486 575 c 4
 486 535 456 504 415 504 c 4
 374 504 344 534 344 575 c 4xe4
 344 607 363 634 394 644 c 5
304 391 m 7
 257 391 165 343 165 255 c 6
 165 206 l 6
 165 122 217 20 303 20 c 7
 380 20 412 100 412 215 c 7
 412 330 368 391 304 391 c 7
344 575 m 0xe4
 344 616 374 646 415 646 c 0
 456 646 486 616 486 575 c 0
 486 534 456 504 415 504 c 0
 374 504 344 534 344 575 c 0xe4
EndSplineSet
EndChar

StartChar: seven
Encoding: 55 55 74
Width: 519
Flags: W
HStem: -1 21G<141 295> 462 21G<50 88.2148> 514 104<301.394 418.723> 584 96<125.77 229.351> 672 20G<50 85 448 489>
VStem: 50 35<462 544.73 640.416 692> 453 36<650.416 692>
LayerCount: 5
Fore
SplineSet
390 522.717773438 m 0xee
 375.333007812 516.466796875 359.416015625 514 342 514 c 0xee
 279 514 227 584 159 584 c 0xd6
 110 584 91.4296875 541.723632812 85 462 c 1
 50 462 l 1
 50 692 l 1
 85 692 l 1xce
 85 654 l 2
 85 629 94.83203125 625.940429688 113 646.240234375 c 0
 132.450195312 667.971679688 156.944335938 680 188 680 c 0xd6
 267 680 304 618 378 618 c 0
 428 618 443 644 453 692 c 1
 489 692 l 1
 489 388 295 266 295 -1 c 1
 141 -1 l 1
 185.99609375 204.583984375 348.954101562 319.2890625 419.765625 507 c 0
 427.770507812 528.21875 416.197265625 533.8828125 390 522.717773438 c 0xee
EndSplineSet
Validated: 33
Layer: 2
SplineSet
85 462 m 13x98
 50 462 l 21
 50 692 l 13
 85 692 l 21
 85 462 l 13x98
453 692 m 5
 489 692 l 5
 452.463867188 549.418945312 408 514 342 514 c 4xd8
 279 514 227 584 159 584 c 4
 110 584 91.4296875 541.723632812 85 462 c 5
 50 462 l 21
 68 592 104 680 188 680 c 4xa8
 267 680 304 618 378 618 c 4xc8
 428 618 443 644 453 692 c 5
453 692 m 13
 489 692 l 21
 489 388 295 266 295 -1 c 5
 141 -1 l 5
 199 264 453 378 453 692 c 13
EndSplineSet
EndChar

StartChar: less
Encoding: 60 60 77
Width: 1504
VWidth: -9
Flags: W
HStem: 244 44<370.022 1404>
LayerCount: 5
Fore
Refer: 180 62 N -1 0 0 -1 1504 533 2
Validated: 1
Layer: 2
SplineSet
41 412 m 1
 53 450 l 1
 551 450 l 1
 539 412 l 1
 597 412 99 412 41 412 c 1
181 358 m 2
 269 628 387 787 567 787 c 0
 651 787 707 730 707 674 c 0
 707 622 675 594 635 594 c 0
 595 594 564 622 564 662 c 0
 564 706 590 712 590 735 c 0
 590 746 581 754 565 754 c 0
 485 754 434 628 401 527 c 2
 292 192 l 2
 208 -67 76 -237 -114 -237 c 0
 -204 -237 -255 -179 -255 -119 c 0
 -255 -63 -222 -25 -176 -25 c 0
 -135 -25 -101 -55 -101 -97 c 0
 -101 -98 l 0
 -101 -140 -131 -159 -131 -179 c 0
 -131 -196 -119 -201 -107 -201 c 0
 -38 -201 22 -130 72 23 c 2
 181 358 l 2
EndSplineSet
EndChar

StartChar: question
Encoding: 63 63 78
Width: 418
VWidth: 1000
Flags: W
HStem: -7 124<147.2 240.8> 664 28<126.79 241.648>
VStem: 20 73<534 620.837> 132 124<8.20026 101.8> 282 106<462.401 620.826>
LayerCount: 5
Fore
SplineSet
282 556 m 3
 282 398 157 354 171 216 c 1
 207 216 l 1
 193 380 388 383 388 546 c 3
 388 638 310 692 204 692 c 3
 101 692 20 630 20 557 c 3
 20 511 46 476 88 476 c 3
 119 476 148 500 148 537 c 3
 148 583 93 588 93 611 c 3
 93 634 126 664 191 664 c 3
 235 664 282 641 282 556 c 3
132 55 m 0
 132 89 160 117 194 117 c 0
 228 117 256 89 256 55 c 0
 256 21 228 -7 194 -7 c 0
 160 -7 132 21 132 55 c 0
EndSplineSet
Layer: 2
SplineSet
262 556 m 7
 262 641 232 664 188 664 c 7
 132 664 108 632 108 616 c 7
 108 593 163 588 163 542 c 7
 163 505 134 481 103 481 c 7
 61 481 35 516 35 562 c 7
 35 628 105 692 201 692 c 7
 299 692 368 631 368 546 c 7
 368 393 192 388 207 216 c 5
 171 216 l 5
 156 363 262 398 262 556 c 7
132 55 m 4
 132 89 160 117 194 117 c 4
 228 117 256 89 256 55 c 4
 256 21 228 -7 194 -7 c 4
 160 -7 132 21 132 55 c 4
EndSplineSet
EndChar

StartChar: at
Encoding: 64 64 79
Width: 397
VWidth: 1000
Flags: W
HStem: 334 44<140.634 250>
VStem: 60 70<366.915 702> 60 40<60.3763 322.863> 230 107<177.936 317.581>
LayerCount: 5
Fore
SplineSet
60 702 m 1xd0
 130 702 l 1
 130 383 l 2xd0
 130 375 141 365 150 367 c 0
 173 374 196 378 215 378 c 0
 285 378 337 330 337 258 c 0
 337 141 212 76 132 21 c 2
 74 -18 l 2
 64 -25 60 -22 60 -9 c 2xb0
 60 702 l 1xd0
100 312 m 1xb0
 100 77 l 2
 100 66 117 56 127 62 c 0
 220 114 230 173 230 250 c 0
 230 308 202 334 166 334 c 0
 143 334 121 325 100 312 c 1xb0
EndSplineSet
Validated: 1
Layer: 2
SplineSet
337 258 m 4
 337 141 212 76 132 21 c 6
 60 -28 l 5
 60 333 l 21
 112 356 171 378 215 378 c 4
 285 378 337 330 337 258 c 4
100 312 m 5
 100 45 l 5
 209 110 230 166 230 250 c 4
 230 308 202 334 166 334 c 4
 143 334 121 325 100 312 c 5
60 702 m 5
 130 702 l 5
 130 349 l 5
 60 306 l 5
 60 702 l 5
EndSplineSet
EndChar

StartChar: A
Encoding: 65 65 80
Width: 682
VWidth: 0
Flags: W
HStem: 0 35<-10 84.3998 143.458 240 404 488.345 611.251 692> 216 36<210 432> 672 20G<332.215 383.167>
AnchorPoint: "trema" 360 750 basechar 0
AnchorPoint: "acute gravis circumflex tilde" 360 720 basechar 0
LayerCount: 5
Back
SplineSet
-130 0 m 1
 -170 0 l 1
 -170 924 l 1
 -130 924 l 1
 -130 0 l 1
EndSplineSet
Fore
SplineSet
376 692 m 1025,0,-1
240 35 m 1,1,-1
 240 0 l 1,2,-1
 -10 0 l 1,3,-1
 -10 35 l 1,4,-1
 22 35 l 2,5,-1
 70 35 85 37 108 96 c 2,8,-1
 340 692 l 1,9,-1
 352 692 364 692 376 692 c 1,12,-1
 586 106 l 2,13,-1
 611 37 620 35 668 35 c 2,16,-1
 692 35 l 1,17,-1
 692 0 l 1,18,-1
 404 0 l 1,19,-1
 404 35 l 1,20,-1
 436 35 l 2,21,-1
 484 35 505 44 482 110 c 2,24,-1
 444 216 l 1,25,-1
 196 216 l 1,26,-1
 152 101 l 2,27,-1
 129 40 147 35 200 35 c 2,30,-1
 240 35 l 1,1,-1
210 252 m 1,31,-1
 432 252 l 1,32,-1
 326 556 l 1,33,-1
 210 252 l 1,31,-1
EndSplineSet
Layer: 2
SplineSet
692 35 m 1
 692 0 l 1
 404 0 l 1
 404 35 l 1
 692 35 l 1
240 35 m 1
 240 0 l 1
 -10 0 l 1
 -10 35 l 1
 240 35 l 1
512 19 m 1
 322 568 l 1
 337 680 l 1
 376 692 l 1
 617 17 l 1
 512 19 l 1
182 216 m 1
 182 252 l 1
 474 252 l 1
 474 216 l 1
 182 216 l 1
119 14 m 1
 74 9 l 1
 340 692 l 1
 376 692 l 1
 348.840820312 618 l 1
 119 14 l 1
EndSplineSet
Substitution2: "'ss01' Stilgruppe 1 in Latin lookup 2-1" A.alt
EndChar

StartChar: B
Encoding: 66 66 81
Width: 633
VWidth: 0
Flags: W
HStem: 0 35<39 126.149 238.116 398.158> 347 37<224 380.856> 645 35<39 126.149 236.854 375.946>
VStem: 129 95<47.6143 347 384 633.559> 436 106<436.164 596.159> 476 110<102.722 272.746>
LayerCount: 5
Fore
SplineSet
434 362 m 1xf8
 526 342 586 276 586 190 c 0xf4
 586 65 482 0 320 0 c 2
 320 0 133 0 39 0 c 1
 39 35 l 1
 79 35 l 2
 124 35 129 40 129 85 c 2
 129 595 l 2
 129 640 124 645 79 645 c 2
 39 645 l 1
 39 680 l 1
 310 680 l 2
 462 680 542 619 542 514 c 0
 542 451 509 397 434 375 c 1
 434 362 l 1xf8
300 384 m 2
 380 384 436 419 436 514 c 0xf8
 436 609 380 644 300 644 c 2
 293 644 l 2
 272 644 224 636 224 604 c 2
 224 384 l 1
 300 384 l 2
298 36 m 2
 310 36 l 2
 410 36 476 80 476 190 c 0xf4
 476 300 410 347 310 347 c 2
 310 347 253 347 224 347 c 1
 224 76 l 2
 224 44 277 36 298 36 c 2
EndSplineSet
Layer: 2
SplineSet
320 0 m 2
 300 0 l 1
 300 36 l 1
 310 36 l 2
 410 36 476 80 476 190 c 3
 476 300 410 347 310 347 c 2
 300 347 l 1
 300 384 l 1
 320 384 l 2
 482 384 586 315 586 190 c 3
 586 65 482 0 320 0 c 2
39 680 m 1
 310 680 l 2
 462 680 542 619 542 514 c 3
 542 409 462 347 310 347 c 2
 224 347 l 1
 224 76 l 2
 224 44 277 36 298 36 c 2
 320 36 l 1
 320 0 l 1
 39 0 l 1
 39 35 l 1
 79 35 l 2
 124 35 129 40 129 85 c 2
 129 595 l 2
 129 640 124 645 79 645 c 2
 39 645 l 1
 39 680 l 1
224 384 m 1
 300 384 l 2
 380 384 436 419 436 514 c 3
 436 609 380 644 300 644 c 2
 293 644 l 2
 272 644 224 636 224 604 c 2
 224 384 l 1
EndSplineSet
Substitution2: "'ss01' Stilgruppe 1 in Latin lookup 2-1" B.alt
EndChar

StartChar: C
Encoding: 67 67 82
Width: 593
VWidth: 0
Flags: W
HStem: -12 42<250.233 412.126> 656 36<256.144 396.963>
VStem: 38 117<193.233 486.048> 508 40<436 514.438> 518 37<150.995 209.162>
AnchorPoint: "trema" 321 750 basechar 0
AnchorPoint: "acute gravis circumflex tilde" 321 730 basechar 0
AnchorPoint: "cedilla" 298 0 basechar 0
LayerCount: 5
Back
SplineSet
558 214 m 5xe8
 540 62 438 -12 323 -12 c 4
 163 -12 40 121 40 340 c 4
 40 535 146 692 323 692 c 4
 376 692 404 678 431 664 c 4
 475 641 487 644 507 678 c 6
 515 692 l 5
 550 692 l 4
 550 436 l 4
 510 436 l 5xf0
 483 609 401 656 323 656 c 4
 235 656 172 590 172 340 c 4
 172 90 241 30 328 30 c 4
 428 30 503 102 520 214 c 5
 558 214 l 5xe8
EndSplineSet
Fore
SplineSet
555 208 m 1xe8
 535 63 436 -12 321 -12 c 0
 161 -12 38 121 38 340 c 0
 38 535 144 692 321 692 c 0
 374 692 402 678 429 664 c 0
 473 641 485 644 505 678 c 2
 513 692 l 1
 548 692 l 0
 548 436 l 0
 508 436 l 1xf0
 481 609 399 656 321 656 c 0
 233 656 155 590 155 340 c 0
 155 90 239 30 326 30 c 0
 426 30 501 102 518 214 c 1
 555 208 l 1xe8
EndSplineSet
Substitution2: "'ss01' Stilgruppe 1 in Latin lookup 2-1" C.alt
EndChar

StartChar: D
Encoding: 68 68 83
Width: 655
VWidth: 0
Flags: W
HStem: 0 35<38 125.149 235.854 384.006> 645 35<38 125.149 236.071 384.006>
VStem: 128 95<46.4414 633.224> 503 115<201.554 478.446>
LayerCount: 5
Fore
SplineSet
38 680 m 1
 309 680 l 2
 524 680 618 520 618 340 c 3
 618 160 524 0 309 0 c 2
 38 0 l 1
 38 35 l 1
 78 35 l 2
 123 35 128 40 128 85 c 2
 128 595 l 2
 128 640 123 645 78 645 c 2
 38 645 l 1
 38 680 l 1
299 36 m 2
 439 36 503 120 503 340 c 3
 503 560 439 644 299 644 c 2
 292 644 l 2
 272 644 223 636 223 604 c 2
 223 76 l 2
 223 44 271 36 292 36 c 2
 299 36 l 2
EndSplineSet
Substitution2: "'ss01' Stilgruppe 1 in Latin lookup 2-1" D.alt
EndChar

StartChar: F
Encoding: 70 70 84
Width: 595
VWidth: 0
Flags: W
HStem: 0 35<38 125.149 225.851 333> 326 36<223 333.937> 449 21G<523.5 567> 644 36<38 125.467 234.704 438.264>
VStem: 128 95<36.7143 326 362 633.224> 385 35<180 256.835 427.407 507> 537 30<449 504.176>
LayerCount: 5
Fore
SplineSet
351 644 m 2
 288 644 l 2
 258 644 223 628 223 604 c 2
 223 362 l 1
 286 362 l 2
 346 362 377 417 385 507 c 1
 420 507 l 1
 420 180 l 1
 385 180 l 1
 377 270 342 326 286 326 c 2
 223 326 l 1
 223 85 l 2
 223 40 228 35 273 35 c 2
 333 35 l 1
 333 0 l 1
 38 0 l 1
 38 35 l 1
 78 35 l 2
 123 35 128 40 128 85 c 2
 128 595 l 2
 128 640 123 645 78 645 c 2
 38 645 l 1
 38 680 l 1
 562 680 l 1
 567 449 l 1
 537 449 l 1
 510 576 471 644 351 644 c 2
EndSplineSet
Substitution2: "'ss01' Stilgruppe 1 in Latin lookup 2-1" F.alt
EndChar

StartChar: G
Encoding: 71 71 85
Width: 669
VWidth: 0
Flags: W
HStem: -12 39<257.407 395.56> 322 36<371 458.149 558.851 646> 656 36<255.642 396.963>
VStem: 38 117<194.376 486.048> 461 95<92.6494 320.286> 508 40<436 514.438>
LayerCount: 5
Fore
SplineSet
556 272 m 2xf8
 556 -12 l 1xf8
 526 -12 l 1
 518 7 l 2
 490 74 479 63 446 37 c 0
 407 4 361 -12 312 -12 c 0
 144 -12 38 146 38 340 c 0
 38 535 142 692 321 692 c 0
 374 692 402 679 429 664 c 0
 473 641 478 639 505 677 c 2
 513 692 l 1
 548 692 l 1
 548 436 l 1
 508 436 l 1xf4
 481 609 399 656 321 656 c 0
 232 656 155 590 155 340 c 0
 155 90 236 27 331 27 c 0
 391 27 461 73 461 187 c 2
 461 272 l 2
 461 317 456 322 411 322 c 2
 371 322 l 1
 371 358 l 1
 646 358 l 1
 646 322 l 1
 606 322 l 2
 561 322 556 317 556 272 c 2xf8
EndSplineSet
Substitution2: "'ss01' Stilgruppe 1 in Latin lookup 2-1" G.alt
EndChar

StartChar: H
Encoding: 72 72 86
Width: 714
VWidth: 0
Flags: W
HStem: 0 35<33 120.149 220.851 308 406 493.149 593.851 681> 325 36<218 496> 645 35<33 120.149 220.851 308 406 493.149 593.851 681>
VStem: 123 95<36.7143 325 361 643.286> 496 95<36.7143 325 361 643.286>
LayerCount: 5
Fore
SplineSet
591 595 m 6
 591 85 l 6
 591 40 596 35 641 35 c 6
 681 35 l 5
 681 0 l 5
 406 0 l 5
 406 35 l 5
 446 35 l 6
 491 35 496 40 496 85 c 6
 496 325 l 5
 218 325 l 5
 218 85 l 6
 218 40 223 35 268 35 c 6
 308 35 l 5
 308 0 l 5
 33 0 l 5
 33 35 l 5
 73 35 l 6
 118 35 123 40 123 85 c 6
 123 595 l 6
 123 640 118 645 73 645 c 6
 33 645 l 5
 33 680 l 5
 308 680 l 5
 308 645 l 5
 268 645 l 6
 223 645 218 640 218 595 c 6
 218 361 l 5
 496 361 l 5
 496 595 l 6
 496 640 491 645 446 645 c 6
 406 645 l 5
 406 680 l 5
 681 680 l 5
 681 645 l 5
 641 645 l 6
 596 645 591 640 591 595 c 6
EndSplineSet
Layer: 2
SplineSet
174 325 m 1
 174 361 l 1
 508 361 l 1
 508 325 l 1
 174 325 l 1
496 595 m 2
 496 640 491 645 446 645 c 2
 406 645 l 1
 406 680 l 1
 681 680 l 1
 681 645 l 1
 641 645 l 2
 596 645 591 640 591 595 c 2
 591 85 l 2
 591 40 596 35 641 35 c 2
 681 35 l 1
 681 0 l 1
 406 0 l 1
 406 35 l 1
 446 35 l 2
 491 35 496 40 496 85 c 2
 496 595 l 2
218 85 m 2
 218 40 223 35 268 35 c 2
 308 35 l 1
 308 0 l 1
 33 0 l 1
 33 35 l 1
 73 35 l 2
 118 35 123 40 123 85 c 2
 123 595 l 2
 123 640 118 645 73 645 c 2
 33 645 l 1
 33 680 l 1
 308 680 l 1
 308 645 l 1
 268 645 l 2
 223 645 218 640 218 595 c 2
 218 85 l 2
EndSplineSet
Substitution2: "'ss01' Stilgruppe 1 in Latin lookup 2-1" H.alt
EndChar

StartChar: I
Encoding: 73 73 87
Width: 388
VWidth: 0
Flags: W
HStem: 0 35<57 144.149 246.375 332> 645 35<57 144.149 244.851 332>
VStem: 147 95<38.1941 643.286>
LayerCount: 5
Fore
SplineSet
242 595 m 2
 242 85 l 2
 242 49 247 35 292 35 c 2
 332 35 l 1
 332 0 l 1
 57 0 l 1
 57 35 l 1
 97 35 l 2
 142 35 147 40 147 85 c 2
 147 595 l 2
 147 640 142 645 97 645 c 2
 57 645 l 1
 57 680 l 1
 332 680 l 1
 332 645 l 1
 292 645 l 2
 247 645 242 640 242 595 c 2
EndSplineSet
Substitution2: "'ss01' Stilgruppe 1 in Latin lookup 2-1" I.alt
EndChar

StartChar: J
Encoding: 74 74 88
Width: 445
VWidth: 0
Flags: W
HStem: -78 31<114.512 212.78> 645 35<151 238.149 339.851 427>
VStem: 19 77<-8.62226 73> 241 96<8.48576 643.286>
LayerCount: 5
Back
SplineSet
351 595 m 6
 351 104 l 6
 351 6 278 -78 169 -78 c 7
 100 -78 18 -15 18 52 c 7
 18 94 42 126 80 126 c 7
 108 126 134 104 134 70 c 7
 134 28 95 21 95 -2 c 7
 95 -18 116 -47 166 -47 c 7
 210 -47 240 -18 240 50 c 6
 240 595 l 6
 240 640 235 645 190 645 c 6
 150 645 l 5
 150 680 l 5
 441 680 l 5
 441 645 l 5
 401 645 l 6
 356 645 351 640 351 595 c 6
EndSplineSet
Fore
SplineSet
337 595 m 2
 337 104 l 2
 337 6 279 -78 170 -78 c 3
 101 -78 19 -15 19 52 c 3
 19 94 43 126 81 126 c 3
 109 126 135 104 135 70 c 3
 135 28 96 21 96 -2 c 3
 96 -18 117 -47 167 -47 c 3
 211 -47 241 -18 241 50 c 2
 241 595 l 2
 241 640 236 645 191 645 c 2
 151 645 l 1
 151 680 l 1
 427 680 l 1
 427 645 l 1
 387 645 l 2
 342 645 337 640 337 595 c 2
EndSplineSet
Substitution2: "'ss01' Stilgruppe 1 in Latin lookup 2-1" J.alt
EndChar

StartChar: K
Encoding: 75 75 89
Width: 707
VWidth: 0
Flags: W
HStem: 0 35<38 125.149 226.599 313 416 480.334 618.622 707> 645 35<38 125.149 225.851 313 405 495.983 591.186 680>
VStem: 128 95<36.7143 236 297 643.286>
LayerCount: 5
Fore
SplineSet
224 85 m 2
 224 40 228 35 273 35 c 2
 313 35 l 1
 313 0 l 1
 38 0 l 1
 38 35 l 1
 78 35 l 2
 123 35 128 40 128 85 c 2
 128 595 l 2
 128 640 123 645 78 645 c 2
 38 645 l 1
 38 680 l 1
 313 680 l 1
 313 645 l 1
 273 645 l 2
 228 645 223 640 223 595 c 2
 223 297 l 1
 460 566 l 2
 508 620 517 645 437 645 c 2
 405 645 l 1
 405 680 l 1
 680 680 l 1
 680 645 l 1
 658 645 l 2
 626 645 567 626 528 581 c 2
 366 397 l 1
 577 104 l 2
 621 42 626 37 682 37 c 2
 707 37 l 1
 707 0 l 1
 416 0 l 1
 416 37 l 1
 439 37 l 2
 484 37 492 49 465 88 c 2
 299 322 l 1
 223 236 l 1
 224 85 l 2
EndSplineSet
Layer: 2
SplineSet
128 595 m 1050
224 85 m 2,0,1
 224 40 228 35 273 35 c 2,2,-1
 313 35 l 1,3,-1
 313 0 l 1,4,-1
 38 0 l 1,5,-1
 38 35 l 1,6,-1
 78 35 l 2,7,8
 123 35 128 40 128 85 c 2,9,-1
 128 595 l 2,10,11
 128 640 123 645 78 645 c 2,12,-1
 38 645 l 1,13,-1
 38 680 l 1,14,-1
 313 680 l 1,15,-1
 313 645 l 1,16,-1
 273 645 l 2,17,18
 228 645 223 640 223 595 c 2,19,-1
 224 85 l 2,0,1
163 229 m 1,20,-1
 558 677 l 1,21,-1
 590 651 l 1,22,-1
 181 188 l 1,23,-1
 163 229 l 1,20,-1
707 37 m 1,24,-1
 707 0 l 1,25,-1
 416 0 l 1,26,-1
 416 37 l 1,27,-1
 707 37 l 1,24,-1
352 417 m 1,28,-1
 633 26 l 1,29,-1
 511 23 l 1,30,-1
 282 347 l 1,31,-1
 352 417 l 1,28,-1
405 645 m 1,32,-1
 405 680 l 1,33,-1
 680 680 l 1,34,-1
 680 645 l 1,35,-1
 405 645 l 1,32,-1
EndSplineSet
Substitution2: "'ss01' Stilgruppe 1 in Latin lookup 2-1" K.alt
EndChar

StartChar: L
Encoding: 76 76 90
Width: 575
VWidth: 0
Flags: W
HStem: 0 35<38 125.149 236.999 400.282> 645 35<38 125.149 225.851 313>
VStem: 128 95<46.7763 643.286> 517 30<198.136 270>
LayerCount: 5
Fore
SplineSet
38 0 m 1
 38 35 l 1
 78 35 l 2
 123 35 128 40 128 85 c 2
 128 595 l 2
 128 640 123 645 78 645 c 2
 38 645 l 1
 38 680 l 1
 313 680 l 1
 313 645 l 1
 273 645 l 2
 228 645 223 640 223 595 c 2
 223 84 l 2
 223 53 254 36 282 36 c 2
 311 36 l 2
 477 36 495 149 517 270 c 1
 547 270 l 1
 542 0 l 1
 38 0 l 1
EndSplineSet
Substitution2: "'ss01' Stilgruppe 1 in Latin lookup 2-1" L.alt
EndChar

StartChar: M
Encoding: 77 77 91
Width: 779
VWidth: 0
Flags: W
HStem: 0 35<28 125.149 172.851 270 476 563.149 663.851 751> 645 35<28 116.887 663.851 751>
VStem: 128 42<36.9652 581.939> 566 95<36.7143 530.008>
LayerCount: 5
Fore
SplineSet
170 85 m 2
 170 40 175 35 220 35 c 2
 270 35 l 1
 270 0 l 1
 28 0 l 1
 28 35 l 1
 78 35 l 2
 123 35 128 40 128 85 c 2
 128 568 l 2
 128 639 110 645 54 645 c 2
 28 645 l 1
 28 680 l 1
 267 680 l 1
 403 246 l 1
 554 680 l 1
 751 680 l 5
 751 645 l 5
 711 645 l 6
 666 645 661 640 661 595 c 6
 661 85 l 6
 661 40 666 35 711 35 c 6
 751 35 l 5
 751 0 l 5
 476 0 l 5
 476 35 l 5
 516 35 l 6
 561 35 566 40 566 85 c 6
 566 528 l 2
 566 538 553 556 544 530 c 2
 488 368 l 2
 439 226 384 36 378 15 c 1
 357 15 l 1
 350 45 299 246 255 389 c 2
 206 550 l 2
 188 607 170 598 170 549 c 2
 170 85 l 2
EndSplineSet
Layer: 2
SplineSet
566 85 m 2
 566 40 561 35 516 35 c 2
 476 35 l 1
 476 0 l 1
 751 0 l 1
 751 35 l 1
 711 35 l 2
 666 35 661 40 661 85 c 2
 661 595 l 2
 661 640 666 645 711 645 c 2
 751 645 l 1
 751 680 l 1
 566 680 l 1
 566 85 l 2
170 85 m 2
 170 40 175 35 220 35 c 2
 270 35 l 1
 270 0 l 1
 28 0 l 1
 28 35 l 1
 78 35 l 2
 123 35 128 40 128 85 c 2
 128 568 l 2
 128 639 110 645 54 645 c 2
 28 645 l 1
 28 680 l 1
 267 680 l 1
 267 680 218 637 170 645 c 1
 170 85 l 2
555 680 m 1
 597.18359375 679.943359375 l 1
 358.795898438 -0.791015625 l 1
 320.432617188 9.05078125 l 1
 555 680 l 1
267 680 m 1
 439.12109375 131.918945312 l 1
 425.3515625 -4.3349609375 l 1
 382.377929688 -2.833984375 l 1
 169.66015625 667.998046875 l 1
 267 680 l 1
EndSplineSet
Layer: 3
SplineSet
272 662 m 5
 439 132 l 5
 408 -12 l 5
 385 -12 l 5
 170 668 l 5
 272 662 l 5
EndSplineSet
Substitution2: "'ss01' Stilgruppe 1 in Latin lookup 2-1" M.alt
EndChar

StartChar: N
Encoding: 78 78 92
Width: 716
VWidth: 0
Flags: W
HStem: -12 21G<557.501 597.033> 0 35<36 133.149 178.851 276> 645 35<36 117.678 456 554.644 600.851 698>
VStem: 136 40<37.2378 533.396> 558 39<178 642.149>
AnchorPoint: "acute gravis circumflex tilde" 362 730 basechar 0
LayerCount: 5
Fore
SplineSet
598 595 m 6x78
 597 -12 l 5
 571 -12 l 1xb8
 218 511 l 2
 189 555 176 535 176 498 c 2
 176 85 l 2
 176 40 181 35 226 35 c 2
 276 35 l 1
 276 0 l 1
 36 0 l 1
 36 35 l 1
 86 35 l 2
 131 35 136 40 136 85 c 2
 136 568 l 2
 136 629 109 645 61 645 c 2
 36 645 l 1
 36 680 l 1
 219 680 l 1
 558 178 l 1
 558 595 l 2
 558 640 551 645 506 645 c 2
 456 645 l 1
 456 680 l 1
 698 680 l 5
 698 645 l 5
 648 645 l 6
 603 645 598 640 598 595 c 6x78
EndSplineSet
Layer: 2
SplineSet
571 -12 m 1
 120 657 l 1
 158 664 184 670 219 680 c 1
 567 165 l 1
 571 -12 l 1
219 680 m 1
 219 645 l 1
 36 645 l 1
 36 680 l 1
 219 680 l 1
456 645 m 1
 456 680 l 1
 698 680 l 1
 698 645 l 1
 456 645 l 1
558 662 m 1
 598 671 l 1
 597 -12 l 1
 573 -12 l 1
 558 119 l 1
 558 662 l 1
277 35 m 1
 277 0 l 1
 36 0 l 1
 36 35 l 1
 277 35 l 1
177 18 m 1
 136 9 l 1
 136 652 l 1
 177 654 l 1
 177 18 l 1
EndSplineSet
Layer: 3
SplineSet
246.000976562 640.32421875 m 5
 556.65234375 179.579101562 l 5
 567.827148438 32.703125 l 5
 545.7734375 26.171875 l 5
 146.49609375 617.10546875 l 5
 246.000976562 640.32421875 l 5
EndSplineSet
Substitution2: "'ss01' Stilgruppe 1 in Latin lookup 2-1" N.alt
EndChar

StartChar: O
Encoding: 79 79 93
Width: 640
VWidth: 0
Flags: W
HStem: -12 32<257.127 384.773> 660 32<257.127 384.773>
VStem: 38 117<193.889 486.326> 486 117<193.889 486.326>
AnchorPoint: "trema" 321 750 basechar 0
AnchorPoint: "acute gravis circumflex tilde" 321 730 basechar 0
LayerCount: 5
Back
SplineSet
172 340 m 4
 172 90 233 20 323 20 c 4
 413 20 473 90 473 340 c 4
 473 590 413 660 323 660 c 4
 233 660 172 590 172 340 c 4
40 340 m 4
 40 535 143 692 323 692 c 4
 503 692 605 535 605 340 c 4
 605 146 503 -12 323 -12 c 4
 143 -12 40 146 40 340 c 4
EndSplineSet
Fore
SplineSet
155 340 m 4
 155 90 231 20 321 20 c 4
 411 20 486 90 486 340 c 4
 486 590 411 660 321 660 c 4
 231 660 155 590 155 340 c 4
38 340 m 4
 38 535 141 692 321 692 c 4
 501 692 603 535 603 340 c 4
 603 146 501 -12 321 -12 c 4
 141 -12 38 146 38 340 c 4
EndSplineSet
Substitution2: "'ss01' Stilgruppe 1 in Latin lookup 2-1" O.alt
EndChar

StartChar: P
Encoding: 80 80 94
Width: 582
VWidth: 0
Flags: W
HStem: 0 35<38 125.149 225.851 333> 327 37<223 369.981> 645 35<38 125.149 235.854 369.981>
VStem: 128 95<36.7143 327 364 633.559> 430 115<418.267 589.627>
LayerCount: 5
Fore
SplineSet
223 85 m 2
 223 40 228 35 273 35 c 2
 333 35 l 1
 333 0 l 1
 38 0 l 1
 38 35 l 1
 78 35 l 2
 123 35 128 40 128 85 c 2
 128 595 l 2
 128 640 123 645 78 645 c 2
 38 645 l 1
 38 680 l 1
 309 680 l 2
 464 680 545 614 545 504 c 3
 545 394 464 327 309 327 c 2
 223 327 l 1
 223 85 l 2
223 364 m 1
 299 364 l 2
 374 364 430 404 430 504 c 3
 430 604 374 644 299 644 c 2
 292 644 l 2
 271 644 223 636 223 604 c 2
 223 364 l 1
EndSplineSet
Substitution2: "'ss01' Stilgruppe 1 in Latin lookup 2-1" P.alt
EndChar

StartChar: Q
Encoding: 81 81 95
Width: 640
VWidth: 0
Flags: W
HStem: -12 32<321 384.75> 660 32<257.127 384.773>
VStem: 38 117<194.611 486.326> 486 117<193.889 486.326>
LayerCount: 5
Fore
SplineSet
73 -125 m 1
 52 -115 l 1
 85 -51 121 12 181 27 c 1
 89 86 38 204 38 340 c 0
 38 535 141 692 321 692 c 0
 501 692 603 535 603 340 c 0
 603 146 501 -12 321 -12 c 1
 422 -101 489 -154 579 -22 c 1
 598 -35 l 1
 513 -249 375 -196 270 -87 c 0
 202 -17 137 -12 73 -125 c 1
155 340 m 0
 155 90 231 20 321 20 c 0
 411 20 486 90 486 340 c 0
 486 590 411 660 321 660 c 0
 231 660 155 590 155 340 c 0
EndSplineSet
Layer: 2
SplineSet
157 340 m 4
 157 90 233 20 323 20 c 4
 413 20 488 90 488 340 c 4
 488 590 413 660 323 660 c 4
 233 660 157 590 157 340 c 4
40 340 m 4
 40 535 143 692 323 692 c 4
 503 692 605 535 605 340 c 4
 605 146 503 -12 323 -12 c 4
 143 -12 40 146 40 340 c 4
75 -125 m 5
 54 -115 l 5
 93 -39 137 37 221 30 c 4
 244 28 289 18 323 -12 c 4
 424 -101 491 -154 581 -22 c 5
 600 -35 l 21
 515 -249 377 -196 272 -87 c 4
 204 -17 139 -12 75 -125 c 5
EndSplineSet
Substitution2: "'ss01' Stilgruppe 1 in Latin lookup 2-1" Q.alt
EndChar

StartChar: R
Encoding: 82 82 96
Width: 680
VWidth: 0
Flags: W
HStem: -12 66<510.5 621.193> 0 35<38 125.149 225.851 323> 347 37<223 357.941> 645 35<38 125.149 235.854 376.21>
VStem: 128 95<36.7143 347 384 633.559> 440 105<434.135 594.886> 638 33<76.5317 172>
LayerCount: 5
Fore
SplineSet
223 85 m 6xbe
 223 40 228 35 273 35 c 6
 323 35 l 5
 323 0 l 5
 38 0 l 5
 38 35 l 5
 78 35 l 6x7e
 123 35 128 40 128 85 c 6
 128 595 l 6
 128 640 123 645 78 645 c 6
 38 645 l 5
 38 680 l 5
 309 680 l 2
 464 680 545 619 545 514 c 0
 545 439 501 378 408 366 c 1
 408 354 l 1
 481 334 525 255 534 172 c 0
 539 127 550 54 592 54 c 0
 627 54 638 114 638 172 c 1
 668 172 l 1
 670 158 671 145 671 132 c 0
 671 46 631 -12 555 -12 c 0
 466 -12 431 52 425 176 c 0
 421 262 383 347 303 347 c 2
 223 347 l 1
 223 85 l 6xbe
299 384 m 2
 379 384 440 419 440 514 c 0
 440 609 379 644 299 644 c 2
 292 644 l 2
 271 644 223 636 223 604 c 2
 223 384 l 1
 299 384 l 2
EndSplineSet
Layer: 2
SplineSet
38 680 m 1
 38 645 l 1
 78 645 l 2
 123 645 128 640 128 595 c 2
 128 85 l 2
 128 40 123 35 78 35 c 2
 38 35 l 1
 38 0 l 1
 323 0 l 1
 323 35 l 1
 273 35 l 2
 228 35 223 40 223 85 c 2
 223 348 l 1
 309 348 l 2
 464 348 545 409 545 514 c 3
 545 619 464 680 309 680 c 2
 38 680 l 1
223 384 m 1
 299 384 l 2
 379 384 440 419 440 514 c 3
 440 609 379 644 299 644 c 2
 292 644 l 2
 271 644 223 636 223 604 c 2
 223 384 l 1
299 384 m 17
 435 384 520 302 534 172 c 0
 539 127 549 54 592 54 c 0
 627 54 638 114 638 172 c 1
 668 172 l 1
 682 64 643 -12 556 -12 c 27
 467 -12 431 53 425 177 c 0
 421 263 376 348 303 348 c 1
 299 384 l 17
EndSplineSet
Substitution2: "'ss01' Stilgruppe 1 in Latin lookup 2-1" R.alt
EndChar

StartChar: S
Encoding: 83 83 97
Width: 618
VWidth: 0
Flags: W
HStem: -12 39<231.204 407.633> 656 36<203.429 361.592>
VStem: 57 40<191.338 287> 60 93<505.971 591.724> 477 85<101.742 218.526> 483 40<446 517.51>
LayerCount: 5
Back
SplineSet
318 27 m 4xe8
 432 27 474 90 474 143 c 7xe8
 474 215 426 264 331 296 c 6
 240 327 l 22
 146 360 63 408 63 508 c 7
 63 609 148 692 284 692 c 4
 337 692 380 675 407 660 c 4
 448 638 463 640 483 677 c 6
 491 692 l 5
 526 692 l 4
 526 446 l 4
 486 446 l 5
 459 619 355 656 284 656 c 4
 213 656 165 621 165 572 c 7xd4
 165 510 215 469 281 446 c 6
 353 421 l 6
 474 379 565 317 565 195 c 7
 565 82 466 -12 323 -12 c 4
 270 -12 225 1 177 29 c 4
 137 53 125 44 103 3 c 6
 95 -12 l 5
 60 -12 l 4
 60 287 l 4
 100 287 l 5
 120 94 223 27 318 27 c 4xe8
EndSplineSet
Fore
SplineSet
315 27 m 0xe8
 433 27 477 93 477 146 c 3xe8
 477 222 425 270 330 302 c 2
 238 333 l 18
 144 366 60 417 60 511 c 3
 60 606 145 692 281 692 c 0
 334 692 377 675 404 660 c 0
 445 638 460 640 480 677 c 2
 488 692 l 1
 523 692 l 0
 523 446 l 0
 483 446 l 1
 456 619 352 656 281 656 c 0
 205 656 153 617 153 568 c 3xd4
 153 503 209 464 275 441 c 2
 348 416 l 2
 469 374 562 312 562 189 c 3
 562 76 463 -12 320 -12 c 0
 267 -12 222 1 174 29 c 0
 134 53 122 44 100 3 c 2
 92 -12 l 1
 57 -12 l 0
 57 287 l 0
 97 287 l 1
 117 94 220 27 315 27 c 0xe8
EndSplineSet
Layer: 3
SplineSet
22 527 m 5
 568 343 l 5
 568 223 l 1
 22 407 l 1
 22 527 l 5
EndSplineSet
Substitution2: "'ss01' Stilgruppe 1 in Latin lookup 2-1" S.alt
EndChar

StartChar: T
Encoding: 84 84 98
Width: 629
VWidth: 0
Flags: W
HStem: 0 35<178 260.238 370.762 453> 644 36<152.157 259.836 370.164 477.843>
VStem: 38 30<430 486.756> 268 95<40.0216 638.48> 562 30<430 486.756>
LayerCount: 5
Fore
SplineSet
413 644 m 2
 378 644 363 629 363 594 c 2
 363 85 l 2
 363 50 378 35 413 35 c 2
 453 35 l 1
 453 0 l 1
 178 0 l 1
 178 35 l 1
 218 35 l 2
 253 35 268 50 268 85 c 2
 267 594 l 2
 267 629 252 644 217 644 c 2
 204 644 l 2
 128 644 97 558 68 430 c 1
 38 430 l 1
 44 680 l 1
 586 680 l 1
 592 430 l 1
 562 430 l 1
 533 558 502 644 426 644 c 2
 413 644 l 2
EndSplineSet
Substitution2: "'ss01' Stilgruppe 1 in Latin lookup 2-1" T.alt
EndChar

StartChar: U
Encoding: 85 85 99
Width: 674
VWidth: 0
Flags: W
HStem: -12 43<278.318 432.807> 645 35<19 106.149 216.851 304 415 512.149 558.851 656>
VStem: 109 105<121.345 643.286> 515 40<134.713 642.467>
AnchorPoint: "trema" 357 750 basechar 0
AnchorPoint: "acute gravis circumflex tilde" 357 730 basechar 0
LayerCount: 5
Fore
SplineSet
556 595 m 2
 555 257 l 2
 555 118 516 -12 329 -12 c 3
 189 -12 109 69 109 269 c 2
 109 595 l 2
 109 640 104 645 59 645 c 2
 19 645 l 1
 19 680 l 1
 304 680 l 1
 304 645 l 1
 264 645 l 2
 219 645 214 640 214 595 c 2
 214 288 l 2
 214 128 235 31 351 31 c 3
 487 31 515 154 515 274 c 2
 515 595 l 2
 515 640 510 645 465 645 c 2
 415 645 l 1
 415 680 l 1
 656 680 l 1
 656 645 l 1
 606 645 l 2
 561 645 556 640 556 595 c 2
EndSplineSet
Substitution2: "'ss01' Stilgruppe 1 in Latin lookup 2-1" U.alt
EndChar

StartChar: V
Encoding: 86 86 100
Width: 653
VWidth: 0
Flags: W
HStem: 645 35<-4 52.7491 178.401 226 464 520.978 579.011 640>
AnchorPoint: "trema" 382 750 basechar 0
AnchorPoint: "acute gravis circumflex tilde" 382 720 basechar 0
LayerCount: 5
Fore
SplineSet
286 -12 m 1025,0,-1
342 134 m 1,1,-1
 188 570 l 2,2,-1
 165 636 178 645 226 645 c 2,5,-1
 260 645 l 1,6,-1
 260 680 l 1,7,-1
 -28 680 l 1,8,-1
 -28 645 l 1,9,-1
 -4 645 l 2,10,-1
 44 645 53 643 78 574 c 2,13,-1
 286 -12 l 1,14,-1
 298 -12 312 -12 324 -12 c 1,17,-1
 556 584 l 2,18,-1
 579 643 592 645 640 645 c 2,21,-1
 672 645 l 1,22,-1
 672 680 l 1,23,-1
 422 680 l 1,24,-1
 422 645 l 1,25,-1
 464 645 l 2,26,-1
 517 645 536 641 512 579 c 2,29,-1
 342 134 l 1,1,-1
286 -12 m 1025,30,-1
EndSplineSet
Layer: 2
SplineSet
345 124 m 1
 188 570 l 1026
287 -12 m 1025
338 124 m 1
 181 570 l 2
 157.610351562 635.861328125 178.916992188 645 227 645 c 2
 260 645 l 1
 260 680 l 1
 -28 680 l 1
 -28 645 l 1
 -4 645 l 2
 44.296875 645 53.3310546875 643.166992188 78 574 c 2
 287 -12 l 1
 299 -12 312 -12 324 -12 c 1
 556 584 l 2
 579.079101562 643.290039062 592.614257812 645 641 645 c 2
 673 645 l 1
 673 680 l 1
 423 680 l 1
 423 645 l 1
 464 645 l 2
 517.477539062 645 535.50390625 640.190429688 512 579 c 2
 338 124 l 1
EndSplineSet
Substitution2: "'ss01' Stilgruppe 1 in Latin lookup 2-1" V.alt
EndChar

StartChar: W
Encoding: 87 87 101
Width: 885
VWidth: 0
Flags: W
HStem: -12 20G<260.707 298.991 602 608.244> 645 35<-28 59.4458 175.414 258 326 375.309 486.913 569 641 749.635 812.256 904>
LayerCount: 5
Fore
SplineSet
-28 645 m 1
 -28 680 l 1
 258 680 l 1
 258 645 l 1
 226 645 l 2
 181 645 164 637 179 589 c 2
 310 169 l 1
 422 484 l 1
 380 616 l 2
 372 642 363 645 340 645 c 2
 326 645 l 1
 326 680 l 1
 569 680 l 1
 569 645 l 1
 536 645 l 2
 486 645 477 631 491 588 c 2
 619 183 l 1
 741 572 l 2
 761 637 753 645 694 645 c 2
 641 645 l 1
 641 680 l 1
 904 680 l 1
 904 645 l 1
 863 645 l 2
 824 645 805 637 784 570 c 2
 602 -13 l 1
 602 -12 l 1
 581 -12 l 1
 443 420 l 1
 292 -12 l 1
 267 -12 l 1
 82 576 l 2
 61 643 51 645 2 645 c 2
 -28 645 l 1
EndSplineSet
Layer: 2
SplineSet
641 645 m 1
 641 680 l 1
 904 680 l 1
 904 645 l 1
 641 645 l 1
326 645 m 1
 326 680 l 1
 569 680 l 1
 569 645 l 1
 326 645 l 1
767 659 m 1
 813 668 l 1
 602 -13 l 1
 582 16 l 1
 588.60546875 37.2373046875 580.245046382 58.5819676449 586.907264537 79.9999846224 c 1
 647.764087975 275.645405906 710.529669089 477.399070038 767 659 c 1
467 662 m 1
 633 133 l 1
 602 -12 l 1
 579 -12 l 1
 364 668 l 1
 467 662 l 1
-28 645 m 1
 -28 680 l 1
 258 680 l 1
 258 645 l 1
 -28 645 l 1
485 542 m 1
 291 -12 l 1
 261 26 l 1
 453 574 l 1
 485 542 l 1
155 662 m 1
 322 132 l 1
 291 -12 l 1
 268 -12 l 1
 53 668 l 1
 155 662 l 1
EndSplineSet
Substitution2: "'ss01' Stilgruppe 1 in Latin lookup 2-1" W.alt
EndChar

StartChar: X
Encoding: 88 88 102
Width: 696
VWidth: 0
Flags: W
HStem: 0 35<10 95.7266 164.553 262 390 466.343 596.824 682> 645 35<30 113.779 238.244 312 410 499.75 564.516 658>
LayerCount: 5
Fore
SplineSet
262 35 m 1
 262 0 l 1
 10 0 l 1
 10 35 l 1
 36 35 l 2
 84 35 92 42 128 93 c 2
 300 339 l 1
 138 595 l 2
 111 638 98 645 66 645 c 2
 30 645 l 1
 30 680 l 1
 312 680 l 1
 312 645 l 1
 284 645 l 2
 234 645 224 638 256 587 c 2
 362 417 l 1
 470 571 l 2
 514 633 511 645 456 645 c 2
 410 645 l 1
 410 680 l 1
 658 680 l 1
 658 645 l 1
 622 645 l 2
 582 645 568 640 532 588 c 2
 386 380 l 1
 576 81 l 2
 604 37 611 35 652 35 c 2
 682 35 l 1
 682 0 l 1
 390 0 l 1
 390 35 l 1
 420 35 l 2
 474 35 480 54 446 108 c 2
 324 301 l 1
 190 111 l 2
 143 45 164 35 216 35 c 2
 262 35 l 1
EndSplineSet
Layer: 2
SplineSet
682.21875 35 m 1
 682.21875 0 l 1
 390.21875 0 l 1
 390.21875 35 l 1
 682.21875 35 l 1
312.21875 680 m 1
 312.21875 645 l 1
 30.21875 645 l 1
 30.21875 680 l 1
 312.21875 680 l 1
514.21875 0 m 1
 94.21875 665 l 1
 132.21875 670 165.21875 666 200.21875 675 c 1
 627.21875 0 l 1
 514.21875 0 l 1
658.21875 680 m 1
 658.21875 645 l 1
 410.21875 645 l 1
 410.21875 680 l 1
 658.21875 680 l 1
262.21875 35 m 1
 262.21875 0 l 1
 10.21875 0 l 1
 10.21875 35 l 1
 262.21875 35 l 1
119.21875 9 m 1
 78.21875 22 l 1
 323 371 l 1
 344.326171875 390 l 1
 544.21875 675 l 1
 580.21875 657 l 1
 367.700195312 353 l 1
 347.1171875 335 l 1
 119.21875 9 l 1
EndSplineSet
Substitution2: "'ss01' Stilgruppe 1 in Latin lookup 2-1" X.alt
EndChar

StartChar: Y
Encoding: 89 89 103
Width: 640
VWidth: 0
Flags: W
HStem: 0 35<186 268.238 379.762 462> 645 35<-10 88.2742 205.728 276 424 499.473 550.216 650>
VStem: 276 96<40.0216 295>
AnchorPoint: "trema" 346 750 basechar 0
AnchorPoint: "acute gravis circumflex tilde" 346 730 basechar 0
LayerCount: 5
Back
SplineSet
271 85 m 6
 271 302 l 5
 106 600 l 6
 83.7510817495 640.18289478 76.7044371084 645 36 645 c 6
 -10 645 l 5
 -10 680 l 5
 281 680 l 5
 281 645 l 5
 250 645 l 6
 213.050967025 645 207.500618609 631.183108192 225 600 c 6
 358 363 l 5
 484 590 l 6
 512.893955307 642.054982973 502.976261179 645 457 645 c 6
 424 645 l 5
 424 680 l 5
 649 680 l 5
 649 645 l 5
 599 645 l 6
 557.307921351 645 549.985275113 635.07478686 525 590 c 6
 377 323 l 5
 377 85 l 6
 377 50 392 35 427 35 c 6
 467 35 l 5
 467 0 l 5
 181 0 l 5
 181 35 l 5
 221 35 l 6
 256 35 271 50 271 85 c 6
EndSplineSet
Fore
SplineSet
276 85 m 6
 276 295 l 1
 106 600 l 2
 84 640 77 645 36 645 c 2
 -10 645 l 1
 -10 680 l 1
 276 680 l 1
 276 645 l 1
 240 645 l 2
 203 645 198 632 214 600 c 2
 352 353 l 1
 484 590 l 2
 513 642 504 645 458 645 c 2
 424 645 l 1
 424 680 l 1
 650 680 l 1
 650 645 l 1
 600 645 l 2
 558 645 551 635 526 590 c 2
 372 313 l 1
 372 85 l 6
 372 50 387 35 422 35 c 6
 462 35 l 5
 462 0 l 5
 186 0 l 5
 186 35 l 5
 226 35 l 6
 261 35 276 50 276 85 c 6
EndSplineSet
Layer: 2
SplineSet
372 85 m 2
 372 50 387 35 422 35 c 2
 462 35 l 1
 462 0 l 1
 186 0 l 1
 186 35 l 1
 226 35 l 2
 261 35 276 50 276 85 c 2
 276 351 l 2
 276 380 372 367 372 351 c 2
 372 85 l 2
276 680 m 1
 276 645 l 1
 -10 645 l 1
 -10 680 l 1
 276 680 l 1
446 -14 m 1
 67 672 l 1
 105 675 135 669 170 676 c 1
 564 -21 l 1
 446 -14 l 1
650 680 m 1
 650 645 l 1
 424 645 l 1
 424 680 l 1
 650 680 l 1
186 -22 m 1
 150 -12 l 1
 522.008608321 658 l 1
 537.930533952 661.408538263 553.431457686 665.238078421 569 669 c 1
 186 -22 l 1
EndSplineSet
Layer: 3
SplineSet
509.590820312 175.469726562 m 6
 535.754882812 190.150390625 l 5
 552.880859375 159.629882812 l 5
 330.504882812 34.8359375 l 5
 313.375976562 65.357421875 l 5
 339.5390625 80.0419921875 l 6
 378.782226562 102.063476562 380.694335938 108.869140625 358.673828125 148.114257812 c 6
 109.086914062 592.865234375 l 6
 87.0654296875 632.11328125 80.2578125 634.025390625 41.0146484375 612.002929688 c 6
 14.8525390625 597.319335938 l 5
 -2.2744140625 627.841796875 l 5
 150.3359375 713.486328125 l 5
 441.518554688 194.603515625 l 6
 463.541015625 155.360351562 470.348632812 153.446289062 509.590820312 175.469726562 c 6
EndSplineSet
Substitution2: "'ss01' Stilgruppe 1 in Latin lookup 2-1" Y.alt
EndChar

StartChar: Z
Encoding: 90 90 104
Width: 609
VWidth: 0
Flags: W
HStem: 0 36<196.494 412.203> 644 36<218.597 404.408>
VStem: 82 30<442 490.014> 542 30<203.634 253>
LayerCount: 5
Fore
SplineSet
564 0 m 1
 63 0 l 1
 63 20 l 1
 400 610 l 2
 415 638 392 644 373 644 c 2
 310 644 l 2
 183 644 147 579 112 442 c 1
 82 442 l 1
 91 680 l 1
 537 680 l 1
 537 660 l 1
 202 70 l 2
 189 47 193 36 216 36 c 2
 330 36 l 6
 456 36 513 132 542 253 c 5
 572 253 l 1
 564 0 l 1
EndSplineSet
Layer: 2
SplineSet
542 253 m 1
 572 253 l 1
 564 0 l 1
 64 0 l 1
 64 20 l 25
 89 36 l 1
 330 36 l 2
 456 36 513 132 542 253 c 1
112 442 m 1
 82 442 l 1
 91 680 l 1
 537 680 l 1
 537 660 l 25
 513 644 l 1
 310 644 l 2
 183 644 147 579 112 442 c 1
64 20 m 1
 435 671 l 1
 537 660 l 1
 174 21 l 1
 64 20 l 1
EndSplineSet
Substitution2: "'ss01' Stilgruppe 1 in Latin lookup 2-1" Z.alt
EndChar

StartChar: bracketleft
Encoding: 91 91 105
Width: 288
VWidth: 0
Flags: W
HStem: -179 35<117.164 253> 705 35<117.164 253>
VStem: 40 70<-139.231 700.231>
LayerCount: 5
Fore
SplineSet
110 656 m 2
 110 -95 l 2
 110 -130 125 -144 160 -144 c 2
 253 -144 l 1
 253 -179 l 1
 40 -179 l 1
 40 740 l 1
 253 740 l 1
 253 705 l 1
 160 705 l 2
 125 705 110 691 110 656 c 2
EndSplineSet
Validated: 1
EndChar

StartChar: backslash
Encoding: 92 92 106
Width: 354
VWidth: 0
Flags: W
LayerCount: 5
Fore
SplineSet
27 754 m 1
 374 -123 l 1
 327 -123 l 1
 -20 754 l 1
 27 754 l 1
EndSplineSet
Validated: 1
EndChar

StartChar: asciicircum
Encoding: 94 94 108
Width: 307
VWidth: 0
Flags: W
HStem: 523 179
VStem: 0 307
AnchorPoint: "acute gravis circumflex tilde" 154 530 mark 0
LayerCount: 5
Fore
SplineSet
123 702 m 1
 184 702 l 1
 208 655 267 582 307 545 c 1
 299 523 l 1
 264 544 200 589 154 628 c 1
 107 589 43 544 8 523 c 1
 0 545 l 1
 40 582 99 655 123 702 c 1
EndSplineSet
Validated: 1
Layer: 2
SplineSet
184 702 m 5
 208 655 267 582 307 545 c 13
 299 523 l 5
 253 551 155 621 115 664 c 5
 123 702 l 5
 184 702 l 5
123 702 m 5
 184 702 l 5
 192 664 l 5
 152 621 54 551 8 523 c 5
 0 545 l 21
 40 582 99 655 123 702 c 5
EndSplineSet
EndChar

StartChar: underscore
Encoding: 95 95 109
Width: 1222
VWidth: 0
Flags: W
HStem: 16 80<800 1096>
VStem: 800 296<16 96>
LayerCount: 5
Fore
SplineSet
800 96 m 1
 1096 96 l 1
 1096 16 l 1
 800 16 l 1
 800 96 l 1
EndSplineSet
Validated: 1
EndChar

StartChar: asciitilde
Encoding: 126 126 110
Width: 321
VWidth: 0
Flags: W
HStem: 546 58<191.018 271.637> 608 58<49.3631 129.982>
VStem: 0 321
AnchorPoint: "acute gravis circumflex tilde" 160 530 mark 0
LayerCount: 5
Fore
SplineSet
78 608 m 3
 52 608 34 585 22 560 c 9
 0 568 l 17
 16 610 51 666 101 666 c 3
 151 666 206 604 243 604 c 3
 269 604 287 627 299 652 c 9
 321 644 l 17
 305 602 270 546 220 546 c 3
 170 546 115 608 78 608 c 3
EndSplineSet
Validated: 1
EndChar

StartChar: cent
Encoding: 162 162 111
Width: 1024
VWidth: 0
Flags: HM
LayerCount: 5
Layer: 2
SplineSet
524.967 654.505 m 5
 668 657.5 l 5
 500 142 l 6
 477.167 71.9385 467 36 506 36 c 4
 531 36 589 67 624 171 c 5
 654 171 l 5
 616 50 547 -8 487 -8 c 4
 412 -8 382.976 59.0166 410 142 c 6
 551.5 576.5 l 6
 563.833 614.87 547.294 623.194 517 624.632 c 5
 503.081 625.293 524.967 654.505 524.967 654.505 c 5
76 418 m 5
 86 450 l 5
 205 450 l 5
 254 580 329.5 713 467 713 c 4
 542 713 590 667 590 617 c 4
 590 576 562 552 533 552 c 4
 503 552 479 575 479 605 c 4
 479 640 510 649 510 666 c 4
 510 677 492.333 682 473 682 c 4
 375 682 334 548 303 450 c 5
 426 450 l 5
 416 418 l 5
 293 418 l 5
 223 202 l 6
 169 37 88 -248 -88 -248 c 4
 -160 -248 -208 -202 -208 -152 c 4
 -208 -103 -179 -80 -146 -80 c 4
 -114 -80 -88 -105 -88 -138 c 4
 -88 -177 -121 -190 -121 -203 c 4
 -121 -212 -113 -217 -94 -217 c 4
 -2 -217 49 -26 81 74 c 6
 193 418 l 5
 76 418 l 5
EndSplineSet
EndChar

StartChar: dieresis
Encoding: 168 168 112
Width: 298
VWidth: 0
Flags: W
HStem: 536 104<9.51529 94.4847 203.515 288.485>
VStem: 0 104<545.515 630.485> 194 104<545.515 630.485>
AnchorPoint: "trema" 149 530 mark 0
LayerCount: 5
Fore
SplineSet
194 588 m 0
 194 617 217 640 246 640 c 0
 275 640 298 617 298 588 c 0
 298 559 275 536 246 536 c 0
 217 536 194 559 194 588 c 0
0 588 m 0
 0 617 23 640 52 640 c 0
 81 640 104 617 104 588 c 0
 104 559 81 536 52 536 c 0
 23 536 0 559 0 588 c 0
EndSplineSet
Validated: 1
EndChar

StartChar: acute
Encoding: 180 180 113
Width: 212
VWidth: 0
Flags: W
HStem: 532 174
VStem: 0 212
AnchorPoint: "acute gravis circumflex tilde" 106 530 mark 0
LayerCount: 5
Fore
SplineSet
94 706 m 1
 205 706 l 1
 212 686 l 1
 170 646 64 564 8 532 c 9
 0 554 l 1
 34 594 76 662 94 706 c 1
EndSplineSet
Validated: 1
EndChar

StartChar: germandbls
Encoding: 223 223 140
Width: 587
VWidth: 0
Flags: W
HStem: -12 31<371.1 418.695> 0 35<46 123.149> 344 29<285 342.124> 667 26<264.47 355.959>
VStem: 126 95<36.7143 598.801> 267 100<19.1953 98.9316> 397 96<432.128 602.454> 443 104<80.3564 262.489>
LayerCount: 5
Fore
SplineSet
387 358 m 1x7e
 479 339 547 272 547 174 c 3
 547 60 462 -12 380 -12 c 0
 319 -12 267 10 267 54 c 0
 267 87 288 107 320 107 c 0
 351 107 366 78 367 57 c 0
 368 42 370 19 389 19 c 0
 426 19 443 65 443 175 c 0xbd
 443 308 389 344 299 344 c 2
 285 344 l 1
 285 373 l 1
 295 373 l 2
 348 373 397 415 397 508 c 0
 397 594 389 667 310 667 c 0
 253 667 221 620 221 552 c 2
 221 0 l 1
 46 0 l 1
 46 35 l 1
 76 35 l 2
 121 35 126 40 126 85 c 2
 126 498 l 2
 126 643 224 693 317 693 c 0
 423 693 493 613 493 512 c 3
 493 439 447 387 387 367 c 1
 387 358 l 1x7e
EndSplineSet
Validated: 1
Layer: 2
SplineSet
126 85 m 2
 126 498 l 2
 126 643 224 693 317 693 c 3
 423 693 493 613 493 512 c 3
 493 425 422 344 309 344 c 2
 285 344 l 1
 285 373 l 1
 295 373 l 2
 348 373 397 415 397 508 c 3
 397 594 389 667 310 667 c 3
 253 667 221 620 221 552 c 2
 221 0 l 1
 46 0 l 1
 46 35 l 1
 76 35 l 2
 111 35 126 50 126 85 c 2
267 54 m 0
 267 87 288 107 320 107 c 0
 351 107 366 78 367 57 c 0
 368 42 370 19 389 19 c 0
 426 19 443 65 443 175 c 7
 443 308 389 344 299 344 c 2
 285 344 l 1
 285 373 l 1
 304 373 l 2
 438 373 547 300 547 174 c 3
 547 60 462 -12 380 -12 c 3
 319 -12 267 10 267 54 c 0
EndSplineSet
EndChar

StartChar: ae
Encoding: 230 230 147
Width: 731
VWidth: 0
Flags: W
HStem: -12 36<164.935 259.158 472.513 587.419> 238 29<214.693 327 418 578.616> 431 31<164.274 276.397 467.58 555.152>
VStem: 40 101<43.245 176.039> 71 81<325.174 410.164> 327 90<87.011 238 267 369.445> 586 103<270.326 362.391> 663 28<113.738 136.56>
LayerCount: 5
Fore
SplineSet
141 118 m 0xf4
 141 56 164 24 212 24 c 0
 259 24 327 76 327 147 c 2
 327 238 l 1
 189 238 141 203 141 118 c 0xf4
586 312 m 0xe6
 586 380 561 436 516 436 c 0
 467 436 426 386 418 267 c 1
 537 267 l 2
 570 267 586 275 586 312 c 0xe6
379 390 m 1
 413 429 458 462 516 462 c 0
 639 462 689 352 689 252 c 2
 689 238 l 1xee
 417 238 l 1
 417 234 417 229 417 225 c 0
 417 75 467 21 530 21 c 0
 580 21 637 64 663 144 c 1
 691 134 l 1
 662 45 592 -12 516 -12 c 0
 437 -12 380 27 345 87 c 1
 310 19 244 -12 176 -12 c 0
 100 -12 40 39 40 107 c 0xf5
 40 222 182 267 327 267 c 1
 327 288 l 2
 327 364 297 431 227 431 c 0
 180 431 152 417 152 394 c 0
 152 379 172 366 172 343 c 0
 172 317 152 296 126 296 c 0
 87 296 71 326 71 357 c 0xec
 71 402 121 462 235 462 c 0
 296 462 346 432 379 390 c 1
EndSplineSet
Validated: 1
Layer: 2
SplineSet
417 238 m 5
 417 234 417 229 417 225 c 4
 417 75 467 21 530 21 c 4
 580 21 637 64 663 144 c 5
 691 134 l 5
 662 45 592 -12 516 -12 c 4
 430.662109375 -12 371.54296875 33.4072265625 337.2109375 101 c 5
 358.982421875 191.787109375 343.099609375 296.958984375 360 368 c 5
 396.87109375 415.801757812 446.9375 462 516 462 c 4
 639 462 689 352 689 252 c 6
 689 238 l 5
 417 238 l 5
586 312 m 7
 586 380 561 436 516 436 c 4
 467 436 426 386 418 267 c 5
 537 267 l 6
 570 267 586 275 586 312 c 7
359 122 m 1
 330 29 255 -12 176 -12 c 0
 100 -12 40 39 40 107 c 0
 40 222.387695312 182 267 327 267 c 1
 327 288 l 2
 327 364 297 431 227 431 c 0
 180 431 152 417 152 394 c 0
 152 379 172 366 172 343 c 0
 172 317 152 296 126 296 c 0
 87 296 71 326 71 357 c 0
 71 402 121 462 235 462 c 0
 343 462 417 368 417 284 c 2
 417 124 l 2
 417 118.004882812 388.846679688 92.783203125 359 122 c 1
141 118 m 0
 141 56 164 24 212 24 c 0
 259 24 327 76 327 147 c 2
 327 238 l 1
 189 238 141 202.689453125 141 118 c 0
EndSplineSet
EndChar

StartChar: igrave
Encoding: 236 236 152
Width: 339
VWidth: 0
Flags: W
HStem: 0 32<40 108.498 233.502 302> 421 29<53 108.557> 532 174
VStem: 35 212 126 90<44.8145 410.508>
LayerCount: 5
Fore
SplineSet
216 76 m 2xe8
 216 44 264 32 285 32 c 2
 302 32 l 1
 302 0 l 1
 40 0 l 1
 40 32 l 1
 57 32 l 2
 78 32 126 44 126 76 c 2
 126 367 l 2
 126 409 93 421 58 421 c 2
 53 421 l 1
 53 450 l 1
 216 450 l 1
 216 76 l 2xe8
EndSplineSet
Refer: 169 96 N 1 0 0 1 35 0 2
Validated: 1
EndChar

StartChar: braceleft
Encoding: 123 123 168
Width: 1024
VWidth: 0
LayerCount: 5
Layer: 2
SplineSet
362 209 m 10xd0
 337 131 l 17
 308 49 348 -43 409 -43 c 0
 436 -43 464 -26 488 6 c 0
 513 39 537 91 563 170 c 0
 620 346 593 409 546 409 c 0
 474 409 393 296 362 209 c 10xd0
352 274 m 1
 395 373 506 464 591 464 c 0
 670 464 739 393 739 278 c 0
 739 173 684 53 602 -18 c 0
 555 -59 494 -83 437 -83 c 0
 369 -83 309 -48 291 39 c 9
 352 274 l 1
210 -259 m 1
 353 -259 l 1
 341 -297 l 1
 -90 -297 l 1
 -79 -259 l 1
 55 -259 l 9
 241 314 l 2
 263 384 258 413 225 413 c 3
 188 413 99 342 53 205 c 9
 19 205 l 17
 64 350 166 464 252 464 c 3xe0
 402 464 391 299 356 189 c 2
 210 -259 l 1
EndSplineSet
EndChar

StartChar: grave
Encoding: 96 96 169
Width: 212
VWidth: 0
Flags: W
HStem: 532 174
VStem: 0 212
AnchorPoint: "acute gravis circumflex tilde" 106 530 mark 0
LayerCount: 5
Fore
SplineSet
118 706 m 1
 136 662 178 594 212 554 c 1
 204 532 l 17
 148 564 42 646 0 686 c 1
 7 706 l 1
 118 706 l 1
EndSplineSet
Validated: 1
EndChar

StartChar: cedilla
Encoding: 184 184 170
Width: 233
VWidth: 0
Flags: W
HStem: -239 27<58.2953 140.877>
VStem: 87 32<-72 12> 161 72<-200.997 -100.138>
AnchorPoint: "cedilla" 103 0 mark 0
LayerCount: 5
Fore
SplineSet
87 -94 m 1
 87 12 l 1
 119 12 l 1
 119 -72 l 1
 196 -58 233 -106 233 -148 c 0
 233 -212 168 -239 110 -239 c 0
 70 -239 24 -218 0 -187 c 1
 19 -166 l 1
 47 -198 79 -212 102 -212 c 3
 137 -212 161 -190 161 -152 c 3
 161 -104 137 -86 95 -102 c 1
 87 -94 l 1
EndSplineSet
Validated: 33
EndChar

StartChar: degree
Encoding: 176 176 173
Width: 216
VWidth: 0
Flags: W
HStem: 530 37<60.2771 156.048> 709 37<59.9517 155.723>
VStem: 0 37<589.952 685.723> 179 37<590.277 686.048>
LayerCount: 5
Fore
SplineSet
37 638 m 0
 37 599 66 567 108 567 c 0
 147 567 179 596 179 638 c 0
 179 677 150 709 108 709 c 0
 69 709 37 680 37 638 c 0
0 638 m 0
 0 700 50 746 108 746 c 0
 170 746 216 696 216 638 c 0
 216 576 166 530 108 530 c 0
 46 530 0 580 0 638 c 0
EndSplineSet
Validated: 1
EndChar

StartChar: AE
Encoding: 198 198 174
Width: 1007
VWidth: 0
Flags: W
HStem: 0 35<40 136.798 211.829 290 430 517.149 637.546 820.282> 217 35<309 520> 327 35<626 714.927> 644 36<395 474.697 637.704 811.025>
VStem: 520 106<44.481 217 252 327 362 579.174> 768 35<175 253.349 431.041 512> 920 30<445 500.104> 937 30<207.066 280>
AnchorPoint: "trema" 339 750 basechar 0
AnchorPoint: "acute gravis circumflex tilde" 339 730 basechar 0
LayerCount: 5
Fore
SplineSet
430 0 m 1xfd
 430 35 l 1
 470 35 l 2
 515 35 520 40 520 85 c 2
 520 217 l 1
 289 217 l 1
 230 114 l 2
 192 47 210 35 268 35 c 2
 290 35 l 1
 290 0 l 1
 40 0 l 1
 40 35 l 1
 50 35 l 2
 130 35 149 52 180 105 c 2
 452 572 l 2
 491 639 480 645 424 645 c 2
 394 645 l 1
 395 680 l 1
 571 680 768 680 945 680 c 1
 950 445 l 1
 920 445 l 1xfe
 893 571 839 644 734 644 c 2
 691 644 l 2
 661 644 626 628 626 604 c 2
 626 362 l 1
 669 362 l 2
 729 362 760 422 768 512 c 1
 803 512 l 1
 803 175 l 1
 768 175 l 1
 760 265 725 327 669 327 c 2
 626 327 l 1
 626 79 l 2
 626 55 651 36 677 36 c 2
 731 36 l 2
 897 36 915 159 937 280 c 1
 967 280 l 1
 962 0 l 1
 430 0 l 1xfd
486 560 m 2
 309 252 l 1
 520 252 l 1
 520 552 l 2
 520 605 512 605 486 560 c 2
EndSplineSet
Validated: 33
Layer: 2
SplineSet
290 32 m 5
 290 0 l 5
 40 0 l 5
 40 32 l 5
 290 32 l 5
252 217 m 5
 280 252 l 5
 544 252 l 5
 544 217 l 5
 252 217 l 5
126.48046875 14 m 5
 509.076171875 670.125976562 l 5
 545.62109375 664.337890625 l 5
 172.123046875 14 l 5
 126.48046875 14 l 5
520 620 m 5
 511 635 432 647 411 647 c 6
 394 647 l 5
 395 680 l 5
 571 680 768 680 945 680 c 5
 950 445 l 5
 920 445 l 5
 893 571 839 644 734 644 c 6
 691 644 l 6
 661 644 626 628 626 604 c 6
 626 362 l 5
 669 362 l 6
 729 362 760 422 768 512 c 5
 803 512 l 5
 803 175 l 5
 768 175 l 5
 760 265 725 327 669 327 c 6
 626 327 l 5
 626 79 l 6
 626 55 651 36 677 36 c 6
 731 36 l 6
 897 36 915 159 937 280 c 5
 967 280 l 5
 962 0 l 5
 434 0 l 5
 434 32 l 5
 451 32 l 6
 472 32 520 44 520 76 c 6
 520 620 l 5
EndSplineSet
EndChar

StartChar: parenleft
Encoding: 40 40 177
Width: 317
VWidth: 0
Flags: W
VStem: 60 96<105.026 414.974>
LayerCount: 5
Fore
SplineSet
60 260 m 3
 60 500 208 672 314 755 c 5
 337 731 l 1
 240 638 156 500 156 260 c 3
 156 20 240 -118 337 -211 c 1
 314 -235 l 1
 208 -152 60 20 60 260 c 3
EndSplineSet
Validated: 1
EndChar

StartChar: equal
Encoding: 61 61 179
Width: 576
VWidth: 0
Flags: W
HStem: 140 50<40 536> 310 50<40 536>
LayerCount: 5
Fore
SplineSet
40 190 m 1
 536 190 l 1
 536 140 l 1
 40 140 l 1
 40 190 l 1
40 360 m 1
 536 360 l 1
 536 310 l 1
 40 310 l 1
 40 360 l 1
EndSplineSet
Validated: 1
EndChar

StartChar: greater
Encoding: 62 62 180
Width: 1504
VWidth: -9
Flags: W
HStem: 245 44<100 1133.98>
LayerCount: 5
Fore
SplineSet
1404 267 m 0
 1404 260 1333 234 1248 188 c 0
 1162 138 1103 93 1096 96 c 0
 1093 98 1120 149 1138 202 c 0
 1141 213 1131 245 1107 245 c 2
 100 245 l 1
 100 289 l 1
 1108 289 l 2
 1129 289 1141 320 1138 334 c 0
 1120 387 1093 435 1096 437 c 0
 1103 440 1162 396 1248 346 c 0
 1333 300 1404 274 1404 267 c 0
EndSplineSet
Validated: 33
EndChar

StartChar: four
Encoding: 52 52 181
Width: 546
VWidth: 0
Flags: W
HStem: 0 35<185 277.238 387.762 480> 171 37<71 285 380 516> 660 20G<202 372>
VStem: 285 95<40.0216 171 208 378>
LayerCount: 5
Fore
SplineSet
380 171 m 1
 380 85 l 2
 380 50 395 35 430 35 c 2
 480 35 l 1
 480 0 l 1
 185 0 l 1
 185 35 l 1
 235 35 l 2
 270 35 285 50 285 85 c 2
 285 171 l 1
 49 171 l 1
 30 171 l 1
 30 208 l 1
 129 378 189 519 215 680 c 1
 372 680 l 1
 295 510 179 382 71 208 c 1
 285 208 l 1
 285 378 l 1
 370 503 l 2
 376 511 380 509 380 500 c 2
 380 208 l 1
 516 208 l 1
 516 171 l 1
 380 171 l 1
EndSplineSet
Validated: 1
Layer: 2
SplineSet
30 208 m 5
 129 378 189 519 215 680 c 5
 372 680 l 5
 290 498 163 365 49 171 c 5
 30 208 l 5
30 208 m 5
 516 208 l 5
 516 171 l 5
 30 171 l 5
 30 208 l 5
380 500 m 6
 380 85 l 6
 380 50 395 35 430 35 c 6
 480 35 l 5
 480 0 l 5
 185 0 l 5
 185 35 l 5
 235 35 l 6
 270 35 285 50 285 85 c 6
 285 378 l 5
 370 503 l 6
 376 511 380 509 380 500 c 6
EndSplineSet
EndChar

StartChar: five
Encoding: 53 53 182
Width: 565
Flags: W
HStem: -12 34<170.461 320.115> 392 34<187.229 331.427> 665 20G<108 196>
VStem: 60 159<110.711 209.552> 108 35<391 578> 389 116<117.821 306.723>
LayerCount: 5
Fore
SplineSet
148 51 m 0xf4
 174 33 208 22 251 22 c 3
 342 22 389 82 389 212 c 3
 389 327 366 392 252 392 c 3
 208 392 166 373 124 344 c 0
 110 335 108 334 108 354 c 2
 108 685 l 1
 284 651 360 660 439 679 c 0
 457 683 462 682 455 664 c 0
 412 557 279 557 143 578 c 1
 143 391 l 1xec
 177 408 226 426 283 426 c 7
 385 426 505 353 505 212 c 3
 505 93 412 -12 259 -12 c 3
 137 -12 60 60 60 146 c 0
 60 204 101 239 144 239 c 0
 187 239 219 207 219 164 c 0
 219 125 193 96 157 90 c 0
 127 85 130 64 148 51 c 0xf4
EndSplineSet
Validated: 33
Layer: 2
SplineSet
106 98 m 1
 132 52 180 22 251 22 c 3
 342 22 389 82 389 212 c 3
 389 327 366 392 252 392 c 3
 208 392 166 373 124 344 c 0
 110 335 108 334 108 354 c 2
 108 685 l 1
 284 651 360 660 439 679 c 0
 457 683 462.172851562 681.931640625 455 664 c 0
 412.37890625 557.448242188 279 557 143 578 c 1xc8
 143 391 l 1
 177 408 226 426 283 426 c 3
 385 426 505 353 505 212 c 3
 505 93 412 -12 259 -12 c 3
 137 -12 60 60 60 146 c 0
 60 204 101 239 144 239 c 0
 187 239 219 207 219 164 c 0
 219 121 187 89 144 89 c 0
 133 89 121 92 106 98 c 1
69 164 m 4xe4
 69 207 101 239 144 239 c 4
 187 239 219 207 219 164 c 4
 219 121 187 89 144 89 c 4
 101 89 69 121 69 164 c 4xe4
EndSplineSet
EndChar

StartChar: eight
Encoding: 56 56 183
Width: 584
Flags: W
HStem: -12 37<202.142 382.674> 655 37<212.777 372.947>
VStem: 50 80<89.4147 236.933> 79 89<509.606 590.195> 426 76<460.232 605.35> 443 91<104.896 200.798>
LayerCount: 5
Fore
SplineSet
168 572 m 0xd8
 168 492 259 448 350 398 c 1
 404 431 426 474 426 533 c 0
 426 607 387 655 290 655 c 0
 216 655 168 617 168 572 c 0xd8
443 131 m 0xe4
 443 228 340 271 244 322 c 1
 166 285 130 237 130 166 c 0
 130 100 164 25 290 25 c 0
 395 25 443 74 443 131 c 0xe4
210 341 m 1
 139 382 79 432 79 518 c 0
 79 606 176 692 290 692 c 0
 408 692 502 626 502 533 c 0xd8
 502 463 451 415 383 380 c 1
 462 333 534 277 534 183 c 0
 534 80 422 -12 290 -12 c 0
 148 -12 50 73 50 161 c 0
 50 249 122 302 210 341 c 1
EndSplineSet
Validated: 1
Layer: 2
SplineSet
443.876953125 131 m 4xd4
 443.876953125 74 395.876953125 25 290.876953125 25 c 4
 164.876953125 25 130.876953125 100 130.876953125 166 c 4
 130.876953125 251 181.876953125 303 295.876953125 343 c 4
 403.876953125 380 502.876953125 436 502.876953125 533 c 4xe8
 502.876953125 626 408.876953125 692 290.876953125 692 c 4
 176.876953125 692 79.876953125 606 79.876953125 518 c 4
 79.876953125 306 443.876953125 314 443.876953125 131 c 4xd4
168.876953125 572 m 4xd4
 168.876953125 617 216.876953125 655 290.876953125 655 c 4
 387.876953125 655 426.876953125 607 426.876953125 533 c 4
 426.876953125 455 387.876953125 404 287.876953125 370 c 4
 168.876953125 330 50.876953125 273 50.876953125 161 c 4xe8
 50.876953125 73 148.876953125 -12 290.876953125 -12 c 4
 422.876953125 -12 534.876953125 80 534.876953125 183 c 4
 534.876953125 396 168.876953125 412 168.876953125 572 c 4xd4
EndSplineSet
EndChar

StartChar: nine
Encoding: 57 57 184
Width: 581
Flags: W
HStem: -12 32<212.305 296.773> 254 35<227.408 342.289> 660 32<229.294 330.922>
VStem: 60 109<359.02 561.553> 78 131<36.1885 124.344> 416 105<235.204 326 349.854 520.262>
LayerCount: 5
Fore
SplineSet
221 97 m 0xec
 221 77 209 60 209 44 c 0xec
 209 33 215 20 240 20 c 3
 352 20 416 166 416 274 c 2
 416 326 l 17
 389 288 337 254 264 254 c 3
 167 254 60 318 60 454 c 3xf4
 60 604 168 692 275 692 c 3
 427 692 521 574 521 368 c 7
 521 174 392 -12 240 -12 c 7
 146 -12 78 26 78 99 c 0
 78 136 107 168 151 168 c 0
 189 168 221 140 221 97 c 0xec
282 289 m 3
 329 289 416 331 416 419 c 2
 416 474 l 2
 416 558 364 660 278 660 c 3
 201 660 169 580 169 458 c 3xf4
 169 343 218 289 282 289 c 3
EndSplineSet
Validated: 1
Layer: 2
SplineSet
255 20 m 7
 367 20 416 155 416 274 c 6
 416 333 l 21
 389 295 332 254 259 254 c 7
 162 254 60 325 60 461 c 7
 60 602 168 692 275 692 c 7
 427 692 521 550 521 344 c 7
 521 150 407 -12 255 -12 c 7
 162 -12 95 41 95 105 c 4
 95 145 125 176 166 176 c 4
 207 176 237 146 237 105 c 4xe4
 237 91 234 79 227 68 c 4
 210 39 217 20 255 20 c 7
277 289 m 7
 324 289 416 337 416 425 c 6
 416 474 l 6
 416 558 364 660 278 660 c 7
 201 660 169 580 169 465 c 7
 169 350 213 289 277 289 c 7
EndSplineSet
EndChar

StartChar: periodcentered
Encoding: 183 183 185
Width: 322
VWidth: 0
Flags: W
HStem: 199 162<106.829 215.171>
VStem: 80 162<225.829 334.171>
LayerCount: 5
Fore
SplineSet
80 280 m 0
 80 324 117 361 161 361 c 0
 205 361 242 324 242 280 c 0
 242 236 205 199 161 199 c 0
 117 199 80 236 80 280 c 0
EndSplineSet
Validated: 1
EndChar

StartChar: Oslash
Encoding: 216 216 186
Width: 645
VWidth: 0
Flags: W
HStem: -12 32<261.119 381.819> 660 32<264.086 384.881>
VStem: 40 132<194.706 486.326> 473 132<193.889 488.661>
AnchorPoint: "trema" 323 750 basechar 0
AnchorPoint: "acute gravis circumflex tilde" 323 730 basechar 0
LayerCount: 5
Fore
SplineSet
40 340 m 0
 40 535 143 692 323 692 c 0
 383 692 434 675 476 644 c 1
 532 741 l 1
 566 721 l 1
 506 618 l 1
 571 554 605 453 605 340 c 0
 605 146 503 -12 323 -12 c 0
 263 -12 212 5 170 36 c 1
 114 -61 l 1
 80 -41 l 1
 140 62 l 1
 75 126 40 227 40 340 c 0
207 100 m 1
 234 41 274 20 323 20 c 0
 413 20 473 90 473 340 c 0
 473 421 467 483 455 529 c 1
 207 100 l 1
190 150 m 1
 439 580 l 1
 412 639 372 660 323 660 c 0
 233 660 172 590 172 340 c 0
 172 259 178 197 190 150 c 1
EndSplineSet
Validated: 1
Layer: 2
SplineSet
114 -61 m 5
 80 -41 l 5
 532 741 l 5
 566 721 l 5
 114 -61 l 5
172 340 m 0
 172 90 233 20 323 20 c 0
 413 20 473 90 473 340 c 0
 473 590 413 660 323 660 c 0
 233 660 172 590 172 340 c 0
40 340 m 0
 40 535 143 692 323 692 c 0
 503 692 605 535 605 340 c 0
 605 146 503 -12 323 -12 c 0
 143 -12 40 146 40 340 c 0
EndSplineSet
EndChar

StartChar: oslash
Encoding: 248 248 187
Width: 504
VWidth: 0
Flags: W
HStem: -12 26<208.094 293.859> 436 26<210.141 295.906>
VStem: 40 108<114.835 334.148> 356 108<115.852 335.165>
AnchorPoint: "trema" 252 530 basechar 0
AnchorPoint: "acute gravis circumflex tilde" 252 530 basechar 0
LayerCount: 5
Fore
SplineSet
40 225 m 0
 40 355 122 462 252 462 c 0
 289 462 323 453 351 437 c 1
 403 527 l 1
 438 507 l 1
 385 414 l 1
 435 371 464 302 464 225 c 0
 464 95 382 -12 252 -12 c 0
 215 -12 181 -3 153 13 c 1
 101 -77 l 1
 66 -57 l 1
 119 36 l 1
 69 79 40 148 40 225 c 0
179 58 m 1
 197 28 222 14 252 14 c 0
 315 14 356 75 356 225 c 0
 356 274 352 313 344 344 c 1
 179 58 l 1
160 106 m 1
 325 392 l 1
 307 422 282 436 252 436 c 0
 189 436 148 375 148 225 c 0
 148 176 152 137 160 106 c 1
EndSplineSet
Validated: 1
Layer: 2
SplineSet
101 -77 m 1
 66 -57 l 1
 403 527 l 1
 438 507 l 1
 101 -77 l 1
148 225 m 0
 148 75 189 14 252 14 c 0
 315 14 356 75 356 225 c 0
 356 375 315 436 252 436 c 0
 189 436 148 375 148 225 c 0
40 225 m 0
 40 355 122 462 252 462 c 0
 382 462 464 355 464 225 c 0
 464 95 382 -12 252 -12 c 0
 122 -12 40 95 40 225 c 0
EndSplineSet
EndChar

StartChar: bar
Encoding: 124 124 188
Width: 363
VWidth: 0
Flags: W
VStem: 160 43<-143 754>
LayerCount: 5
Fore
SplineSet
160 754 m 1
 203 754 l 1
 203 -143 l 1
 160 -143 l 1
 160 754 l 1
EndSplineSet
Validated: 1
EndChar

StartChar: dotlessi
Encoding: 305 305 190
Width: 330
VWidth: 0
Flags: W
HStem: 0 35<50 124.727 222.851 300> 415 35<50 127.149>
VStem: 130 90<38.1941 413.286>
AnchorPoint: "trema" 150 530 basechar 0
AnchorPoint: "acute gravis circumflex tilde" 150 530 basechar 0
LayerCount: 5
Fore
SplineSet
270 35 m 2
 300 35 l 1
 300 0 l 1
 50 0 l 1
 50 35 l 1
 80 35 l 2
 120 35 130 45 130 85 c 2
 130 365 l 2
 130 410 125 415 80 415 c 2
 50 415 l 1
 50 450 l 1
 220 450 l 1
 220 85 l 2
 220 40 225 35 270 35 c 2
EndSplineSet
Validated: 1
EndChar

StartChar: guillemotleft
Encoding: 171 171 191
Width: 547
VWidth: 0
Flags: W
LayerCount: 5
Fore
SplineSet
361 240 m 1
 396 180 445 90 467 42 c 1
 446 35 l 1
 404 95 334 169 261 233 c 0
 258 236 256 238 256 240 c 0
 256 242 258 244 261 247 c 0
 334 311 404 385 446 445 c 1
 467 438 l 1
 445 390 396 300 361 240 c 1
171 240 m 1
 206 180 255 90 277 42 c 1
 256 35 l 1
 214 95 144 169 71 233 c 0
 68 236 66 238 66 240 c 0
 66 242 68 244 71 247 c 0
 144 311 214 385 256 445 c 1
 277 438 l 1
 255 390 206 300 171 240 c 1
EndSplineSet
Layer: 2
SplineSet
80 225 m 1
 80 255 l 1
 166 248 l 1
 202 188 254 92 277 42 c 1
 256 35 l 1
 211.528320312 96.6611328125 149.583984375 164.087890625 80 225 c 1
80 255 m 5
 149.584301767 315.912156442 211.528320312 383.338867188 256 445 c 5
 277 438 l 5
 254 388 202 292 166 232 c 5
 80 225 l 5
 80 255 l 5
EndSplineSet
Layer: 3
SplineSet
171 240 m 5
 206 180 255 90 277 42 c 5
 256 35 l 5
 212 97 138.35633923 174.262475421 63 240 c 5
 138.35633923 305.737524579 212 383 256 445 c 5
 277 438 l 5
 255 390 206 300 171 240 c 5
EndSplineSet
EndChar

StartChar: guilsinglleft
Encoding: 8249 8249 193
Width: 396
VWidth: 0
Flags: W
VStem: 67 249
LayerCount: 5
Fore
SplineSet
180 220 m 1
 220 164 290 57 316 12 c 1
 296 3 l 1
 246 64 154 151 75 210 c 0
 70 214 67 217 67 220 c 0
 67 223 70 227 77 232 c 0
 155 290 246 376 296 437 c 1
 316 428 l 1
 290 383 220 276 180 220 c 1
EndSplineSet
Layer: 2
SplineSet
80 205 m 5
 80 235 l 5
 169 235 l 5
 206 185 288 61 316 12 c 5
 296 3 l 5
 243 68 154 152 80 205 c 5
80 235 m 5
 154 288 243 372 296 437 c 5
 316 428 l 5
 288 379 206 255 169 205 c 5
 80 205 l 5
 80 235 l 5
EndSplineSet
Layer: 3
SplineSet
180 220 m 5
 220 164 290 57 316 12 c 5
 296 3 l 5
 243 68 142.310546875 161.788085938 61 220 c 5
 142.310546875 278.211914062 243 372 296 437 c 5
 316 428 l 5
 290 383 220 276 180 220 c 5
EndSplineSet
EndChar

StartChar: uni2010
Encoding: 8208 8208 201
Width: 456
VWidth: 0
Flags: W
HStem: 209 85<80.5 376.5>
VStem: 80.5 296<209 294>
LayerCount: 5
Fore
SplineSet
80 294 m 1
 376 294 l 1
 376 209 l 1
 80 209 l 1
 80 294 l 1
EndSplineSet
Validated: 1
EndChar

StartChar: uni2011
Encoding: 8209 8209 202
Width: 456
VWidth: 0
Flags: W
HStem: 209 85<80.5 376.5>
VStem: 80.5 296<209 294>
LayerCount: 5
Fore
SplineSet
80 294 m 1
 376 294 l 1
 376 209 l 1
 80 209 l 1
 80 294 l 1
EndSplineSet
Validated: 1
EndChar

StartChar: endash
Encoding: 8211 8211 203
Width: 500
VWidth: 0
Flags: W
HStem: 229 65<0 500>
LayerCount: 5
Fore
SplineSet
0 294 m 1
 500 294 l 5
 500 229 l 5
 0 229 l 1
 0 294 l 1
EndSplineSet
Validated: 1
EndChar

StartChar: emdash
Encoding: 8212 8212 204
Width: 1000
VWidth: 0
Flags: W
HStem: 229 65<0 1000>
LayerCount: 5
Fore
SplineSet
0 294 m 1
 1000 294 l 5
 1000 229 l 5
 0 229 l 1
 0 294 l 1
EndSplineSet
Validated: 1
EndChar

StartChar: afii00208
Encoding: 8213 8213 205
Width: 1500
VWidth: 0
Flags: W
HStem: 229 65<0 1075.2> 239 65<424.8 1500>
LayerCount: 5
Fore
SplineSet
0 294 m 1x80
 1500 304 l 1
 1500 239 l 1x40
 0 229 l 1
 0 294 l 1x80
EndSplineSet
Validated: 1
EndChar

StartChar: bullet
Encoding: 8226 8226 209
Width: 408
VWidth: 0
Flags: W
HStem: 266 288<129.566 278.434>
VStem: 60 288<335.566 484.434>
LayerCount: 5
Fore
SplineSet
60 410 m 0
 60 489 125 554 204 554 c 0
 283 554 348 489 348 410 c 0
 348 331 283 266 204 266 c 0
 125 266 60 331 60 410 c 0
EndSplineSet
Validated: 1
EndChar

StartChar: minute
Encoding: 8242 8242 210
Width: 222
VWidth: 1000
Flags: W
HStem: 387 305<80.6228 84>
VStem: 62 100<554.465 674.581> 71 91<556.021 683.899>
LayerCount: 5
Fore
SplineSet
84 387 m 1xc0
 60 387 l 1
 62 417 l 2xc0
 67 492 63 597 71 642 c 0xa0
 75 667 89 692 119 692 c 3
 147 692 162 673 162 645 c 0
 162 638 161 630 159 621 c 0
 146 570 117 482 95 417 c 2
 84 387 l 1xc0
EndSplineSet
Validated: 1
EndChar

StartChar: dagger
Encoding: 8224 8224 212
Width: 584
VWidth: 1000
Flags: W
HStem: 404 110<63.127 193.134 390.866 520.873> 443 32<198.495 276 308 385.505>
VStem: 234 116<577.716 728.864> 276 32<-140 58.8148 325.416 443 475 558.518>
LayerCount: 5
Fore
SplineSet
276 -140 m 1x50
 276 -8 258 176 222 276 c 1
 247 300 276 334 276 396 c 2
 276 443 l 1x50
 202 443 170 404 117 404 c 0
 78 404 52 425 52 459 c 0
 52 493 78 514 117 514 c 0x90
 165 514 202 475 276 475 c 1x50
 274 548 234 618 234 674 c 0
 234 715 257 741 292 741 c 0
 327 741 350 715 350 674 c 0x60
 350 623 310 548 308 475 c 1x50
 382 475 414 514 467 514 c 0
 506 514 532 493 532 459 c 0
 532 425 506 404 467 404 c 0x90
 419 404 382 443 308 443 c 1
 308 396 l 2
 308 334 337 300 362 276 c 1
 326 176 308 -8 308 -140 c 1
 276 -140 l 1x50
EndSplineSet
Validated: 1
Layer: 2
SplineSet
302 463 m 6
 377 463 401 500 450 500 c 4
 486 500 509 481 509 449 c 4
 509 417 486 398 450 398 c 4
 405 398 377 435 302 435 c 6
 282 435 l 6
 207 435 183 398 134 398 c 4
 98 398 75 417 75 449 c 4
 75 481 98 500 134 500 c 4
 179 500 207 463 282 463 c 6
 302 463 l 6
278 -100 m 5
 278 32 264 156 228 256 c 5
 253 280 278 334 278 396 c 6
 278 450 l 6
 278 525 238 574 238 627 c 4
 238 665 259 688 292 688 c 4
 325 688 346 665 346 627 c 4
 346 579 306 525 306 450 c 6
 306 396 l 6
 306 334 331 280 356 256 c 5
 320 156 306 32 306 -100 c 5
 278 -100 l 5
EndSplineSet
Layer: 3
SplineSet
307 475 m 6
 382 475 414 514 467 514 c 4
 506 514 532 493 532 459 c 4
 532 425 506 404 467 404 c 4
 419 404 382 443 307 443 c 6
 277 443 l 6
 202 443 170 404 117 404 c 4
 78 404 52 425 52 459 c 4
 52 493 78 514 117 514 c 4
 165 514 202 475 277 475 c 6
 307 475 l 6
276 -140 m 5
 276 -8 258 176 222 276 c 5
 247 300 276 334 276 396 c 6
 276 470 l 6
 276 545 234 617 234 674 c 4
 234 715 257 741 292 741 c 4
 327 741 350 715 350 674 c 4
 350 622 308 545 308 470 c 6
 308 396 l 6
 308 334 337 300 362 276 c 5
 326 176 308 -8 308 -140 c 5
 276 -140 l 5
EndSplineSet
EndChar

StartChar: daggerdbl
Encoding: 8225 8225 214
Width: 584
VWidth: 1000
Flags: W
HStem: 78 110<63.127 193.134 390.866 520.873> 117 32<198.495 276 308 385.505> 424 110<63.127 193.134 390.866 520.873> 463 32<198.495 276 308 385.505>
VStem: 234 116<-116.864 27.0082 584.992 728.864> 276 32<42.3457 117 149 238.795 373.205 463 495 569.654>
LayerCount: 5
Back
SplineSet
316 294 m 5
 293 322 271 371 271 435 c 5
 343 434 371 398 415 398 c 4
 451 398 474 417 474 449 c 4
 474 481 451 500 415 500 c 4
 367 500 343 464 271 463 c 5
 276 531 311 582 311 627 c 4
 311 665 290 688 257 688 c 4
 224 688 203 665 203 627 c 4
 203 577 238 531 243 463 c 5
 171 464 143 500 99 500 c 4
 63 500 40 481 40 449 c 4
 40 417 63 398 99 398 c 4
 147 398 171 434 243 435 c 5
 243 371 221 322 198 294 c 5
 221 266 243 217 243 153 c 5
 171 154 143 190 99 190 c 4
 63 190 40 171 40 139 c 4
 40 107 63 88 99 88 c 4
 147 88 171 124 243 125 c 5
 238 57 203 6 203 -39 c 4
 203 -77 224 -100 257 -100 c 4
 290 -100 311 -77 311 -39 c 4
 311 11 276 57 271 125 c 5
 343 124 371 88 415 88 c 4
 451 88 474 107 474 139 c 4
 474 171 451 190 415 190 c 4
 367 190 343 154 271 153 c 5
 271 217 294 268 316 294 c 5
EndSplineSet
Fore
SplineSet
359 306 m 1x14
 335 277 308 215 308 149 c 1x54
 382 149 419 188 467 188 c 0
 506 188 532 167 532 133 c 0
 532 99 506 78 467 78 c 0x84
 414 78 382 117 308 117 c 1x44
 312 46 350 -12 350 -62 c 0
 350 -103 327 -129 292 -129 c 0
 257 -129 234 -103 234 -62 c 0x48
 234 -8 272 47 276 117 c 1x44
 202 117 165 78 117 78 c 0
 78 78 52 99 52 133 c 0
 52 167 78 188 117 188 c 0x84
 170 188 202 149 276 149 c 1
 276 215 249 277 225 306 c 1
 248 335 276 397 276 463 c 1x54
 202 463 170 424 117 424 c 0
 78 424 52 445 52 479 c 0
 52 513 78 534 117 534 c 0x24
 165 534 202 495 276 495 c 1x14
 272 565 234 620 234 674 c 0
 234 715 257 741 292 741 c 0
 327 741 350 715 350 674 c 0x18
 350 624 312 566 308 495 c 1x14
 382 495 414 534 467 534 c 0
 506 534 532 513 532 479 c 0
 532 445 506 424 467 424 c 0x24
 419 424 382 463 308 463 c 1
 308 397 334 335 359 306 c 1x14
EndSplineSet
Validated: 1
Layer: 2
SplineSet
307 117 m 6
 277 117 l 6
 202 117 165 78 117 78 c 4
 78 78 52 99 52 133 c 4
 52 167 78 188 117 188 c 4
 170 188 202 149 277 149 c 6
 307 149 l 6
 382 149 419 188 467 188 c 4
 506 188 532 167 532 133 c 4
 532 99 506 78 467 78 c 4
 414 78 382 117 307 117 c 6
359 306 m 5
 337 279 308 218 308 156 c 6
 308 127 l 6
 308 52 350 -10 350 -62 c 4
 350 -103 327 -129 292 -129 c 4
 257 -129 234 -103 234 -62 c 4
 234 -5 276 52 276 127 c 6
 276 156 l 6
 276 218 247 279 225 306 c 5
 246 333 276 394 276 456 c 6
 276 485 l 6
 276 560 234 617 234 674 c 4
 234 715 257 741 292 741 c 4
 327 741 350 715 350 674 c 4
 350 622 308 560 308 485 c 6
 308 456 l 6
 308 394 336 333 359 306 c 5
307 495 m 6
 382 495 414 534 467 534 c 4
 506 534 532 513 532 479 c 4
 532 445 506 424 467 424 c 4
 419 424 382 463 307 463 c 6
 277 463 l 6
 202 463 170 424 117 424 c 4
 78 424 52 445 52 479 c 4
 52 513 78 534 117 534 c 4
 165 534 202 495 277 495 c 6
 307 495 l 6
EndSplineSet
EndChar

StartChar: uni203B
Encoding: 8251 8251 215
Width: 808
VWidth: 0
Flags: W
HStem: -18 142<354.377 453.623> 265 142<70.2726 172.727 637.377 736.623> 547 143<354.277 453.723>
VStem: 50 143<286.277 385.723> 333 142<3.37708 102.623 567.273 669.727> 616 142<286.377 385.623>
LayerCount: 5
Fore
SplineSet
634 597 m 1
 667 564 l 1
 438 335 l 1
 667 106 l 1
 635 74 l 1
 405 303 l 1
 176 73 l 1
 143 106 l 1
 373 335 l 1
 143 564 l 1
 176 597 l 1
 405 368 l 1
 634 597 l 1
333 618.5 m 0
 333 656.530273438 366.051757812 690 404 690 c 0
 441.928710938 690 475 656.547851562 475 618.5 c 0
 475 580.469726562 441.948242188 547 404 547 c 0
 366.071289062 547 333 580.452148438 333 618.5 c 0
616 336 m 0
 616 373.661132812 649.321289062 407 687 407 c 0
 724.661132812 407 758 373.678710938 758 336 c 0
 758 298.338867188 724.678710938 265 687 265 c 0
 649.338867188 265 616 298.321289062 616 336 c 0
333 53 m 0
 333 90.6611328125 366.321289062 124 404 124 c 0
 441.661132812 124 475 90.6787109375 475 53 c 0
 475 15.3388671875 441.678710938 -18 404 -18 c 0
 366.338867188 -18 333 15.3212890625 333 53 c 0
50 336 m 0
 50 373.928710938 83.4521484375 407 121.5 407 c 0
 159.530273438 407 193 373.948242188 193 336 c 0
 193 298.071289062 159.547851562 265 121.5 265 c 0
 83.4697265625 265 50 298.051757812 50 336 c 0
EndSplineSet
Validated: 1
Layer: 2
SplineSet
333 0 m 4
 333 39 365 71 404 71 c 4
 443 71 475 39 475 0 c 4
 475 -39 443 -71 404 -71 c 4
 365 -71 333 -39 333 0 c 4
133 -200 m 4
 133 -161 165 -129 204 -129 c 4
 243 -129 275 -161 275 -200 c 4
 275 -239 243 -271 204 -271 c 4
 165 -271 133 -239 133 -200 c 4
533 -200 m 4
 533 -161 565 -129 604 -129 c 4
 643 -129 675 -161 675 -200 c 4
 675 -239 643 -271 604 -271 c 4
 565 -271 533 -239 533 -200 c 4
533 200 m 4
 533 239 565 271 604 271 c 4
 643 271 675 239 675 200 c 4
 675 161 643 129 604 129 c 4
 565 129 533 161 533 200 c 4
133 200 m 4
 133 239 165 271 204 271 c 4
 243 271 275 239 275 200 c 4
 275 161 243 129 204 129 c 4
 165 129 133 161 133 200 c 4
752 23 m 5
 752 -22 l 5
 58 -23 l 5
 58 23 l 5
 752 23 l 5
382 347 m 5
 428 347 l 5
 428 -347 l 5
 382 -347 l 5
 382 347 l 5
EndSplineSet
EndChar

StartChar: uni2047
Encoding: 8263 8263 218
Width: 626
VWidth: 1000
Flags: W
HStem: -7 124<132.2 225.8 365.2 458.8> 664 28<119.086 217.097 357.917 450.132>
VStem: 20 73<539 624.778> 117 124<8.20026 101.8> 247 106<462.847 629.764> 350 124<8.20026 101.8> 480 106<462.847 620.818>
LayerCount: 5
Fore
SplineSet
186 692 m 3xfa
 232 692 273 678 302 654 c 1
 332 677 372 692 419 692 c 0
 517 692 586 631 586 546 c 0
 586 393 410 388 425 216 c 1
 389 216 l 1
 374 363 480 398 480 556 c 0
 480 641 450 664 406 664 c 0
 372 664 340 647 340 617 c 0
 340 599 353 572 353 546 c 0
 353 393 177 388 192 216 c 1
 156 216 l 1
 141 363 247 398 247 556 c 0
 247 641 216 664 173 664 c 3
 117 664 93 632 93 616 c 3
 93 593 148 588 148 542 c 3
 148 505 119 481 88 481 c 3
 46 481 20 516 20 562 c 3
 20 628 90 692 186 692 c 3xfa
117 55 m 0
 117 89 145 117 179 117 c 0
 213 117 241 89 241 55 c 0
 241 21 213 -7 179 -7 c 0
 145 -7 117 21 117 55 c 0
350 55 m 0xf6
 350 89 378 117 412 117 c 0
 446 117 474 89 474 55 c 0
 474 21 446 -7 412 -7 c 0
 378 -7 350 21 350 55 c 0xf6
EndSplineSet
EndChar

StartChar: uni2035
Encoding: 8245 8245 220
Width: 222
VWidth: 1000
Flags: W
HStem: 387 305<138 141.377>
VStem: 60 91<559.46 683.899> 138 24<387 410.893>
LayerCount: 5
Fore
SplineSet
138 387 m 1xa0
 129 417 l 2
 109 483 76 570 63 621 c 0
 61 630 60 638 60 645 c 0
 60 673 75 692 103 692 c 3
 133 692 147 667 151 642 c 0xc0
 159 597 162 491 162 417 c 2
 162 387 l 1
 138 387 l 1xa0
EndSplineSet
Validated: 1
EndChar

StartChar: perthousand
Encoding: 8240 8240 223
Width: 1146
VWidth: 0
Flags: W
HStem: -12 26<566.142 619.858 916.142 969.858> 0 21G<137.192 203.564> 317 26<566.142 619.858 916.142 969.858> 338 26<176.142 229.858> 660 20G<592.218 658.59> 667 26<176.142 229.858>
VStem: 60 87<421.592 610.113> 259 87<421.592 610.113> 450 87<71.5921 260.113> 649 87<71.5921 260.113> 800 87<71.5921 260.113> 999 87<71.5921 260.113>
LayerCount: 5
Fore
SplineSet
887 166 m 3xa3f0
 887 54 909.400390625 14 943 14 c 3
 976.599609375 14 999 54 999 166 c 3
 999 278 976.599609375 317 943 317 c 3
 909.400390625 317 887 278 887 166 c 3xa3f0
800 166 m 3
 800 261 862 343 943 343 c 3
 1024 343 1086 261 1086 166 c 3
 1086 71 1024 -12 943 -12 c 3
 862 -12 800 71 800 166 c 3
537 166 m 3
 537 54 559.400390625 14 593 14 c 3
 626.599609375 14 649 54 649 166 c 3
 649 278 626.599609375 317 593 317 c 3
 559.400390625 317 537 278 537 166 c 3
450 166 m 3
 450 261 512 343 593 343 c 3
 674 343 736 261 736 166 c 3
 736 71 674 -12 593 -12 c 3
 512 -12 450 71 450 166 c 3
147 516 m 3
 147 404 169.400390625 364 203 364 c 3
 236.599609375 364 259 404 259 516 c 3
 259 628 236.599609375 667 203 667 c 3x17f0
 169.400390625 667 147 628 147 516 c 3
60 516 m 3
 60 611 122 693 203 693 c 3
 284 693 346 611 346 516 c 3
 346 421 284 338 203 338 c 3
 122 338 60 421 60 516 c 3
658.58984375 680 m 1x4bf0
 189.775390625 0 l 1
 137.192382812 0 l 1
 606.006835938 680 l 1
 658.58984375 680 l 1x4bf0
EndSplineSet
Validated: 1
EndChar

StartChar: uni2031
Encoding: 8241 8241 224
Width: 1496
VWidth: 0
Flags: W
HStem: -12 26<566.142 619.858 916.142 969.858 1266.14 1319.86> 0 21G<137.192 203.564> 317 26<566.142 619.858 916.142 969.858 1266.14 1319.86> 338 26<176.142 229.858> 660 20G<592.218 658.59> 667 26<176.142 229.858>
VStem: 60 87<421.592 610.113> 259 87<421.592 610.113> 450 87<71.5921 260.113> 649 87<71.5921 260.113> 800 87<71.5921 260.113> 999 87<71.5921 260.113> 1150 87<71.5921 260.113> 1349 87<71.5921 260.113>
LayerCount: 5
Fore
SplineSet
1237 166 m 7xa3fc
 1237 54 1259.40039062 14 1293 14 c 7
 1326.59960938 14 1349 54 1349 166 c 7
 1349 278 1326.59960938 317 1293 317 c 7
 1259.40039062 317 1237 278 1237 166 c 7xa3fc
1150 166 m 7
 1150 261 1212 343 1293 343 c 7
 1374 343 1436 261 1436 166 c 7
 1436 71 1374 -12 1293 -12 c 7
 1212 -12 1150 71 1150 166 c 7
887 166 m 3
 887 54 909.400390625 14 943 14 c 3
 976.599609375 14 999 54 999 166 c 3
 999 278 976.599609375 317 943 317 c 3
 909.400390625 317 887 278 887 166 c 3
800 166 m 3
 800 261 862 343 943 343 c 3
 1024 343 1086 261 1086 166 c 3
 1086 71 1024 -12 943 -12 c 3
 862 -12 800 71 800 166 c 3
537 166 m 3
 537 54 559.400390625 14 593 14 c 3
 626.599609375 14 649 54 649 166 c 3
 649 278 626.599609375 317 593 317 c 3
 559.400390625 317 537 278 537 166 c 3
450 166 m 3
 450 261 512 343 593 343 c 3
 674 343 736 261 736 166 c 3
 736 71 674 -12 593 -12 c 3
 512 -12 450 71 450 166 c 3
147 516 m 3
 147 404 169.400390625 364 203 364 c 3
 236.599609375 364 259 404 259 516 c 3
 259 628 236.599609375 667 203 667 c 3x17fc
 169.400390625 667 147 628 147 516 c 3
60 516 m 3
 60 611 122 693 203 693 c 3
 284 693 346 611 346 516 c 3
 346 421 284 338 203 338 c 3
 122 338 60 421 60 516 c 3
658.58984375 680 m 1x4bfc
 189.775390625 0 l 1
 137.192382812 0 l 1
 606.006835938 680 l 1
 658.58984375 680 l 1x4bfc
EndSplineSet
Validated: 1
EndChar

StartChar: oe
Encoding: 339 339 228
Width: 762
VWidth: 0
Flags: W
HStem: -12 26<209.552 284.007 513.089 577.147> 238 29<434 594.616> 436 26<209.552 284.057 493.831 564.688>
VStem: 50 108<113.316 336.684> 336 97<88.2908 238 267 369.426> 602 103<270.326 362.391> 679 28<113.738 136.56>
AnchorPoint: "trema" 398 530 basechar 0
AnchorPoint: "acute gravis circumflex tilde" 398 530 basechar 0
LayerCount: 5
Fore
SplineSet
50 225 m 0xfa
 50 355 127 462 247 462 c 0
 305.631755834 462 354.316512848 428.180204012 388.734196922 383.761010428 c 1
 424.26843192 425.593675728 470.615518556 462 532 462 c 0
 655 462 705 352 705 252 c 2
 705 238 l 1xfc
 433 238 l 1
 433 234 433 229 433 225 c 0
 433 75 483 21 546 21 c 0
 596 21 653 64 679 144 c 1
 707 134 l 1
 678 45 608 -12 532 -12 c 0
 466.558799882 -12 416.52885478 14.6733259906 380.997466936 57.9803026234 c 1
 347.374938245 16.8450456334 301.625168451 -12 247 -12 c 0
 127 -12 50 95 50 225 c 0xfa
158 225 m 0
 158 75 192 14 247 14 c 0
 302 14 336 75 336 225 c 0
 336 375 302 436 247 436 c 0
 192 436 158 375 158 225 c 0
602 312 m 0
 602 380 577 436 532 436 c 0
 483 436 442 386 434 267 c 1
 553 267 l 2
 586 267 602 275 602 312 c 0
EndSplineSet
Validated: 1
Layer: 2
SplineSet
158 225 m 0
 158 75 192 14 247 14 c 0
 302 14 336 75 336 225 c 0
 336 375 302 436 247 436 c 0
 192 436 158 375 158 225 c 0
50 225 m 0
 50 355 127 462 247 462 c 0
 367 462 444 355 444 225 c 0
 444 95 367 -12 247 -12 c 0
 127 -12 50 95 50 225 c 0
EndSplineSet
Layer: 3
SplineSet
433 238 m 5
 433 234 433 229 433 225 c 4
 433 75 483 21 546 21 c 4
 596 21 653 64 679 144 c 5
 707 134 l 5
 678 45 608 -12 532 -12 c 4
 447 -12 388 33 353 101 c 5
 375 192 359 297 376 368 c 5
 413 416 463 462 532 462 c 4
 655 462 705 352 705 252 c 6
 705 238 l 5
 433 238 l 5
602 312 m 7
 602 380 577 436 532 436 c 4
 483 436 442 386 434 267 c 5
 553 267 l 6
 586 267 602 275 602 312 c 7
158 225 m 4
 158 75 192 14 247 14 c 4
 302 14 336 75 336 225 c 4
 336 375 302 436 247 436 c 4
 192 436 158 375 158 225 c 4
50 225 m 4
 50 355 127 462 247 462 c 4
 319 462 376 411 410 352 c 5
 432 313 414 276 414 224 c 4
 414 183 436 161 422 127 c 5
 391 53 329 -12 247 -12 c 4
 127 -12 50 95 50 225 c 4
EndSplineSet
EndChar

StartChar: OE
Encoding: 338 338 229
Width: 950
VWidth: 0
Flags: W
HStem: 0 36<270.628 399.711 569.014 753.282> 327 35<559 647.927> 644 36<270.628 409.1 570.704 744.025>
VStem: 40 132<207.826 472.385> 463 96<114.244 327 362 586.567> 701 35<175 253.349 431.041 512> 853 30<445 500.104> 870 30<207.066 280>
LayerCount: 5
Fore
SplineSet
463 274 m 2xfc
 463 450 l 2
 463 604 418 645 343 645 c 0
 253 645 172 590 172 340 c 0
 172 90 253 35 343 35 c 3
 414 35 463 103 463 274 c 2xfc
343 680 m 0
 518 680 701 680 878 680 c 1
 883 445 l 1
 853 445 l 1xfe
 826 571 772 644 667 644 c 2
 624 644 l 2
 594 644 559 628 559 604 c 2
 559 362 l 1
 602 362 l 2
 662 362 693 422 701 512 c 1
 736 512 l 1
 736 175 l 1
 701 175 l 1
 693 265 658 327 602 327 c 2
 559 327 l 1
 559 79 l 2
 559 55 584 36 610 36 c 2
 664 36 l 2
 830 36 848 159 870 280 c 1
 900 280 l 1xfd
 895 0 l 1
 343 0 l 0
 163 0 40 146 40 340 c 0
 40 535 163 680 343 680 c 0
EndSplineSet
Validated: 1
EndChar

StartChar: paragraph
Encoding: 182 182 230
Width: 498
VWidth: 0
Flags: W
HStem: 0 21G<257 298.033 356 397.034> 645 35<301.444 354.6 400.851 458>
VStem: 40 259<418.241 589.759> 257 41<0 328> 356 41<0 642.467>
LayerCount: 5
Fore
SplineSet
258 328 m 25xd8
 246 328 l 18
 126 328 40 394 40 504 c 3
 40 614 126 680 246 680 c 2
 246 680 380.666992188 680 458 680 c 1
 458 645 l 1
 448 645 l 2
 403 645 398 640 398 595 c 2
 397 0 l 1
 356 0 l 1
 357 610 l 2
 357.052734375 640 343 644.999023438 328 644.999023438 c 3
 313 644.999023438 299.052734375 640 299 610 c 2xe8
 298 0 l 1
 257 0 l 1
 258 328 l 25xd8
EndSplineSet
EndChar

StartChar: copyright
Encoding: 169 169 231
Width: 804
VWidth: 0
Flags: W
HStem: -12 48<290.273 513.727> 124 37<366.87 476.456> 512 34<364.115 466.41> 644 48<290.273 513.727>
VStem: 50 48<228.273 451.727> 223 99<233.413 436.082> 522 27<214.942 253.305 393 440.036> 706 48<228.273 451.727>
LayerCount: 5
Fore
SplineSet
555 253 m 1
 542 174 481 124 412 124 c 0
 316 124 223 204 223 335 c 0
 223 452 301 546 407 546 c 0
 439 546 462 534 478 526 c 0
 504 512 508 518 520 538 c 2
 525 546 l 1
 549 546 l 0
 549 393 l 0
 522 393 l 1
 510 474 462 512 415 512 c 0
 362 512 322 480 322 335 c 0
 322 190 371 161 423 161 c 0
 471 161 513 199 526 259 c 1
 555 253 l 1
98 340 m 0
 98 173 235 36 402 36 c 0
 569 36 706 173 706 340 c 0
 706 507 569 644 402 644 c 0
 235 644 98 507 98 340 c 0
50 340 m 0
 50 533 209 692 402 692 c 0
 595 692 754 533 754 340 c 0
 754 147 595 -12 402 -12 c 0
 209 -12 50 147 50 340 c 0
EndSplineSet
EndChar

StartChar: circumflex
Encoding: 710 710 232
Width: 313
VWidth: 0
Flags: W
HStem: 523 179
VStem: 0 307
AnchorPoint: "acute gravis circumflex tilde" 154 530 mark 0
LayerCount: 5
Fore
SplineSet
123 702 m 1
 184 702 l 1
 208 655 267 582 307 545 c 1
 299 523 l 1
 264 544 200 589 154 628 c 1
 107 589 43 544 8 523 c 1
 0 545 l 1
 40 582 99 655 123 702 c 1
EndSplineSet
EndChar

StartChar: dotaccent
Encoding: 729 729 235
Width: 330
VWidth: 0
Flags: W
HStem: 558 116<118.381 209.619>
VStem: 106 116<570.381 661.619>
LayerCount: 5
Fore
SplineSet
106 616 m 4
 106 648 132 674 164 674 c 4
 196 674 222 648 222 616 c 4
 222 584 196 558 164 558 c 4
 132 558 106 584 106 616 c 4
EndSplineSet
EndChar

StartChar: uni0237
Encoding: 567 567 236
Width: 323
VWidth: 0
Flags: W
HStem: -228 29<46.6196 129.33> 415 35<72 149.149>
VStem: -30 68<-180.38 -99> 152 90<-151.611 413.286>
LayerCount: 5
Fore
SplineSet
242 450 m 1
 242 -63 l 2
 242 -161 175 -228 96 -228 c 0
 33 -228 -30 -185 -30 -118 c 0
 -30 -80 -9 -46 29 -46 c 0
 57 -46 81 -68 81 -102 c 0
 81 -147 38 -145 38 -168 c 0
 38 -185 61 -199 93 -199 c 0
 130 -199 152 -170 152 -117 c 2
 152 365 l 2
 152 410 147 415 102 415 c 2
 72 415 l 1
 72 450 l 1
 242 450 l 1
EndSplineSet
EndChar

StartChar: multiply
Encoding: 215 215 237
Width: 576
VWidth: 0
Flags: W
LayerCount: 5
Fore
SplineSet
288 285 m 1
 474 471 l 1
 509 436 l 1
 323 250 l 1
 509 64 l 1
 474 29 l 1
 288 215 l 1
 102 29 l 1
 67 64 l 1
 253 250 l 1
 67 436 l 1
 102 471 l 1
 288 285 l 1
EndSplineSet
EndChar

StartChar: divide
Encoding: 247 247 238
Width: 586
VWidth: 0
Flags: W
HStem: 29 116<247.381 338.619> 225 50<40 546> 355 116<247.381 338.619>
VStem: 235 116<41.3806 132.619 367.381 458.619>
CounterMasks: 1 e0
LayerCount: 5
Fore
SplineSet
235 413 m 0
 235 445 261 471 293 471 c 0
 325 471 351 445 351 413 c 0
 351 381 325 355 293 355 c 0
 261 355 235 381 235 413 c 0
235 87 m 0
 235 119 261 145 293 145 c 0
 325 145 351 119 351 87 c 0
 351 55 325 29 293 29 c 0
 261 29 235 55 235 87 c 0
40 275 m 1
 546 275 l 1
 546 225 l 1
 40 225 l 1
 40 275 l 1
EndSplineSet
EndChar

StartChar: minus
Encoding: 8722 8722 239
Width: 576
VWidth: 0
Flags: W
HStem: 225 50<40 536>
LayerCount: 5
Fore
SplineSet
40 275 m 5
 536 275 l 5
 536 225 l 5
 40 225 l 5
 40 275 l 5
EndSplineSet
EndChar

StartChar: uni0090
Encoding: 144 144 242
Width: 1024
VWidth: 0
LayerCount: 5
Layer: 2
SplineSet
405 616 m 4
 405 648 431 674 463 674 c 4
 495 674 521 648 521 616 c 4
 521 584 495 558 463 558 c 4
 431 558 405 584 405 616 c 4
EndSplineSet
EndChar

StartChar: uniFB00
Encoding: 64256 64256 243
Width: 648
VWidth: 0
Flags: W
HStem: 0 35<44 121.149 216.851 284 315 392.149 487.851 555> 415 35<40 124 214 395 485 594> 681 29<252.955 352.66 512.131 607.618>
VStem: 124 90<36.7143 415 450 619.945> 395 90<36.7143 415 450 548> 616 80<565.022 654.097>
LayerCount: 5
Fore
SplineSet
696 590 m 0
 696 557 672 527 638 527 c 0
 613 527 586 546 586 578 c 0
 586 612 616 629 616 650 c 0
 616 670 587 681 558 681 c 0
 515 681 485 658 485 594 c 2
 485 450 l 1
 594 450 l 1
 594 415 l 1
 485 415 l 1
 485 85 l 2
 485 40 490 35 535 35 c 2
 555 35 l 1
 555 0 l 1
 315 0 l 1
 315 35 l 1
 345 35 l 2
 390 35 395 40 395 85 c 2
 395 415 l 1
 313 415 l 1
 311 415 l 1
 214 415 l 1
 214 85 l 2
 214 40 219 35 264 35 c 2
 284 35 l 1
 284 0 l 1
 44 0 l 1
 44 35 l 1
 74 35 l 2
 119 35 124 40 124 85 c 2
 124 415 l 1
 40 415 l 1
 40 450 l 1
 124 450 l 1
 124 532 l 2
 124 646 210 710 300 710 c 0
 356 710 405 688 429 652 c 1
 460 691 506 710 555 710 c 0
 635 710 696 654 696 590 c 0
395 548 m 1
 376 548 349 566 349 597 c 0
 349 616 361 635 361 648 c 0
 361 671 334 681 303 681 c 0
 254 681 214 650 214 586 c 2
 214 450 l 1
 311 450 l 1
 313 450 l 1
 395 450 l 1
 395 540 l 2
 395 543 395 545 395 548 c 1
EndSplineSet
Layer: 2
SplineSet
696 590 m 4
 696 557 672 527 638 527 c 4
 613 527 586 546 586 578 c 4
 586 612 616 629 616 650 c 4
 616 670 587 681 558 681 c 4
 515 681 485 658 485 594 c 6
 485 450 l 5
 594 450 l 5
 594 415 l 5
 485 415 l 5
 485 85 l 6
 485 40 490 35 535 35 c 6
 555 35 l 5
 555 0 l 5
 315 0 l 5
 315 35 l 5
 345 35 l 6
 390 35 395 40 395 85 c 6
 395 415 l 5
 311 415 l 5
 311 450 l 5
 395 450 l 5
 395 540 l 6
 395 654 472 710 555 710 c 4
 635 710 696 654 696 590 c 4
444.662870006 602.424248255 m 0
 444.662870006 578.836314021 428.281242382 547.753997656 394.589247974 547.753997656 c 0
 376.007879809 547.753997656 348.671753244 565.698653636 348.671753244 596.722526816 c 0
 348.671753244 616.049419706 360.655520437 634.919940741 360.655520437 648.231927482 c 0
 360.655520437 670.995053141 333.958984375 681 303 681 c 0
 254 681 214 650 214 586 c 2
 214 450 l 1
 313 450 l 1
 313 415 l 1
 214 415 l 1
 214 85 l 2
 214 40 219 35 264 35 c 2
 284 35 l 1
 284 0 l 1
 44 0 l 1
 44 35 l 1
 74 35 l 2
 119 35 124 40 124 85 c 2
 124 415 l 1
 40 415 l 1
 40 450 l 1
 124 450 l 1
 124 532 l 2
 124 646 210 710 300 710 c 0
 378 710 444.662870006 666 444.662870006 602.424248255 c 0
EndSplineSet
LCarets2: 1 0 
Ligature2: "Ligature Substitution in Latin lookup 0-1" f f
EndChar

StartChar: uniFB01
Encoding: 64257 64257 244
Width: 604
VWidth: 0
Flags: W
HStem: 0 35<50 124.727 222.851 300> 415 35<50 127.149> 558 116<118.381 209.619>
VStem: 106 116<570.381 661.619> 130 90<38.1941 413.286>
LayerCount: 5
Fore
SplineSet
410 643 m 0xe0
 410 662 375 681 328 681 c 0
 258 681 214 634 214 545 c 2
 214 450 l 1
 494 450 l 1
 494 85 l 2
 494 40 499 35 544 35 c 2
 574 35 l 1
 574 0 l 1
 334 0 l 1
 334 35 l 1
 354 35 l 2
 394 35 404 45 404 85 c 2
 404 365 l 2
 404 410 399 415 354 415 c 2
 214 415 l 1
 214 85 l 2
 214 40 219 35 264 35 c 2
 289 35 l 1
 289 0 l 1
 44 0 l 1
 44 35 l 1
 74 35 l 2
 119 35 124 40 124 85 c 2
 124 415 l 1
 40 415 l 1
 40 450 l 1
 124 450 l 1
 124 510 l 2
 124 626 204 710 322 710 c 0
 396 710 492 668 492 583 c 0
 492 555 476 527 439 527 c 0
 414 527 384 547 384 583 c 0
 384 611 410 625 410 643 c 0xe0
EndSplineSet
Ligature2: "Ligature Substitution in Latin lookup 0-1" f i
EndChar

StartChar: uniFB02
Encoding: 64258 64258 245
Width: 655
VWidth: 0
Flags: W
HStem: 0 35<44 121.149 216.851 314 375 452.149 547.851 625> 415 35<40 124 214 311> 645 35<398 451.851> 681 29<236.192 330.547>
VStem: 124 90<36.7143 415 450 633.611> 303 108<549.305 634.363> 455 90<36.7143 643.273>
LayerCount: 5
Fore
SplineSet
356 538 m 0
 333 538 303 559 303 592 c 0
 303 624 337 637 337 654 c 0
 337 672 309 681 278 681 c 0
 234 681 214 652 214 599 c 2
 214 450 l 1
 311 450 l 1
 311 415 l 1
 214 415 l 1
 214 85 l 2
 214 40 219 35 264 35 c 2
 314 35 l 1
 314 0 l 1
 44 0 l 1
 44 35 l 1
 74 35 l 2
 119 35 124 40 124 85 c 2
 124 415 l 1
 40 415 l 1
 40 450 l 1
 124 450 l 1
 124 545 l 2
 124 643 189 710 275 710 c 0
 313 710 345 699 369 680 c 1
 545 680 l 1
 545 85 l 2
 545 40 550 35 595 35 c 2
 625 35 l 1
 625 0 l 1
 375 0 l 1
 375 35 l 1
 405 35 l 2
 450 35 455 40 455 85 c 2
 455 595 l 2
 455 644 448 645 398 645 c 1
 400 640 403 635 405 629 c 0
 409 618 411 608 411 597 c 0
 411 569 392 538 356 538 c 0
EndSplineSet
Layer: 2
SplineSet
595 35 m 6
 625 35 l 5
 625 0 l 5
 375 0 l 5
 375 35 l 5
 405 35 l 6
 450 35 455 40 455 85 c 6
 455 595 l 6
 455 640 449 645 405 645 c 6
 355 645 l 5
 355 680 l 5
 545 680 l 5
 545 85 l 6
 545 40 550 35 595 35 c 6
356 538 m 0
 333 538 303 559 303 592 c 0
 303 624 337 637 337 654 c 0
 337 672 309 681 278 681 c 0
 234 681 214 652 214 599 c 2
 214 450 l 1
 311 450 l 1
 311 415 l 1
 214 415 l 1
 214 85 l 2
 214 40 219 35 264 35 c 2
 314 35 l 1
 314 0 l 1
 44 0 l 1
 44 35 l 1
 74 35 l 2
 119 35 124 40 124 85 c 2
 124 415 l 1
 40 415 l 1
 40 450 l 1
 124 450 l 1
 124 545 l 2
 124 643 189 710 275 710 c 0
 338 710 386 680 405 629 c 0
 409 618 411 608 411 597 c 0
 411 569 392 538 356 538 c 0
EndSplineSet
LCarets2: 1 0 
Ligature2: "Ligature Substitution in Latin lookup 0-1" f l
EndChar

StartChar: uniFB03
Encoding: 64259 64259 246
Width: 855
VWidth: 0
Flags: W
HStem: 0 35<44 121.149 216.851 284 315 392.149 487.851 555 590 649.727 747.851 825> 415 35<40 124 214 395 485 652.149> 681 29<252.955 354.888 536.065 644.447>
VStem: 124 90<36.7143 415 450 619.945> 354 131<551.123 637.277> 395 90<36.7143 415 450 553.024> 655 90<38.1941 413.286 560.168 645.547>
LayerCount: 5
Fore
SplineSet
661 643 m 0xf6
 661 662 632 681 589 681 c 0
 524 681 485 634 485 545 c 2
 485 450 l 1
 745 450 l 1
 745 85 l 2
 745 40 750 35 795 35 c 2
 825 35 l 1
 825 0 l 1
 590 0 l 1
 590 35 l 1
 605 35 l 2
 645 35 655 45 655 85 c 2
 655 365 l 2
 655 410 650 415 605 415 c 2
 485 415 l 1
 485 85 l 2
 485 40 490 35 535 35 c 2
 555 35 l 1
 555 0 l 1
 315 0 l 1
 315 35 l 1
 345 35 l 2
 390 35 395 40 395 85 c 2
 395 415 l 1
 214 415 l 1
 214 85 l 2
 214 40 219 35 264 35 c 2
 284 35 l 1
 284 0 l 1
 44 0 l 1
 44 35 l 1
 74 35 l 2
 119 35 124 40 124 85 c 2
 124 415 l 1
 40 415 l 1
 40 450 l 1
 124 450 l 1
 124 532 l 2
 124 646 210 710 300 710 c 0
 358 710 413 683 437 642 c 1
 470 685 521 710 583 710 c 0
 653 710 743 668 743 583 c 0
 743 555 727 527 690 527 c 0
 665 527 635 547 635 583 c 0
 635 611 661 625 661 643 c 0xf6
397 543 m 1
 378 545 354 563 354 592 c 0xfa
 354 611 368 632 368 645 c 0
 368 668 334 681 303 681 c 0
 254 681 214 650 214 586 c 2
 214 450 l 1
 395 450 l 1
 395 510 l 2
 395 521 396 532 397 543 c 1
EndSplineSet
Layer: 2
SplineSet
661 643 m 4
 661 662 632 681 589 681 c 4
 524 681 485 634 485 545 c 6
 485 450 l 5
 745 450 l 5
 745 85 l 6
 745 40 750 35 795 35 c 6
 825 35 l 5
 825 0 l 5
 590 0 l 5
 590 35 l 5
 605 35 l 6
 645 35 655 45 655 85 c 6
 655 365 l 6
 655 410 650 415 605 415 c 6
 485 415 l 5
 485 85 l 6
 485 40 490 35 535 35 c 6
 555 35 l 5
 555 0 l 5
 315 0 l 5
 315 35 l 5
 345 35 l 6
 390 35 395 40 395 85 c 6
 395 415 l 5
 311 415 l 5
 311 450 l 5
 395 450 l 5
 395 510 l 6
 395 626 470 710 583 710 c 4
 653 710 743 668 743 583 c 4
 743 555 727 527 690 527 c 4
 665 527 635 547 635 583 c 4
 635 611 661 625 661 643 c 4
450 597 m 4
 450 574 433 543 400 543 c 4
 381 543 354 561 354 592 c 4
 354 611 368 632 368 645 c 4
 368 668 334 681 303 681 c 4
 254 681 214 650 214 586 c 6
 214 450 l 5
 313 450 l 5
 313 415 l 5
 214 415 l 5
 214 85 l 6
 214 40 219 35 264 35 c 6
 284 35 l 5
 284 0 l 5
 44 0 l 5
 44 35 l 5
 74 35 l 6
 119 35 124 40 124 85 c 6
 124 415 l 5
 40 415 l 5
 40 450 l 5
 124 450 l 5
 124 532 l 6
 124 646 210 710 300 710 c 4
 378 710 450 661 450 597 c 4
EndSplineSet
Ligature2: "Ligature Substitution in Latin lookup 0-1" f f i
EndChar

StartChar: plusminus
Encoding: 177 177 247
Width: 576
VWidth: 0
Flags: W
HStem: 15 50<80 496> 281 50<90 263 313 486>
VStem: 263 50<108 281 331 504>
LayerCount: 5
Fore
SplineSet
496 65 m 1
 496 15 l 1
 80 15 l 1
 80 65 l 1
 496 65 l 1
313 331 m 1
 486 331 l 1
 486 281 l 1
 313 281 l 1
 313 108 l 1
 263 108 l 1
 263 281 l 1
 90 281 l 1
 90 331 l 1
 263 331 l 1
 263 504 l 1
 313 504 l 1
 313 331 l 1
EndSplineSet
EndChar

StartChar: f.short
Encoding: 59493 59493 248
Width: 375
VWidth: 0
Flags: W
HStem: 0 35<44 121.149 216.851 314> 415 35<40 124 214 311> 681 29<236.67 319.38>
VStem: 124 90<36.7143 415 450 633.611> 328 68<581 662.38>
LayerCount: 5
Fore
SplineSet
124 85 m 2
 124 415 l 1
 40 415 l 1
 40 450 l 1
 124 450 l 1
 124 545 l 2
 124 643 191 710 270 710 c 0
 333 710 396 667 396 600 c 0
 396 562 375 528 337 528 c 0
 309 528 285 550 285 584 c 0
 285 629 328 627 328 650 c 0
 328 667 305 681 273 681 c 0
 236 681 214 652 214 599 c 2
 214 450 l 1
 311 450 l 1
 311 415 l 1
 214 415 l 1
 214 85 l 2
 214 40 219 35 264 35 c 2
 314 35 l 5
 314 0 l 1
 44 0 l 1
 44 35 l 1
 74 35 l 2
 119 35 124 40 124 85 c 2
EndSplineSet
EndChar

StartChar: uni204B
Encoding: 8267 8267 249
Width: 498
VWidth: 0
Flags: W
HStem: 0 21G<100.966 142 199.967 241> 645 35<40 97.1485 143.422 196.578>
VStem: 101 41<0 642.467> 199 259<418.241 589.759> 200 41<0 328>
LayerCount: 5
Fore
SplineSet
240 328 m 25xf0
 241 0 l 1
 200 0 l 1xe8
 199 610 l 2
 199 640 185 645 170 645 c 3
 155 645 141 640 141 610 c 2
 142 0 l 1
 101 0 l 1
 100 595 l 2
 100 640 95 645 50 645 c 2
 40 645 l 1
 40 680 l 1
 252 680 l 2
 372 680 458 614 458 504 c 3
 458 394 372 328 252 328 c 10
 240 328 l 25xf0
EndSplineSet
EndChar

StartChar: A.alt
Encoding: 59496 59496 250
Width: 681
VWidth: 0
Flags: W
HStem: 0 35<40 117.149 212.851 290> 645 35<40 117.149>
VStem: 120 90<36.7143 643.286>
AnchorPoint: "trema" 360 750 basechar 0
AnchorPoint: "acute gravis circumflex tilde" 360 720 basechar 0
LayerCount: 5
Fore
SplineSet
376 692 m 1025,0,-1
240 35 m 1,1,-1
 240 0 l 1,2,-1
 -10 0 l 1,3,-1
 -10 35 l 1,4,-1
 22 35 l 2,5,-1
 70.3854069705 35 83.9208278702 36.710402632 107 96 c 2,8,-1
 339 692 l 1,9,-1
 351 692 364 692 376 692 c 1,12,-1
 585 106 l 2,13,-1
 609.668933639 36.8325592693 618.703089608 35 667 35 c 2,16,-1
 691 35 l 1,17,-1
 691 0 l 1,18,-1
 395 0 l 1,19,-1
 395 35 l 1,20,-1
 428 35 l 2,21,-1
 476.083172894 35 490.84289735 43.9408103672 468 110 c 2,24,-1
 431 217 l 1,25,-1
 195 217 l 1,26,-1
 151 101 l 2,27,-1
 127.709258617 39.5971363543 145.522577166 35 199 35 c 2,30,-1
 240 35 l 1,1,-1
209 252 m 1,31,-1
 419 252 l 1,32,-1
 319 541 l 1,33,-1
 209 252 l 1,31,-1
EndSplineSet
EndChar

StartChar: B.alt
Encoding: 59497 59497 251
Width: 638
VWidth: 0
Flags: W
HStem: 0 35<30 117.149 240.116 396.84> 348 36<226 378.391> 645 35<30 117.149 238.854 374.808>
VStem: 120 106<47.6143 348 384 633.559> 430 123<438.782 596.159> 475 123<102.722 271.496>
LayerCount: 5
Fore
SplineSet
30 680 m 1xf4
 312 680 l 2
 472 680 553 619 553 514 c 0xf8
 553 452 520 396 428 376 c 1
 428 362 l 1
 536 348 598 274 598 190 c 0
 598 65 492 0 322 0 c 2
 30 0 l 1
 30 35 l 1
 70 35 l 2
 115 35 120 40 120 85 c 2
 120 595 l 2
 120 640 115 645 70 645 c 6
 30 645 l 1
 30 680 l 1xf4
300 36 m 2
 312 36 l 2
 409 36 475 80 475 190 c 0xf4
 475 300 409 348 312 348 c 2
 226 348 l 1
 226 76 l 2
 226 44 279 36 300 36 c 2
302 384 m 2
 379 384 430 419 430 514 c 0xf8
 430 609 379 644 302 644 c 2
 295 644 l 2
 274 644 226 636 226 604 c 2
 226 384 l 1
 302 384 l 2
EndSplineSet
EndChar

StartChar: C.alt
Encoding: 59498 59498 252
Width: 598
VWidth: 0
Flags: W
HStem: -12 42<257.272 411.988> 656 36<259.45 398.963>
VStem: 40 132<193.233 486.048> 510 40<436 514.438> 520 38<150.969 214>
AnchorPoint: "trema" 323 750 basechar 0
AnchorPoint: "acute gravis circumflex tilde" 323 730 basechar 0
AnchorPoint: "cedilla" 300 0 basechar 0
LayerCount: 5
Fore
SplineSet
558 214 m 1xe8
 540 62 438 -12 323 -12 c 0
 163 -12 40 121 40 340 c 0
 40 535 146 692 323 692 c 0
 376 692 404 678 431 664 c 0
 475 641 487 644 507 678 c 2
 515 692 l 1
 550 692 l 0
 550 436 l 0
 510 436 l 1xf0
 483 609 401 656 323 656 c 0
 235 656 172 590 172 340 c 0
 172 90 241 30 328 30 c 0
 428 30 503 102 520 214 c 1
 558 214 l 1xe8
EndSplineSet
EndChar

StartChar: D.alt
Encoding: 59499 59499 253
Width: 670
VWidth: 0
Flags: W
HStem: 0 35<30 117.149 237.854 386.372> 645 35<30 117.149 238.071 386.372>
VStem: 120 105<46.4414 633.224> 500 130<205.237 474.763>
LayerCount: 5
Fore
SplineSet
30 680 m 1
 311 680 l 2
 531 680 630 520 630 340 c 3
 630 160 531 0 311 0 c 2
 30 0 l 1
 30 35 l 1
 70 35 l 2
 115 35 120 40 120 85 c 2
 120 595 l 2
 120 640 115 645 70 645 c 2
 30 645 l 1
 30 680 l 1
301 36 m 2
 441 36 500 120 500 340 c 3
 500 560 441 644 301 644 c 2
 294 644 l 2
 274 644 225 636 225 604 c 2
 225 76 l 2
 225 44 273 36 294 36 c 2
 301 36 l 2
EndSplineSet
EndChar

StartChar: E.alt
Encoding: 59500 59500 254
Width: 636
VWidth: 0
Flags: W
HStem: 0 36<30 117.467 235.014 439.282> 327 35<225 333.927> 644 36<30 117.467 236.704 430.025>
VStem: 120 105<44.481 327 362 633.224> 387 35<175 253.349 431.041 512> 539 30<445 500.104> 556 30<207.066 280>
AnchorPoint: "trema" 339 750 basechar 0
AnchorPoint: "acute gravis circumflex tilde" 339 730 basechar 0
LayerCount: 5
Fore
SplineSet
30 680 m 1xfa
 209 680 387 680 564 680 c 1
 569 445 l 1
 539 445 l 1xfc
 512 571 458 644 353 644 c 2
 290 644 l 2
 260 644 225 628 225 604 c 2
 225 362 l 1
 288 362 l 2
 348 362 379 422 387 512 c 1
 422 512 l 1
 422 175 l 1
 387 175 l 1
 379 265 344 327 288 327 c 2
 225 327 l 1
 225 79 l 2
 225 55 250 36 276 36 c 2
 350 36 l 2
 516 36 534 159 556 280 c 1
 586 280 l 1
 581 0 l 1
 30 0 l 1
 30 35 l 1
 70 35 l 2
 115 35 120 40 120 85 c 2
 120 595 l 2
 120 640 115 645 70 645 c 2
 30 645 l 5
 30 680 l 1xfa
EndSplineSet
EndChar

StartChar: F.alt
Encoding: 59501 59501 255
Width: 599
VWidth: 0
Flags: W
HStem: 0 35<30 117.149 227.851 335> 327 35<225 333.927> 644 36<30 117.467 236.704 430.025>
VStem: 120 105<36.7143 327 362 633.224> 387 35<175 253.349 431.041 512> 539 30<445 500.104>
LayerCount: 5
Fore
SplineSet
225 85 m 2
 225 40 230 35 275 35 c 2
 335 35 l 1
 335 0 l 1
 30 0 l 1
 30 35 l 1
 70 35 l 2
 115 35 120 40 120 85 c 2
 120 595 l 2
 120 640 115 645 70 645 c 2
 30 645 l 1
 30 680 l 1
 564 680 l 1
 569 445 l 1
 539 445 l 1
 512 571 458 644 353 644 c 2
 290 644 l 2
 260 644 225 628 225 604 c 2
 225 362 l 1
 288 362 l 2
 348 362 379 422 387 512 c 1
 422 512 l 1
 422 175 l 1
 387 175 l 1
 379 265 344 327 288 327 c 2
 225 327 l 1
 225 85 l 2
EndSplineSet
EndChar

StartChar: G.alt
Encoding: 59502 59502 256
Width: 673
VWidth: 0
Flags: W
HStem: -12 39<260.853 395.937> 323 35<369 456.149 565.851 653> 656 36<258.948 398.963>
VStem: 40 132<194.376 486.048> 459 104<90.1247 321.286> 510 40<436 514.438>
LayerCount: 5
Fore
SplineSet
563 273 m 2xf8
 563 -12 l 1xf8
 533 -12 l 1
 525 7 l 2
 497 74 481 63 448 37 c 0
 409 4 363 -12 314 -12 c 0
 146 -12 40 146 40 340 c 0
 40 535 144 692 323 692 c 0
 376 692 404 679 431 664 c 0
 475 641 480 639 507 677 c 2
 515 692 l 1
 550 692 l 1
 550 436 l 1
 510 436 l 1xf4
 483 609 401 656 323 656 c 0
 234 656 172 590 172 340 c 0
 172 90 238 27 333 27 c 0
 393 27 459 74 459 188 c 2
 459 273 l 2
 459 318 454 323 409 323 c 2
 369 323 l 1
 369 358 l 1
 653 358 l 1
 653 323 l 1
 613 323 l 2
 568 323 563 318 563 273 c 2xf8
EndSplineSet
EndChar

StartChar: H.alt
Encoding: 59503 59503 257
Width: 718
VWidth: 0
Flags: W
HStem: 0 35<30 117.149 228.851 316 402 489.149 600.851 688> 326 35<226 492> 645 35<30 117.149 228.851 316 402 489.149 600.851 688>
VStem: 120 106<36.7143 326 361 643.286> 492 106<36.7143 326 361 643.286>
LayerCount: 5
Fore
SplineSet
598 595 m 2
 598 85 l 2
 598 40 603 35 648 35 c 2
 688 35 l 1
 688 0 l 1
 402 0 l 1
 402 35 l 1
 442 35 l 2
 487 35 492 40 492 85 c 2
 492 326 l 1
 226 326 l 1
 226 85 l 2
 226 40 231 35 276 35 c 2
 316 35 l 1
 316 0 l 1
 30 0 l 1
 30 35 l 1
 70 35 l 2
 115 35 120 40 120 85 c 2
 120 595 l 2
 120 640 115 645 70 645 c 2
 30 645 l 1
 30 680 l 1
 316 680 l 1
 316 645 l 1
 276 645 l 2
 231 645 226 640 226 595 c 2
 226 361 l 1
 492 361 l 1
 492 595 l 2
 492 640 487 645 442 645 c 2
 402 645 l 1
 402 680 l 1
 688 680 l 1
 688 645 l 1
 648 645 l 2
 603 645 598 640 598 595 c 2
EndSplineSet
EndChar

StartChar: I.alt
Encoding: 59504 59504 258
Width: 411
VWidth: 0
Flags: W
HStem: 0 35<60 147.149 265.375 351> 645 35<60 147.149 263.851 351>
VStem: 150 111<38.1941 643.286>
LayerCount: 5
Fore
SplineSet
261 595 m 2
 261 85 l 2
 261 49 266 35 311 35 c 2
 351 35 l 1
 351 0 l 1
 60 0 l 1
 60 35 l 1
 100 35 l 2
 145 35 150 40 150 85 c 2
 150 595 l 2
 150 640 145 645 100 645 c 2
 60 645 l 1
 60 680 l 1
 351 680 l 1
 351 645 l 1
 311 645 l 2
 266 645 261 640 261 595 c 2
EndSplineSet
EndChar

StartChar: J.alt
Encoding: 59505 59505 259
Width: 463
VWidth: 0
Flags: W
HStem: -78 31<115.512 211.868> 645 35<152 239.149 355.851 443>
VStem: 20 77<-8.62226 73> 242 111<15.7974 643.286>
LayerCount: 5
Fore
SplineSet
353 595 m 2
 353 104 l 2
 353 6 280 -78 171 -78 c 3
 102 -78 20 -15 20 52 c 3
 20 94 44 126 82 126 c 3
 110 126 136 104 136 70 c 3
 136 28 97 21 97 -2 c 3
 97 -18 118 -47 168 -47 c 3
 212 -47 242 -18 242 50 c 2
 242 595 l 2
 242 640 237 645 192 645 c 2
 152 645 l 1
 152 680 l 1
 443 680 l 1
 443 645 l 1
 403 645 l 2
 358 645 353 640 353 595 c 2
EndSplineSet
EndChar

StartChar: K.alt
Encoding: 59506 59506 260
Width: 709
VWidth: 0
Flags: W
HStem: 0 35<30 117.149 228.851 316 413 472.353 620.807 709> 645 35<30 117.149 228.851 316 397 497.311 575.782 662>
VStem: 120 106<36.7143 237 298 643.286>
LayerCount: 5
Fore
SplineSet
226 85 m 2
 226 40 231 35 276 35 c 2
 316 35 l 1
 316 0 l 1
 30 0 l 1
 30 35 l 1
 70 35 l 2
 115 35 120 40 120 85 c 2
 120 595 l 2
 120 640 115 645 70 645 c 2
 30 645 l 1
 30 680 l 1
 316 680 l 1
 316 645 l 1
 276 645 l 2
 231 645 226 640 226 595 c 2
 226 298 l 1
 462 566 l 2
 509.567952609 620.017844488 518.694701903 643 439 643 c 2
 397 643 l 1
 397 680 l 1
 662 680 l 1
 662 643 l 1
 637 643 l 2
 587.02522769 643 577.623895356 635.091337935 530 581 c 2
 368 397 l 1
 579 104 l 2
 623.339500633 42.4290346658 628.136571272 37 684 37 c 2
 709 37 l 1
 709 0 l 1
 413 0 l 1
 413 37 l 1
 436 37 l 2
 475.946840524 37 483.039190359 52.38525098 458 88 c 2
 297 317 l 1
 226 237 l 1
 226 85 l 2
EndSplineSet
EndChar

StartChar: L.alt
Encoding: 59507 59507 261
Width: 579
VWidth: 0
Flags: W
HStem: 0 35<30 117.149 239.999 402.282> 645 35<30 117.149 228.851 316>
VStem: 120 106<46.7763 643.286> 519 30<207.066 280>
LayerCount: 5
Fore
SplineSet
30 0 m 1
 30 35 l 1
 70 35 l 2
 115 35 120 40 120 85 c 2
 120 595 l 2
 120 640 115 645 70 645 c 2
 30 645 l 1
 30 680 l 1
 316 680 l 1
 316 645 l 1
 276 645 l 2
 231 645 226 640 226 595 c 6
 226 84 l 2
 226 53 257 36 285 36 c 2
 313 36 l 2
 479 36 497 159 519 280 c 1
 549 280 l 1
 544 0 l 1
 30 0 l 1
EndSplineSet
EndChar

StartChar: M.alt
Encoding: 59508 59508 262
Width: 792
VWidth: 0
Flags: W
HStem: 0 35<30 127.114 173.851 271 477 564.149 674.851 762> 645 35<30 119.12 674.851 762>
VStem: 130 41<37.2378 581.801> 567 105<36.7143 530.008>
LayerCount: 5
Fore
SplineSet
171 85 m 2
 171 40 176 35 221 35 c 2
 271 35 l 1
 271 0 l 1
 30 0 l 1
 30 35 l 1
 80 35 l 2
 125 35 129.921460224 40.0000685389 130 85 c 2
 131 568 l 2
 131 639 111 645 55 645 c 2
 30 645 l 1
 30 680 l 1
 281 680 l 1
 409 263 l 1
 555 680 l 1
 762 680 l 1
 762 645 l 1
 722 645 l 2
 677 645 672 640 672 595 c 2
 672 85 l 2
 672 40 677 35 722 35 c 2
 762 35 l 1
 762 0 l 1
 477 0 l 1
 477 35 l 1
 517 35 l 2
 562 35 567 40 567 85 c 2
 567 528 l 2
 567 538.062242757 553.880302724 555.689447165 545 530 c 2
 489 368 l 2
 439.827030025 225.749622572 386 36 380 15 c 1
 360 15 l 1
 353 45 302.456110428 245.851324423 258 389 c 2
 207 550 l 2
 189.02465946 606.745682882 171 597.813938181 171 549 c 2
 171 85 l 2
EndSplineSet
EndChar

StartChar: N.alt
Encoding: 59509 59509 263
Width: 719
VWidth: 0
Flags: W
HStem: -12 21G<559.501 598.033> 0 35<38 135.149 181.851 279> 645 35<38 120.201 458 555.149 601.851 699>
VStem: 138 41<37.2378 532.734> 558 40<205 642.467>
AnchorPoint: "acute gravis circumflex tilde" 364 730 basechar 0
LayerCount: 5
Fore
SplineSet
599 595 m 2x78
 598 -12 l 1
 573 -12 l 1xb8
 220 511 l 2
 191 555 179 535 179 498 c 2
 179 85 l 2
 179 40 184 35 229 35 c 2
 279 35 l 1
 279 0 l 1
 38 0 l 1
 38 35 l 1
 88 35 l 2
 133 35 138 40 138 85 c 2
 139 568 l 2
 139 629 111 645 63 645 c 2
 38 645 l 1
 38 680 l 1
 232 680 l 1
 558 205 l 1
 558 595 l 2
 558 640 553 645 508 645 c 2
 458 645 l 1
 458 680 l 1
 699 680 l 1
 699 645 l 1
 649 645 l 2
 604 645 599 640 599 595 c 2x78
EndSplineSet
EndChar

StartChar: O.alt
Encoding: 59510 59510 264
Width: 645
VWidth: 0
Flags: W
HStem: -12 32<264.086 381.819> 660 32<264.086 381.819>
VStem: 40 132<193.889 486.326> 473 132<193.889 486.326>
AnchorPoint: "trema" 323 750 basechar 0
AnchorPoint: "acute gravis circumflex tilde" 323 730 basechar 0
LayerCount: 5
Fore
SplineSet
172 340 m 4
 172 90 233 20 323 20 c 4
 413 20 473 90 473 340 c 0
 473 590 413 660 323 660 c 4
 233 660 172 590 172 340 c 4
40 340 m 4
 40 535 143 692 323 692 c 4
 503 692 605 535 605 340 c 0
 605 146 503 -12 323 -12 c 4
 143 -12 40 146 40 340 c 4
EndSplineSet
EndChar

StartChar: P.alt
Encoding: 59511 59511 265
Width: 587
VWidth: 0
Flags: W
HStem: 0 35<30 117.149 227.851 335> 328 36<225 367.508> 645 35<30 117.149 237.854 367.508>
VStem: 120 105<36.7143 328 364 633.559> 427 130<418.373 589.627>
LayerCount: 5
Fore
SplineSet
225 85 m 2
 225 40 230 35 275 35 c 2
 335 35 l 1
 335 0 l 1
 30 0 l 1
 30 35 l 1
 70 35 l 2
 115 35 120 40 120 85 c 2
 120 595 l 2
 120 640 115 645 70 645 c 2
 30 645 l 1
 30 680 l 1
 311 680 l 2
 471 680 557 614 557 504 c 3
 557 394 471 328 311 328 c 2
 225 328 l 1
 225 85 l 2
225 364 m 1
 301 364 l 2
 371 364 427 404 427 504 c 3
 427 604 371 644 301 644 c 2
 294 644 l 2
 273 644 225 636 225 604 c 2
 225 364 l 1
EndSplineSet
EndChar

StartChar: Q.alt
Encoding: 59512 59512 266
Width: 645
VWidth: 0
Flags: W
HStem: 660 32<264.086 381.819>
VStem: 40 132<192.83 486.326> 473 132<193.419 486.326>
LayerCount: 5
Fore
SplineSet
75 -125 m 1
 54 -115 l 1
 84 -56 124 7 179 30 c 1
 89 89 40 206 40 340 c 0
 40 535 143 692 323 692 c 0
 503 692 605 535 605 340 c 0
 605 174 530 34 396 -2 c 0
 374 -9 356 -22 381 -41 c 0
 458 -101 509 -129 581 -22 c 1
 600 -35 l 1
 515 -249 390 -205 272 -87 c 0
 203 -18 133 -20 75 -125 c 1
172 340 m 0
 172 90 233 20 323 20 c 0
 413 20 473 90 473 340 c 0
 473 590 413 660 323 660 c 0
 233 660 172 590 172 340 c 0
EndSplineSet
EndChar

StartChar: R.alt
Encoding: 59513 59513 267
Width: 683
VWidth: 0
Flags: W
HStem: -12 66<512.5 623.193> 0 35<30 117.149 227.851 325> 348 36<225 356> 645 35<30 117.149 237.854 374.076>
VStem: 120 105<36.7143 348 384 633.559> 437 120<435.584 594.886> 640 33<76.5317 172>
LayerCount: 5
Fore
SplineSet
225 85 m 2xbe
 225 40 230 35 275 35 c 2
 325 35 l 1
 325 0 l 1
 30 0 l 1
 30 35 l 1
 70 35 l 2x7e
 115 35 120 40 120 85 c 2
 120 595 l 2
 120 640 115 645 70 645 c 2
 30 645 l 1
 30 680 l 1
 311 680 l 2
 471 680 557 619 557 514 c 0
 557 439 508 379 410 366 c 1
 410 355 l 1
 486 334 532 255 541 172 c 0
 546 127 552 54 594 54 c 0
 629 54 640 114 640 172 c 1
 670 172 l 1
 672 158 673 145 673 132 c 0
 673 46 633 -12 557 -12 c 0
 468 -12 428 53 422 177 c 0
 418 263 378 348 305 348 c 2
 225 348 l 1
 225 85 l 2xbe
301 384 m 2
 381 384 437 419 437 514 c 0
 437 609 381 644 301 644 c 2
 294 644 l 2
 273 644 225 636 225 604 c 2
 225 384 l 1
 301 384 l 2
EndSplineSet
EndChar

StartChar: S.alt
Encoding: 59514 59514 268
Width: 625
VWidth: 0
Flags: W
HStem: -12 39<234.204 410.605> 656 36<208.01 364.592>
VStem: 60 40<191.338 287> 63 102<457.317 591.638> 474 91<106.69 217.193> 486 40<446 517.51>
LayerCount: 5
Fore
SplineSet
318 27 m 0xe8
 432 27 474 90 474 143 c 3xe8
 474 215 426 264 331 296 c 2
 240 327 l 18
 146 360 63 408 63 508 c 3
 63 609 148 692 284 692 c 0
 337 692 380 675 407 660 c 0
 448 638 463 640 483 677 c 2
 491 692 l 1
 526 692 l 0
 526 446 l 0
 486 446 l 1
 459 619 355 656 284 656 c 0
 213 656 165 621 165 572 c 3xd4
 165 510 215 469 281 446 c 2
 353 421 l 2
 474 379 565 317 565 195 c 3
 565 82 466 -12 323 -12 c 0
 270 -12 225 1 177 29 c 0
 137 53 125 44 103 3 c 2
 95 -12 l 1
 60 -12 l 0
 60 287 l 0
 100 287 l 1
 120 94 223 27 318 27 c 0xe8
EndSplineSet
EndChar

StartChar: T.alt
Encoding: 59515 59515 269
Width: 638
VWidth: 0
Flags: W
HStem: 0 35<174 256.238 382.762 465> 644 36<157.286 258.453 380.291 480.714>
VStem: 39 30<430 486.756> 264 111<40.0216 639.781> 569 30<430 486.756>
LayerCount: 5
Fore
SplineSet
210 644 m 3
 134 644 98 558 69 430 c 1
 39 430 l 1
 45 680 l 1
 593 680 l 1
 599 430 l 1
 569 430 l 1
 540 558 504 644 428 644 c 3
 396 644 375 636 375 604 c 2
 375 85 l 2
 375 50 390 35 425 35 c 2
 465 35 l 1
 465 0 l 1
 174 0 l 1
 174 35 l 1
 214 35 l 2
 249 35 264 50 264 85 c 2
 263 604 l 2
 263 636 246 644 210 644 c 3
EndSplineSet
EndChar

StartChar: U.alt
Encoding: 59516 59516 270
Width: 677
VWidth: 0
Flags: W
HStem: -12 43<284.947 434.651> 645 35<20 107.149 226.851 314 416 513.149 559.921 657>
VStem: 110 114<121.345 643.286> 516 40<134.713 642.467>
AnchorPoint: "trema" 358 750 basechar 0
AnchorPoint: "acute gravis circumflex tilde" 358 730 basechar 0
LayerCount: 5
Fore
SplineSet
557 595 m 2
 556 257 l 2
 556 118 517 -12 330 -12 c 3
 190 -12 110 69 110 269 c 2
 110 595 l 2
 110 640 105 645 60 645 c 2
 20 645 l 1
 20 680 l 1
 314 680 l 1
 314 645 l 1
 274 645 l 2
 229 645 224 640 224 595 c 2
 224 288 l 2
 224 128 243 31 354 31 c 3
 490 31 516 154 516 274 c 2
 516 595 l 2
 516 640 511 645 466 645 c 6
 416 645 l 1
 416 680 l 1
 657 680 l 1
 657 645 l 1
 607 645 l 2
 562 645 557.157079314 639.999725845 557 595 c 2
EndSplineSet
EndChar

StartChar: V.alt
Encoding: 59517 59517 271
Width: 651
VWidth: 0
Flags: W
HStem: -12 21G<277.867 329.778> 645 35<-30 49.649 180.903 266 421 515.753 581.984 671>
AnchorPoint: "trema" 380 750 basechar 0
AnchorPoint: "acute gravis circumflex tilde" 380 720 basechar 0
LayerCount: 5
Fore
SplineSet
285 -12 m 1025,0,-1
342 139 m 1,1,-1
 504 564 l 2,2,-1
 530.718412795 634.094601467 523.751537508 645 448 645 c 2,5,-1
 421 645 l 1,6,-1
 421 680 l 1,7,-1
 671 680 l 1,8,-1
 671 645 l 1,9,-1
 646 645 l 2,10,-1
 594.579008419 645 574.70128528 637.803305007 546 564 c 2,13,-1
 322 -12 l 1,14,-1
 310 -12 297 -12 285 -12 c 1,17,-1
 76 574 l 2,18,-1
 52.2575902998 640.569627198 39.76573124 645 -6 645 c 2,21,-1
 -30 645 l 1,22,-1
 -30 680 l 1,23,-1
 266 680 l 1,24,-1
 266 645 l 1,25,-1
 226 645 l 2,26,-1
 176.971746499 645 169.683305688 637.446276837 193 570 c 2,29,-1
 342 139 l 1,1,-1
EndSplineSet
EndChar

StartChar: W.alt
Encoding: 59518 59518 272
Width: 882
VWidth: 0
Flags: W
HStem: -12 20G<260.673 296.991 600 607.209> 645 35<-30 58.01 184.622 266 324 374.301 497.821 577 639 747.34 810.31 902>
LayerCount: 5
Fore
SplineSet
-30 645 m 1
 -30 680 l 1
 266 680 l 1
 266 645 l 1
 229 645 l 2
 183.851365398 645 176.215067409 637.527964231 191 589 c 2
 315 182 l 1
 421 484 l 1
 379 616 l 2
 370.879902788 641.520305524 362.42428046 645 339 645 c 2
 324 645 l 1
 324 680 l 1
 577 680 l 1
 577 645 l 1
 544 645 l 2
 494.270542007 645 489.850050617 631.427984096 503 588 c 2
 622 195 l 1
 739 572 l 2
 759.122002565 636.83756382 751.133252755 645 692 645 c 2
 639 645 l 1
 639 680 l 1
 902 680 l 1
 902 645 l 1
 861 645 l 2
 822.291269509 645 802.903788092 637.330985954 782 570 c 2
 601 -13 l 1
 600 -12 l 1
 578 -12 l 1
 441 420 l 1
 290 -12 l 1
 267 -12 l 1
 81 576 l 2
 59.8767971974 642.776576602 48.8437487289 645 0 645 c 2
 -30 645 l 1
EndSplineSet
EndChar

StartChar: X.alt
Encoding: 59519 59519 273
Width: 698
VWidth: 0
Flags: W
HStem: 0 35<10 95.8914 164.957 263 386 459.747 605.084 688> 645 35<26 108.128 243.849 317 411 500.477 564.686 658>
LayerCount: 5
Fore
SplineSet
263 35 m 1
 263 0 l 1
 10 0 l 1
 10 35 l 1
 36 35 l 2
 83.8472787585 35 92.4667463036 42.2382090051 128 93 c 2
 296 333 l 1
 132 595 l 2
 105.026382053 638.091999403 93.2777208808 645 61 645 c 2
 26 645 l 1
 26 680 l 1
 317 680 l 1
 317 645 l 1
 290 645 l 2
 239.697150773 645 229.818114685 636.571534067 262 586 c 2
 367 421 l 1
 471 571 l 2
 514.192093355 633.296288492 512.283852387 645 457 645 c 2
 411 645 l 1
 411 680 l 1
 658 680 l 1
 658 645 l 1
 622 645 l 2
 582.28001165 645 568.225587791 639.787283955 532 588 c 2
 390 385 l 1
 580 86 l 2
 607.902044233 42.0909935491 616.735481404 35 658 35 c 2
 688 35 l 1
 688 0 l 1
 386 0 l 1
 386 35 l 1
 416 35 l 2
 470.235195139 35 470.834122278 54.0947882345 437 108 c 2
 319 296 l 1
 190 111 l 2
 143.817585559 44.7694056473 164.213968185 35 216 35 c 2
 263 35 l 1
EndSplineSet
EndChar

StartChar: Y.alt
Encoding: 59520 59520 274
Width: 639
VWidth: 0
Flags: W
HStem: 0 35<181 263.238 384.762 467> 645 35<-10 88.1043 215.728 281 424 499.23 549.296 649>
VStem: 271 106<40.0216 302>
AnchorPoint: "trema" 346 750 basechar 0
AnchorPoint: "acute gravis circumflex tilde" 346 730 basechar 0
LayerCount: 5
Fore
SplineSet
271 85 m 2
 271 302 l 1
 106 600 l 2
 83.7510817495 640.18289478 76.7044371084 645 36 645 c 2
 -10 645 l 1
 -10 680 l 1
 281 680 l 1
 281 645 l 1
 250 645 l 2
 213.050967025 645 207.500618609 631.183108192 225 600 c 2
 358 363 l 1
 484 590 l 2
 512.893955307 642.054982973 502.976261179 645 457 645 c 2
 424 645 l 1
 424 680 l 1
 649 680 l 1
 649 645 l 1
 599 645 l 2
 557.307921351 645 549.985275113 635.07478686 525 590 c 2
 377 323 l 1
 377 85 l 2
 377 50 392 35 427 35 c 2
 467 35 l 1
 467 0 l 1
 181 0 l 1
 181 35 l 1
 221 35 l 2
 256 35 271 50 271 85 c 2
EndSplineSet
EndChar

StartChar: Z.alt
Encoding: 59521 59521 275
Width: 635
VWidth: 0
Flags: W
HStem: 0 36<205.494 407.041> 644 36<228.487 401.408>
VStem: 85 30<432 480.443> 545 30<213.096 263>
LayerCount: 5
Fore
SplineSet
567 0 m 1
 60 0 l 1
 60 20 l 1
 397 610 l 2
 412 638 389 644 370 644 c 2
 313 644 l 2
 193 644 150 569 115 432 c 1
 85 432 l 1
 94 680 l 1
 546 680 l 1
 546 660 l 1
 211 70 l 2
 198 47 202 36 225 36 c 2
 333 36 l 2
 450 36 516 142 545 263 c 1
 575 263 l 1
 567 0 l 1
EndSplineSet
EndChar
